# MagicaVoxel @ Ephtracy

# group
o 

# material
mtllib Fireball.mtl
usemtl palette

# normals
vn -1 0 0
vn 1 0 0
vn 0 0 1
vn 0 0 -1
vn 0 -1 0
vn 0 1 0

# texcoords
vt 0.146484 0.5
vt 0.150391 0.5
vt 0.154297 0.5

# verts
v 0 2.1 -0.1
v 0 2.1 -0.2
v 0 2.1 -0.3
v 0 2.2 -0.1
v 0 2.2 -0.2
v 0 2.2 -0.3
v 0 2.3 -0.1
v 0 2.3 -0.2
v 0 2.3 -0.3
v 0.1 2 -0.1
v 0.1 2 -0.2
v 0.1 2 -0.3
v 0.1 2.1 0
v 0.1 2.1 -0.1
v 0.1 2.1 -0.2
v 0.1 2.1 -0.3
v 0.1 2.1 -0.4
v 0.1 2.2 0
v 0.1 2.2 -0.1
v 0.1 2.2 -0.3
v 0.1 2.2 -0.4
v 0.1 2.3 0
v 0.1 2.3 -0.1
v 0.1 2.3 -0.2
v 0.1 2.3 -0.3
v 0.1 2.3 -0.4
v 0.1 2.4 -0.1
v 0.1 2.4 -0.2
v 0.1 2.4 -0.3
v 0.3 2 -0.1
v 0.3 2 -0.2
v 0.3 2 -0.3
v 0.3 2.1 0
v 0.3 2.1 -0.1
v 0.3 2.1 -0.2
v 0.3 2.1 -0.3
v 0.3 2.1 -0.4
v 0.3 2.2 0
v 0.3 2.2 -0.1
v 0.3 2.2 -0.3
v 0.3 2.2 -0.4
v 0.3 2.3 0
v 0.3 2.3 -0.1
v 0.3 2.3 -0.2
v 0.3 2.3 -0.3
v 0.3 2.3 -0.4
v 0.3 2.4 -0.1
v 0.3 2.4 -0.2
v 0.3 2.4 -0.3
v 0.4 2.1 -0.1
v 0.4 2.1 -0.2
v 0.4 2.1 -0.3
v 0.4 2.2 -0.1
v 0.4 2.2 -0.2
v 0.4 2.2 -0.3
v 0.4 2.3 -0.1
v 0.4 2.3 -0.2
v 0.4 2.3 -0.3
v 0.1 2.1 0
v 0.1 2.2 0
v 0.1 2.3 0
v 0.2 2.1 0
v 0.2 2.2 0
v 0.2 2.3 0
v 0.3 2.1 0
v 0.3 2.2 0
v 0.3 2.3 0
v 0 2.1 -0.1
v 0 2.2 -0.1
v 0 2.3 -0.1
v 0.1 2 -0.1
v 0.1 2.1 -0.1
v 0.1 2.2 -0.1
v 0.1 2.3 -0.1
v 0.1 2.4 -0.1
v 0.2 2 -0.1
v 0.2 2.1 -0.1
v 0.2 2.3 -0.1
v 0.2 2.4 -0.1
v 0.3 2 -0.1
v 0.3 2.1 -0.1
v 0.3 2.2 -0.1
v 0.3 2.3 -0.1
v 0.3 2.4 -0.1
v 0.4 2.1 -0.1
v 0.4 2.2 -0.1
v 0.4 2.3 -0.1
v 0 2.1 -0.3
v 0 2.2 -0.3
v 0 2.3 -0.3
v 0.1 2 -0.3
v 0.1 2.1 -0.3
v 0.1 2.2 -0.3
v 0.1 2.3 -0.3
v 0.1 2.4 -0.3
v 0.2 2 -0.3
v 0.2 2.1 -0.3
v 0.2 2.3 -0.3
v 0.2 2.4 -0.3
v 0.3 2 -0.3
v 0.3 2.1 -0.3
v 0.3 2.2 -0.3
v 0.3 2.3 -0.3
v 0.3 2.4 -0.3
v 0.4 2.1 -0.3
v 0.4 2.2 -0.3
v 0.4 2.3 -0.3
v 0.1 2.1 -0.4
v 0.1 2.2 -0.4
v 0.1 2.3 -0.4
v 0.2 2.1 -0.4
v 0.2 2.2 -0.4
v 0.2 2.3 -0.4
v 0.3 2.1 -0.4
v 0.3 2.2 -0.4
v 0.3 2.3 -0.4
v 0.1 2 -0.1
v 0.2 2 -0.1
v 0.3 2 -0.1
v 0.1 2 -0.2
v 0.2 2 -0.2
v 0.3 2 -0.2
v 0.1 2 -0.3
v 0.2 2 -0.3
v 0.3 2 -0.3
v 0.1 2.1 0
v 0.2 2.1 0
v 0.3 2.1 0
v 0 2.1 -0.1
v 0.1 2.1 -0.1
v 0.2 2.1 -0.1
v 0.3 2.1 -0.1
v 0.4 2.1 -0.1
v 0 2.1 -0.2
v 0.1 2.1 -0.2
v 0.3 2.1 -0.2
v 0.4 2.1 -0.2
v 0 2.1 -0.3
v 0.1 2.1 -0.3
v 0.2 2.1 -0.3
v 0.3 2.1 -0.3
v 0.4 2.1 -0.3
v 0.1 2.1 -0.4
v 0.2 2.1 -0.4
v 0.3 2.1 -0.4
v 0.1 2.3 0
v 0.2 2.3 0
v 0.3 2.3 0
v 0 2.3 -0.1
v 0.1 2.3 -0.1
v 0.2 2.3 -0.1
v 0.3 2.3 -0.1
v 0.4 2.3 -0.1
v 0 2.3 -0.2
v 0.1 2.3 -0.2
v 0.3 2.3 -0.2
v 0.4 2.3 -0.2
v 0 2.3 -0.3
v 0.1 2.3 -0.3
v 0.2 2.3 -0.3
v 0.3 2.3 -0.3
v 0.4 2.3 -0.3
v 0.1 2.3 -0.4
v 0.2 2.3 -0.4
v 0.3 2.3 -0.4
v 0.1 2.4 -0.1
v 0.2 2.4 -0.1
v 0.3 2.4 -0.1
v 0.1 2.4 -0.2
v 0.2 2.4 -0.2
v 0.3 2.4 -0.2
v 0.1 2.4 -0.3
v 0.2 2.4 -0.3
v 0.3 2.4 -0.3

# faces
f 4/2/1 2/2/1 1/2/1
f 5/1/1 3/1/1 2/1/1
f 5/2/1 2/2/1 4/2/1
f 6/1/1 3/1/1 5/1/1
f 7/1/1 5/1/1 4/1/1
f 8/3/1 6/3/1 5/3/1
f 8/1/1 5/1/1 7/1/1
f 9/3/1 6/3/1 8/3/1
f 14/1/1 11/1/1 10/1/1
f 15/2/1 12/2/1 11/2/1
f 15/1/1 11/1/1 14/1/1
f 16/2/1 12/2/1 15/2/1
f 18/2/1 14/2/1 13/2/1
f 19/2/1 14/2/1 18/2/1
f 20/3/1 17/3/1 16/3/1
f 21/3/1 17/3/1 20/3/1
f 22/1/1 19/1/1 18/1/1
f 23/1/1 19/1/1 22/1/1
f 25/1/1 21/1/1 20/1/1
f 26/1/1 21/1/1 25/1/1
f 27/2/1 24/2/1 23/2/1
f 28/1/1 25/1/1 24/1/1
f 28/2/1 24/2/1 27/2/1
f 29/1/1 25/1/1 28/1/1
f 30/3/2 31/3/2 34/3/2
f 31/1/2 32/1/2 35/1/2
f 34/3/2 31/3/2 35/3/2
f 35/1/2 32/1/2 36/1/2
f 33/1/2 34/1/2 38/1/2
f 38/1/2 34/1/2 39/1/2
f 36/1/2 37/1/2 40/1/2
f 40/1/2 37/1/2 41/1/2
f 38/3/2 39/3/2 42/3/2
f 42/3/2 39/3/2 43/3/2
f 40/2/2 41/2/2 45/2/2
f 45/2/2 41/2/2 46/2/2
f 43/1/2 44/1/2 47/1/2
f 44/3/2 45/3/2 48/3/2
f 47/1/2 44/1/2 48/1/2
f 48/3/2 45/3/2 49/3/2
f 50/2/2 51/2/2 53/2/2
f 51/1/2 52/1/2 54/1/2
f 53/2/2 51/2/2 54/2/2
f 54/1/2 52/1/2 55/1/2
f 53/1/2 54/1/2 56/1/2
f 54/3/2 55/3/2 57/3/2
f 56/1/2 54/1/2 57/1/2
f 57/3/2 55/3/2 58/3/2
f 62/2/3 60/2/3 59/2/3
f 63/1/3 61/1/3 60/1/3
f 63/2/3 60/2/3 62/2/3
f 64/1/3 61/1/3 63/1/3
f 65/1/3 63/1/3 62/1/3
f 66/3/3 64/3/3 63/3/3
f 66/1/3 63/1/3 65/1/3
f 67/3/3 64/3/3 66/3/3
f 72/2/3 69/2/3 68/2/3
f 73/1/3 70/1/3 69/1/3
f 73/2/3 69/2/3 72/2/3
f 74/1/3 70/1/3 73/1/3
f 76/1/3 72/1/3 71/1/3
f 77/1/3 72/1/3 76/1/3
f 78/2/3 75/2/3 74/2/3
f 79/2/3 75/2/3 78/2/3
f 80/3/3 77/3/3 76/3/3
f 81/3/3 77/3/3 80/3/3
f 83/1/3 79/1/3 78/1/3
f 84/1/3 79/1/3 83/1/3
f 85/2/3 82/2/3 81/2/3
f 86/1/3 83/1/3 82/1/3
f 86/2/3 82/2/3 85/2/3
f 87/1/3 83/1/3 86/1/3
f 88/1/4 89/1/4 92/1/4
f 89/3/4 90/3/4 93/3/4
f 92/1/4 89/1/4 93/1/4
f 93/3/4 90/3/4 94/3/4
f 91/2/4 92/2/4 96/2/4
f 96/2/4 92/2/4 97/2/4
f 94/1/4 95/1/4 98/1/4
f 98/1/4 95/1/4 99/1/4
f 96/1/4 97/1/4 100/1/4
f 100/1/4 97/1/4 101/1/4
f 98/3/4 99/3/4 103/3/4
f 103/3/4 99/3/4 104/3/4
f 101/1/4 102/1/4 105/1/4
f 102/3/4 103/3/4 106/3/4
f 105/1/4 102/1/4 106/1/4
f 106/3/4 103/3/4 107/3/4
f 108/3/4 109/3/4 111/3/4
f 109/1/4 110/1/4 112/1/4
f 111/3/4 109/3/4 112/3/4
f 112/1/4 110/1/4 113/1/4
f 111/1/4 112/1/4 114/1/4
f 112/2/4 113/2/4 115/2/4
f 114/1/4 112/1/4 115/1/4
f 115/2/4 113/2/4 116/2/4
f 120/1/5 118/1/5 117/1/5
f 121/3/5 119/3/5 118/3/5
f 121/1/5 118/1/5 120/1/5
f 122/3/5 119/3/5 121/3/5
f 123/2/5 121/2/5 120/2/5
f 124/1/5 122/1/5 121/1/5
f 124/2/5 121/2/5 123/2/5
f 125/1/5 122/1/5 124/1/5
f 130/2/5 127/2/5 126/2/5
f 131/1/5 128/1/5 127/1/5
f 131/2/5 127/2/5 130/2/5
f 132/1/5 128/1/5 131/1/5
f 134/2/5 130/2/5 129/2/5
f 135/2/5 130/2/5 134/2/5
f 136/2/5 133/2/5 132/2/5
f 137/2/5 133/2/5 136/2/5
f 138/1/5 135/1/5 134/1/5
f 139/1/5 135/1/5 138/1/5
f 141/1/5 137/1/5 136/1/5
f 142/1/5 137/1/5 141/1/5
f 143/3/5 140/3/5 139/3/5
f 144/1/5 141/1/5 140/1/5
f 144/3/5 140/3/5 143/3/5
f 145/1/5 141/1/5 144/1/5
f 146/1/6 147/1/6 150/1/6
f 147/3/6 148/3/6 151/3/6
f 150/1/6 147/1/6 151/1/6
f 151/3/6 148/3/6 152/3/6
f 149/1/6 150/1/6 154/1/6
f 154/1/6 150/1/6 155/1/6
f 152/1/6 153/1/6 156/1/6
f 156/1/6 153/1/6 157/1/6
f 154/3/6 155/3/6 158/3/6
f 158/3/6 155/3/6 159/3/6
f 156/3/6 157/3/6 161/3/6
f 161/3/6 157/3/6 162/3/6
f 159/1/6 160/1/6 163/1/6
f 160/2/6 161/2/6 164/2/6
f 163/1/6 160/1/6 164/1/6
f 164/2/6 161/2/6 165/2/6
f 166/2/6 167/2/6 169/2/6
f 167/1/6 168/1/6 170/1/6
f 169/2/6 167/2/6 170/2/6
f 170/1/6 168/1/6 171/1/6
f 169/1/6 170/1/6 172/1/6
f 170/3/6 171/3/6 173/3/6
f 172/1/6 170/1/6 173/1/6
f 173/3/6 171/3/6 174/3/6
