# MagicaVoxel @ Ephtracy

# group
o 

# material
mtllib SmolSlime.mtl
usemtl palette

# normals
vn -1 0 0
vn 1 0 0
vn 0 0 1
vn 0 0 -1
vn 0 -1 0
vn 0 1 0

# texcoords
vt 0.580078 0.5
vt 0.583984 0.5

# verts
v 0 2 -0.2
v 0 2 -0.3
v 0 2 -0.4
v 0 2 -0.5
v 0 2 -0.6
v 0 2 -0.7
v 0 2.1 -0.2
v 0 2.1 -0.3
v 0 2.1 -0.4
v 0 2.1 -0.5
v 0 2.1 -0.6
v 0 2.1 -0.7
v 0.1 2 0
v 0.1 2 -0.2
v 0.1 2 -0.3
v 0.1 2 -0.4
v 0.1 2 -0.5
v 0.1 2 -0.6
v 0.1 2 -0.7
v 0.1 2 -1.1
v 0.1 2.1 0
v 0.1 2.1 -0.2
v 0.1 2.1 -0.3
v 0.1 2.1 -0.4
v 0.1 2.1 -0.5
v 0.1 2.1 -0.6
v 0.1 2.1 -0.7
v 0.1 2.1 -1.1
v 0.1 2.2 -0.2
v 0.1 2.2 -0.3
v 0.1 2.2 -0.4
v 0.1 2.2 -0.5
v 0.2 2.1 -0.3
v 0.2 2.1 -0.4
v 0.2 2.1 -0.5
v 0.2 2.1 -0.6
v 0.2 2.1 -0.8
v 0.2 2.1 -0.9
v 0.2 2.1 -1
v 0.2 2.2 -0.2
v 0.2 2.2 -0.3
v 0.2 2.2 -0.4
v 0.2 2.2 -0.5
v 0.2 2.2 -0.6
v 0.2 2.2 -0.8
v 0.2 2.2 -0.9
v 0.2 2.2 -1
v 0.2 2.6 -0.2
v 0.2 2.6 -0.3
v 0.2 2.7 -0.2
v 0.2 2.7 -0.3
v 0.2 2.7 -0.4
v 0.2 2.7 -0.8
v 0.2 2.7 -0.9
v 0.2 2.8 -0.3
v 0.2 2.8 -0.4
v 0.2 2.8 -0.8
v 0.3 2 0
v 0.3 2 -0.1
v 0.3 2 -1
v 0.3 2 -1.1
v 0.3 2.1 0
v 0.3 2.1 -0.1
v 0.3 2.1 -0.2
v 0.3 2.1 -1
v 0.3 2.1 -1.1
v 0.3 2.2 -0.1
v 0.3 2.2 -0.2
v 0.3 2.7 -0.2
v 0.3 2.7 -0.3
v 0.3 2.7 -0.8
v 0.3 2.7 -0.9
v 0.3 2.8 -0.2
v 0.3 2.8 -0.3
v 0.3 2.8 -0.8
v 0.3 2.8 -0.9
v 0.8 2.1 -0.9
v 0.8 2.1 -1
v 0.8 2.3 -0.9
v 0.8 2.3 -1
v 0.9 2 0
v 0.9 2 -0.1
v 0.9 2 -1
v 0.9 2 -1.1
v 0.9 2.1 0
v 0.9 2.1 -0.1
v 0.9 2.1 -0.2
v 0.9 2.1 -1
v 0.9 2.1 -1.1
v 0.9 2.2 -0.1
v 0.9 2.2 -0.2
v 0.2 2 0
v 0.2 2 -0.1
v 0.2 2 -1
v 0.2 2 -1.1
v 0.2 2.1 0
v 0.2 2.1 -0.1
v 0.2 2.1 -1
v 0.2 2.1 -1.1
v 0.4 2 -1
v 0.4 2 -1.1
v 0.4 2.1 -0.9
v 0.4 2.1 -1
v 0.4 2.1 -1.1
v 0.4 2.2 -0.9
v 0.4 2.2 -1
v 0.5 2 0
v 0.5 2 -0.1
v 0.5 2.1 0
v 0.5 2.1 -0.1
v 0.5 2.1 -0.2
v 0.5 2.2 -0.1
v 0.5 2.2 -0.2
v 0.8 2.7 -0.2
v 0.8 2.7 -0.3
v 0.8 2.7 -0.8
v 0.8 2.7 -0.9
v 0.8 2.8 -0.2
v 0.8 2.8 -0.3
v 0.8 2.8 -0.8
v 0.8 2.8 -0.9
v 0.9 2.1 -0.3
v 0.9 2.1 -0.8
v 0.9 2.2 -0.2
v 0.9 2.2 -0.3
v 0.9 2.2 -0.4
v 0.9 2.2 -0.6
v 0.9 2.2 -0.8
v 0.9 2.2 -0.9
v 0.9 2.2 -1
v 0.9 2.3 -0.3
v 0.9 2.3 -0.4
v 0.9 2.3 -0.6
v 0.9 2.3 -0.9
v 0.9 2.3 -1
v 0.9 2.7 -0.2
v 0.9 2.7 -0.3
v 0.9 2.7 -0.4
v 0.9 2.7 -0.8
v 0.9 2.7 -0.9
v 0.9 2.8 -0.3
v 0.9 2.8 -0.8
v 1 2 0
v 1 2 -0.1
v 1 2 -0.3
v 1 2 -0.8
v 1 2.1 0
v 1 2.1 -0.1
v 1 2.1 -0.3
v 1 2.1 -0.8
v 1 2.1 -1
v 1 2.2 -0.1
v 1 2.2 -0.3
v 1 2.2 -0.8
v 1 2.2 -1
v 1.1 2 -0.1
v 1.1 2 -0.3
v 1.1 2 -0.8
v 1.1 2 -1.1
v 1.1 2.1 -0.1
v 1.1 2.1 -0.3
v 1.1 2.1 -0.8
v 1.1 2.1 -1.1
v 0.1 2 0
v 0.1 2.1 0
v 0.2 2 0
v 0.2 2.1 0
v 0.3 2 0
v 0.3 2.1 0
v 0.5 2 0
v 0.5 2.1 0
v 0.9 2 0
v 0.9 2.1 0
v 1 2 0
v 1 2.1 0
v 0.2 2 -0.1
v 0.2 2.1 -0.1
v 0.3 2 -0.1
v 0.3 2.1 -0.1
v 0.3 2.2 -0.1
v 0.5 2 -0.1
v 0.5 2.1 -0.1
v 0.5 2.2 -0.1
v 0.9 2 -0.1
v 0.9 2.1 -0.1
v 0.9 2.2 -0.1
v 1 2 -0.1
v 1 2.1 -0.1
v 1 2.2 -0.1
v 1.1 2 -0.1
v 1.1 2.1 -0.1
v 0 2 -0.2
v 0 2.1 -0.2
v 0.1 2 -0.2
v 0.1 2.1 -0.2
v 0.1 2.2 -0.2
v 0.2 2.1 -0.2
v 0.2 2.2 -0.2
v 0.2 2.6 -0.2
v 0.2 2.7 -0.2
v 0.3 2.1 -0.2
v 0.3 2.2 -0.2
v 0.3 2.3 -0.2
v 0.3 2.6 -0.2
v 0.3 2.7 -0.2
v 0.3 2.8 -0.2
v 0.4 2.2 -0.2
v 0.4 2.3 -0.2
v 0.4 2.7 -0.2
v 0.5 2.1 -0.2
v 0.5 2.2 -0.2
v 0.6 2.2 -0.2
v 0.6 2.3 -0.2
v 0.8 2.7 -0.2
v 0.8 2.8 -0.2
v 0.9 2.1 -0.2
v 0.9 2.2 -0.2
v 0.9 2.7 -0.2
v 0.2 2.7 -0.3
v 0.2 2.8 -0.3
v 0.3 2.7 -0.3
v 0.3 2.8 -0.3
v 0.8 2.7 -0.3
v 0.8 2.8 -0.3
v 0.9 2.7 -0.3
v 0.9 2.8 -0.3
v 0 2 -0.4
v 0 2.1 -0.4
v 0.1 2 -0.4
v 0.1 2.1 -0.4
v 0.1 2.2 -0.4
v 0.2 2.1 -0.4
v 0.2 2.2 -0.4
v 0 2 -0.6
v 0 2.1 -0.6
v 0.1 2 -0.6
v 0.1 2.1 -0.6
v 0.9 2.1 -0.8
v 0.9 2.2 -0.8
v 1 2 -0.8
v 1 2.1 -0.8
v 1 2.2 -0.8
v 1.1 2 -0.8
v 1.1 2.1 -0.8
v 0 2 -0.3
v 0 2.1 -0.3
v 0.1 2 -0.3
v 0.1 2.1 -0.3
v 0.1 2.2 -0.3
v 0.2 2.1 -0.3
v 0.2 2.2 -0.3
v 0.9 2.1 -0.3
v 0.9 2.2 -0.3
v 1 2 -0.3
v 1 2.1 -0.3
v 1 2.2 -0.3
v 1.1 2 -0.3
v 1.1 2.1 -0.3
v 0 2 -0.5
v 0 2.1 -0.5
v 0.1 2 -0.5
v 0.1 2.1 -0.5
v 0.1 2.2 -0.5
v 0.2 2.1 -0.5
v 0.2 2.2 -0.5
v 0 2 -0.7
v 0 2.1 -0.7
v 0.1 2 -0.7
v 0.1 2.1 -0.7
v 0.2 2.7 -0.8
v 0.2 2.8 -0.8
v 0.3 2.7 -0.8
v 0.3 2.8 -0.8
v 0.8 2.7 -0.8
v 0.8 2.8 -0.8
v 0.9 2.7 -0.8
v 0.9 2.8 -0.8
v 0.2 2.2 -0.9
v 0.2 2.7 -0.9
v 0.3 2.2 -0.9
v 0.3 2.7 -0.9
v 0.3 2.8 -0.9
v 0.4 2.1 -0.9
v 0.4 2.2 -0.9
v 0.5 2.2 -0.9
v 0.5 2.3 -0.9
v 0.7 2.2 -0.9
v 0.7 2.3 -0.9
v 0.7 2.7 -0.9
v 0.8 2.1 -0.9
v 0.8 2.3 -0.9
v 0.8 2.7 -0.9
v 0.8 2.8 -0.9
v 0.9 2.3 -0.9
v 0.9 2.7 -0.9
v 0.2 2 -1
v 0.2 2.1 -1
v 0.2 2.2 -1
v 0.3 2 -1
v 0.3 2.1 -1
v 0.4 2 -1
v 0.4 2.1 -1
v 0.4 2.2 -1
v 0.8 2.1 -1
v 0.8 2.3 -1
v 0.9 2 -1
v 0.9 2.1 -1
v 0.9 2.2 -1
v 0.9 2.3 -1
v 1 2.1 -1
v 1 2.2 -1
v 0.1 2 -1.1
v 0.1 2.1 -1.1
v 0.2 2 -1.1
v 0.2 2.1 -1.1
v 0.3 2 -1.1
v 0.3 2.1 -1.1
v 0.4 2 -1.1
v 0.4 2.1 -1.1
v 0.9 2 -1.1
v 0.9 2.1 -1.1
v 1.1 2 -1.1
v 1.1 2.1 -1.1
v 0.1 2 0
v 0.2 2 0
v 0.3 2 0
v 0.5 2 0
v 0.9 2 0
v 1 2 0
v 0.2 2 -0.1
v 0.3 2 -0.1
v 0.5 2 -0.1
v 0.9 2 -0.1
v 1 2 -0.1
v 1.1 2 -0.1
v 0 2 -0.2
v 0.1 2 -0.2
v 0.2 2 -0.2
v 0.9 2 -0.2
v 0 2 -0.3
v 0.1 2 -0.3
v 1 2 -0.3
v 1.1 2 -0.3
v 0 2 -0.4
v 0.1 2 -0.4
v 0 2 -0.5
v 0.1 2 -0.5
v 0 2 -0.6
v 0.1 2 -0.6
v 0 2 -0.7
v 0.1 2 -0.7
v 1 2 -0.8
v 1.1 2 -0.8
v 0.2 2 -0.9
v 0.9 2 -0.9
v 0.2 2 -1
v 0.3 2 -1
v 0.4 2 -1
v 0.9 2 -1
v 0.1 2 -1.1
v 0.2 2 -1.1
v 0.3 2 -1.1
v 0.4 2 -1.1
v 0.9 2 -1.1
v 1.1 2 -1.1
v 0.1 2.1 0
v 0.2 2.1 0
v 0.3 2.1 0
v 0.5 2.1 0
v 0.9 2.1 0
v 1 2.1 0
v 0.2 2.1 -0.1
v 0.3 2.1 -0.1
v 0.5 2.1 -0.1
v 0.9 2.1 -0.1
v 1 2.1 -0.1
v 1.1 2.1 -0.1
v 0 2.1 -0.2
v 0.1 2.1 -0.2
v 0.2 2.1 -0.2
v 0.3 2.1 -0.2
v 0.5 2.1 -0.2
v 0.9 2.1 -0.2
v 0 2.1 -0.3
v 0.1 2.1 -0.3
v 0.2 2.1 -0.3
v 0.9 2.1 -0.3
v 1 2.1 -0.3
v 1.1 2.1 -0.3
v 0 2.1 -0.4
v 0.1 2.1 -0.4
v 0.2 2.1 -0.4
v 0 2.1 -0.5
v 0.1 2.1 -0.5
v 0.2 2.1 -0.5
v 0 2.1 -0.6
v 0.1 2.1 -0.6
v 0.2 2.1 -0.6
v 0 2.1 -0.7
v 0.1 2.1 -0.7
v 0.2 2.1 -0.8
v 0.9 2.1 -0.8
v 1 2.1 -0.8
v 1.1 2.1 -0.8
v 0.2 2.1 -0.9
v 0.4 2.1 -0.9
v 0.8 2.1 -0.9
v 0.2 2.1 -1
v 0.3 2.1 -1
v 0.4 2.1 -1
v 0.8 2.1 -1
v 0.9 2.1 -1
v 1 2.1 -1
v 0.1 2.1 -1.1
v 0.2 2.1 -1.1
v 0.3 2.1 -1.1
v 0.4 2.1 -1.1
v 0.9 2.1 -1.1
v 1.1 2.1 -1.1
v 0.3 2.2 -0.1
v 0.5 2.2 -0.1
v 0.9 2.2 -0.1
v 1 2.2 -0.1
v 0.1 2.2 -0.2
v 0.2 2.2 -0.2
v 0.3 2.2 -0.2
v 0.4 2.2 -0.2
v 0.5 2.2 -0.2
v 0.9 2.2 -0.2
v 0.1 2.2 -0.3
v 0.2 2.2 -0.3
v 0.9 2.2 -0.3
v 1 2.2 -0.3
v 0.1 2.2 -0.4
v 0.2 2.2 -0.4
v 0.1 2.2 -0.5
v 0.2 2.2 -0.5
v 0.9 2.2 -0.8
v 1 2.2 -0.8
v 0.2 2.2 -0.9
v 0.3 2.2 -0.9
v 0.4 2.2 -0.9
v 0.9 2.2 -0.9
v 0.2 2.2 -1
v 0.4 2.2 -1
v 0.9 2.2 -1
v 1 2.2 -1
v 0.8 2.3 -0.9
v 0.9 2.3 -0.9
v 0.8 2.3 -1
v 0.9 2.3 -1
v 0.2 2.7 -0.2
v 0.3 2.7 -0.2
v 0.8 2.7 -0.2
v 0.9 2.7 -0.2
v 0.2 2.7 -0.3
v 0.3 2.7 -0.3
v 0.8 2.7 -0.3
v 0.9 2.7 -0.3
v 0.2 2.7 -0.8
v 0.3 2.7 -0.8
v 0.8 2.7 -0.8
v 0.9 2.7 -0.8
v 0.2 2.7 -0.9
v 0.3 2.7 -0.9
v 0.8 2.7 -0.9
v 0.9 2.7 -0.9
v 0.3 2.8 -0.2
v 0.8 2.8 -0.2
v 0.2 2.8 -0.3
v 0.3 2.8 -0.3
v 0.8 2.8 -0.3
v 0.9 2.8 -0.3
v 0.2 2.8 -0.4
v 0.3 2.8 -0.4
v 0.3 2.8 -0.5
v 0.4 2.8 -0.5
v 0.3 2.8 -0.7
v 0.4 2.8 -0.7
v 0.8 2.8 -0.7
v 0.2 2.8 -0.8
v 0.3 2.8 -0.8
v 0.4 2.8 -0.8
v 0.8 2.8 -0.8
v 0.9 2.8 -0.8
v 0.3 2.8 -0.9
v 0.8 2.8 -0.9

# faces
f 7/1/1 2/1/1 1/1/1
f 8/1/1 2/1/1 7/1/1
f 9/1/1 4/1/1 3/1/1
f 10/1/1 4/1/1 9/1/1
f 11/1/1 6/1/1 5/1/1
f 12/1/1 6/1/1 11/1/1
f 21/1/1 14/1/1 13/1/1
f 22/1/1 14/1/1 21/1/1
f 23/1/1 16/1/1 15/1/1
f 24/1/1 16/1/1 23/1/1
f 25/1/1 18/1/1 17/1/1
f 26/1/1 18/1/1 25/1/1
f 27/1/1 20/1/1 19/1/1
f 28/1/1 20/1/1 27/1/1
f 29/1/1 23/1/1 22/1/1
f 30/1/1 23/1/1 29/1/1
f 31/1/1 25/1/1 24/1/1
f 32/1/1 25/1/1 31/1/1
f 41/2/1 34/2/1 33/2/1
f 42/2/1 34/2/1 41/2/1
f 43/2/1 36/2/1 35/2/1
f 44/1/1 37/1/1 36/1/1
f 44/2/1 36/2/1 43/2/1
f 45/2/1 38/2/1 37/2/1
f 45/1/1 37/1/1 44/1/1
f 46/1/1 39/1/1 38/1/1
f 46/2/1 38/2/1 45/2/1
f 47/1/1 39/1/1 46/1/1
f 48/2/1 45/2/1 44/2/1
f 48/2/1 42/2/1 41/2/1
f 48/2/1 43/2/1 42/2/1
f 48/2/1 44/2/1 43/2/1
f 48/2/1 41/2/1 40/2/1
f 49/2/1 45/2/1 48/2/1
f 50/1/1 49/1/1 48/1/1
f 51/2/1 45/2/1 49/2/1
f 51/1/1 49/1/1 50/1/1
f 52/2/1 45/2/1 51/2/1
f 53/1/1 46/1/1 45/1/1
f 53/2/1 45/2/1 52/2/1
f 54/1/1 46/1/1 53/1/1
f 55/1/1 52/1/1 51/1/1
f 56/2/1 53/2/1 52/2/1
f 56/1/1 52/1/1 55/1/1
f 57/2/1 53/2/1 56/2/1
f 62/1/1 59/1/1 58/1/1
f 63/1/1 59/1/1 62/1/1
f 65/1/1 61/1/1 60/1/1
f 66/1/1 61/1/1 65/1/1
f 67/1/1 64/1/1 63/1/1
f 68/1/1 64/1/1 67/1/1
f 73/2/1 70/2/1 69/2/1
f 74/2/1 70/2/1 73/2/1
f 75/2/1 72/2/1 71/2/1
f 76/2/1 72/2/1 75/2/1
f 79/1/1 78/1/1 77/1/1
f 80/1/1 78/1/1 79/1/1
f 85/1/1 82/1/1 81/1/1
f 86/1/1 82/1/1 85/1/1
f 88/1/1 84/1/1 83/1/1
f 89/1/1 84/1/1 88/1/1
f 90/1/1 87/1/1 86/1/1
f 91/1/1 87/1/1 90/1/1
f 92/1/2 93/1/2 96/1/2
f 96/1/2 93/1/2 97/1/2
f 94/1/2 95/1/2 98/1/2
f 98/1/2 95/1/2 99/1/2
f 100/1/2 101/1/2 103/1/2
f 103/1/2 101/1/2 104/1/2
f 102/1/2 103/1/2 105/1/2
f 105/1/2 103/1/2 106/1/2
f 107/1/2 108/1/2 109/1/2
f 109/1/2 108/1/2 110/1/2
f 110/1/2 111/1/2 112/1/2
f 112/1/2 111/1/2 113/1/2
f 114/2/2 115/2/2 118/2/2
f 118/2/2 115/2/2 119/2/2
f 116/2/2 117/2/2 120/2/2
f 120/2/2 117/2/2 121/2/2
f 122/2/2 123/2/2 125/2/2
f 125/2/2 123/2/2 126/2/2
f 126/2/2 123/2/2 127/2/2
f 127/2/2 123/2/2 128/2/2
f 124/2/2 125/2/2 131/2/2
f 125/2/2 126/2/2 131/2/2
f 126/1/2 127/1/2 132/1/2
f 131/2/2 126/2/2 132/2/2
f 128/2/2 129/2/2 133/2/2
f 132/1/2 127/1/2 133/1/2
f 127/2/2 128/2/2 133/2/2
f 129/1/2 130/1/2 134/1/2
f 133/2/2 129/2/2 134/2/2
f 134/1/2 130/1/2 135/1/2
f 124/2/2 131/2/2 136/2/2
f 131/1/2 132/1/2 137/1/2
f 136/2/2 131/2/2 137/2/2
f 132/2/2 133/2/2 138/2/2
f 137/1/2 132/1/2 138/1/2
f 133/2/2 134/2/2 138/2/2
f 138/2/2 134/2/2 139/2/2
f 139/2/2 134/2/2 140/2/2
f 137/2/2 138/2/2 141/2/2
f 138/2/2 139/2/2 141/2/2
f 141/2/2 139/2/2 142/2/2
f 143/1/2 144/1/2 147/1/2
f 147/1/2 144/1/2 148/1/2
f 145/1/2 146/1/2 149/1/2
f 149/1/2 146/1/2 150/1/2
f 148/1/2 149/1/2 152/1/2
f 152/1/2 149/1/2 153/1/2
f 150/1/2 151/1/2 154/1/2
f 154/1/2 151/1/2 155/1/2
f 156/1/2 157/1/2 160/1/2
f 160/1/2 157/1/2 161/1/2
f 158/1/2 159/1/2 162/1/2
f 162/1/2 159/1/2 163/1/2
f 166/1/3 165/1/3 164/1/3
f 167/1/3 165/1/3 166/1/3
f 170/1/3 169/1/3 168/1/3
f 171/1/3 169/1/3 170/1/3
f 174/1/3 173/1/3 172/1/3
f 175/1/3 173/1/3 174/1/3
f 178/1/3 177/1/3 176/1/3
f 179/1/3 177/1/3 178/1/3
f 182/1/3 180/1/3 179/1/3
f 183/1/3 180/1/3 182/1/3
f 184/1/3 182/1/3 181/1/3
f 185/1/3 182/1/3 184/1/3
f 188/1/3 186/1/3 185/1/3
f 189/1/3 186/1/3 188/1/3
f 190/1/3 188/1/3 187/1/3
f 191/1/3 188/1/3 190/1/3
f 194/1/3 193/1/3 192/1/3
f 195/1/3 193/1/3 194/1/3
f 197/1/3 196/1/3 195/1/3
f 198/1/3 196/1/3 197/1/3
f 201/2/3 198/2/3 197/2/3
f 201/2/3 199/2/3 198/2/3
f 202/2/3 199/2/3 201/2/3
f 203/2/3 199/2/3 202/2/3
f 204/1/3 200/1/3 199/1/3
f 204/2/3 199/2/3 203/2/3
f 205/1/3 200/1/3 204/1/3
f 207/2/3 203/2/3 202/2/3
f 208/1/3 205/1/3 204/1/3
f 208/2/3 203/2/3 207/2/3
f 208/1/3 204/1/3 203/1/3
f 209/2/3 206/2/3 205/2/3
f 209/1/3 205/1/3 208/1/3
f 211/1/3 208/1/3 207/1/3
f 212/1/3 208/1/3 211/1/3
f 212/2/3 211/2/3 210/2/3
f 213/2/3 209/2/3 208/2/3
f 213/1/3 208/1/3 212/1/3
f 214/2/3 206/2/3 209/2/3
f 214/2/3 209/2/3 213/2/3
f 214/2/3 213/2/3 212/2/3
f 215/2/3 206/2/3 214/2/3
f 216/2/3 212/2/3 210/2/3
f 216/2/3 214/2/3 212/2/3
f 217/2/3 214/2/3 216/2/3
f 218/2/3 214/2/3 217/2/3
f 221/1/3 220/1/3 219/1/3
f 222/1/3 220/1/3 221/1/3
f 225/2/3 224/2/3 223/2/3
f 226/2/3 224/2/3 225/2/3
f 229/1/3 228/1/3 227/1/3
f 230/1/3 228/1/3 229/1/3
f 232/1/3 231/1/3 230/1/3
f 233/1/3 231/1/3 232/1/3
f 236/1/3 235/1/3 234/1/3
f 237/1/3 235/1/3 236/1/3
f 241/1/3 239/1/3 238/1/3
f 242/1/3 239/1/3 241/1/3
f 243/1/3 241/1/3 240/1/3
f 244/1/3 241/1/3 243/1/3
f 245/1/4 246/1/4 247/1/4
f 247/1/4 246/1/4 248/1/4
f 248/1/4 249/1/4 250/1/4
f 250/1/4 249/1/4 251/1/4
f 252/1/4 253/1/4 255/1/4
f 255/1/4 253/1/4 256/1/4
f 254/1/4 255/1/4 257/1/4
f 257/1/4 255/1/4 258/1/4
f 259/1/4 260/1/4 261/1/4
f 261/1/4 260/1/4 262/1/4
f 262/1/4 263/1/4 264/1/4
f 264/1/4 263/1/4 265/1/4
f 266/1/4 267/1/4 268/1/4
f 268/1/4 267/1/4 269/1/4
f 270/2/4 271/2/4 272/2/4
f 272/2/4 271/2/4 273/2/4
f 274/2/4 275/2/4 276/2/4
f 276/2/4 275/2/4 277/2/4
f 278/1/4 279/1/4 280/1/4
f 280/1/4 279/1/4 281/1/4
f 280/2/4 281/2/4 284/2/4
f 281/2/4 282/2/4 284/2/4
f 284/2/4 282/2/4 285/2/4
f 283/2/4 284/2/4 285/2/4
f 285/2/4 282/2/4 286/2/4
f 283/2/4 285/2/4 287/2/4
f 285/1/4 286/1/4 287/1/4
f 286/2/4 282/2/4 288/2/4
f 287/1/4 286/1/4 288/1/4
f 288/2/4 282/2/4 289/2/4
f 283/2/4 287/2/4 290/2/4
f 287/2/4 288/2/4 290/2/4
f 288/1/4 289/1/4 291/1/4
f 290/2/4 288/2/4 291/2/4
f 289/2/4 282/2/4 292/2/4
f 291/1/4 289/1/4 292/1/4
f 292/2/4 282/2/4 293/2/4
f 291/2/4 292/2/4 294/2/4
f 294/2/4 292/2/4 295/2/4
f 296/1/4 297/1/4 299/1/4
f 297/1/4 298/1/4 299/1/4
f 299/1/4 298/1/4 300/1/4
f 300/1/4 298/1/4 302/1/4
f 302/1/4 298/1/4 303/1/4
f 301/1/4 302/1/4 304/1/4
f 301/1/4 304/1/4 306/1/4
f 304/1/4 305/1/4 306/1/4
f 306/1/4 305/1/4 307/1/4
f 307/1/4 305/1/4 308/1/4
f 308/1/4 305/1/4 309/1/4
f 307/1/4 308/1/4 310/1/4
f 310/1/4 308/1/4 311/1/4
f 312/1/4 313/1/4 314/1/4
f 314/1/4 313/1/4 315/1/4
f 316/1/4 317/1/4 318/1/4
f 318/1/4 317/1/4 319/1/4
f 320/1/4 321/1/4 322/1/4
f 322/1/4 321/1/4 323/1/4
f 330/1/5 325/1/5 324/1/5
f 331/1/5 327/1/5 326/1/5
f 332/1/5 327/1/5 331/1/5
f 333/1/5 329/1/5 328/1/5
f 334/1/5 329/1/5 333/1/5
f 337/1/5 332/1/5 331/1/5
f 337/1/5 335/1/5 334/1/5
f 337/1/5 334/1/5 333/1/5
f 337/1/5 333/1/5 332/1/5
f 337/1/5 330/1/5 324/1/5
f 337/1/5 331/1/5 330/1/5
f 338/1/5 335/1/5 337/1/5
f 339/1/5 335/1/5 338/1/5
f 340/1/5 337/1/5 336/1/5
f 340/1/5 338/1/5 337/1/5
f 341/1/5 338/1/5 340/1/5
f 342/1/5 335/1/5 339/1/5
f 343/1/5 335/1/5 342/1/5
f 345/1/5 338/1/5 341/1/5
f 346/1/5 345/1/5 344/1/5
f 347/1/5 338/1/5 345/1/5
f 347/1/5 345/1/5 346/1/5
f 349/1/5 338/1/5 347/1/5
f 350/1/5 349/1/5 348/1/5
f 351/1/5 338/1/5 349/1/5
f 351/1/5 349/1/5 350/1/5
f 352/1/5 342/1/5 339/1/5
f 354/1/5 338/1/5 351/1/5
f 354/2/5 339/2/5 338/2/5
f 355/1/5 353/1/5 352/1/5
f 355/2/5 339/2/5 354/2/5
f 355/1/5 352/1/5 339/1/5
f 356/1/5 354/1/5 351/1/5
f 356/1/5 355/1/5 354/1/5
f 357/1/5 355/1/5 356/1/5
f 358/1/5 355/1/5 357/1/5
f 359/1/5 353/1/5 355/1/5
f 359/1/5 355/1/5 358/1/5
f 360/1/5 356/1/5 351/1/5
f 361/1/5 356/1/5 360/1/5
f 362/1/5 358/1/5 357/1/5
f 363/1/5 358/1/5 362/1/5
f 364/1/5 353/1/5 359/1/5
f 365/1/5 353/1/5 364/1/5
f 366/1/6 367/1/6 372/1/6
f 368/1/6 369/1/6 373/1/6
f 373/1/6 369/1/6 374/1/6
f 370/1/6 371/1/6 375/1/6
f 375/1/6 371/1/6 376/1/6
f 366/1/6 372/1/6 379/1/6
f 372/1/6 373/1/6 379/1/6
f 379/1/6 373/1/6 380/1/6
f 380/1/6 373/1/6 381/1/6
f 374/1/6 375/1/6 382/1/6
f 382/1/6 375/1/6 383/1/6
f 378/1/6 379/1/6 384/1/6
f 384/1/6 379/1/6 385/1/6
f 376/1/6 377/1/6 388/1/6
f 388/1/6 377/1/6 389/1/6
f 385/1/6 386/1/6 391/1/6
f 391/1/6 386/1/6 392/1/6
f 390/1/6 391/1/6 393/1/6
f 393/1/6 391/1/6 394/1/6
f 394/1/6 395/1/6 397/1/6
f 397/1/6 395/1/6 398/1/6
f 396/1/6 397/1/6 399/1/6
f 397/1/6 398/1/6 399/1/6
f 399/1/6 398/1/6 400/1/6
f 400/1/6 398/1/6 401/1/6
f 387/1/6 388/1/6 402/1/6
f 402/1/6 388/1/6 403/1/6
f 400/1/6 401/1/6 405/1/6
f 400/1/6 405/1/6 408/1/6
f 406/1/6 407/1/6 410/1/6
f 410/1/6 407/1/6 411/1/6
f 403/1/6 404/1/6 413/1/6
f 400/1/6 408/1/6 414/1/6
f 414/1/6 408/1/6 415/1/6
f 409/1/6 410/1/6 416/1/6
f 416/1/6 410/1/6 417/1/6
f 412/1/6 413/1/6 418/1/6
f 413/1/6 404/1/6 419/1/6
f 418/1/6 413/1/6 419/1/6
f 420/1/6 421/1/6 426/1/6
f 426/1/6 421/1/6 427/1/6
f 427/1/6 421/1/6 428/1/6
f 422/1/6 423/1/6 429/1/6
f 424/1/6 425/1/6 430/1/6
f 430/1/6 425/1/6 431/1/6
f 429/1/6 423/1/6 432/1/6
f 432/1/6 423/1/6 433/1/6
f 434/1/6 435/1/6 436/1/6
f 436/1/6 435/1/6 437/1/6
f 438/1/6 439/1/6 443/1/6
f 441/1/6 442/1/6 444/1/6
f 440/1/6 441/1/6 444/1/6
f 444/1/6 442/1/6 445/1/6
f 443/1/6 439/1/6 446/1/6
f 446/1/6 439/1/6 447/1/6
f 448/1/6 449/1/6 450/1/6
f 450/1/6 449/1/6 451/1/6
f 452/1/6 453/1/6 456/1/6
f 456/1/6 453/1/6 457/1/6
f 454/2/6 455/2/6 458/2/6
f 458/2/6 455/2/6 459/2/6
f 460/1/6 461/1/6 464/1/6
f 464/1/6 461/1/6 465/1/6
f 462/2/6 463/2/6 466/2/6
f 466/2/6 463/2/6 467/2/6
f 468/2/6 469/2/6 471/2/6
f 471/2/6 469/2/6 472/2/6
f 470/1/6 471/1/6 474/1/6
f 472/2/6 473/2/6 475/2/6
f 474/1/6 471/1/6 475/1/6
f 471/2/6 472/2/6 475/2/6
f 474/2/6 475/2/6 476/2/6
f 475/2/6 473/2/6 476/2/6
f 476/2/6 473/2/6 477/2/6
f 474/2/6 476/2/6 478/2/6
f 476/1/6 477/1/6 478/1/6
f 477/2/6 473/2/6 479/2/6
f 478/1/6 477/1/6 479/1/6
f 479/2/6 473/2/6 480/2/6
f 474/2/6 478/2/6 481/2/6
f 478/2/6 479/2/6 481/2/6
f 481/2/6 479/2/6 482/2/6
f 479/1/6 480/1/6 483/1/6
f 482/2/6 479/2/6 483/2/6
f 480/2/6 473/2/6 484/2/6
f 483/1/6 480/1/6 484/1/6
f 484/2/6 473/2/6 485/2/6
f 482/2/6 483/2/6 486/2/6
f 483/2/6 484/2/6 486/2/6
f 486/2/6 484/2/6 487/2/6
