# MagicaVoxel @ Ephtracy

# group
o 

# material
mtllib Bomb.mtl
usemtl palette

# normals
vn -1 0 0
vn 1 0 0
vn 0 0 1
vn 0 0 -1
vn 0 -1 0
vn 0 1 0

# texcoords
vt 0.224609 0.5
vt 0.974609 0.5
vt 0.982422 0.5

# verts
v -0.2 0.1 0.1
v -0.2 0.1 -0.2
v -0.2 0.4 0.1
v -0.2 0.4 -0.2
v -0.1 0 0.1
v -0.1 0 -0.2
v -0.1 0.1 0.2
v -0.1 0.1 0.1
v -0.1 0.1 -0.2
v -0.1 0.1 -0.3
v -0.1 0.4 0.2
v -0.1 0.4 0.1
v -0.1 0.4 -0.2
v -0.1 0.4 -0.3
v -0.1 0.5 0.1
v -0.1 0.5 -0.2
v -0.1 0.6 0
v -0.1 0.6 -0.1
v -0.1 0.7 0
v -0.1 0.7 -0.1
v 0 0.5 0
v 0 0.5 -0.1
v 0 0.6 0
v 0 0.6 -0.1
v 0 0.6 0
v 0 0.6 -0.1
v 0 0.7 0
v 0 0.7 -0.1
v 0.1 0.5 0
v 0.1 0.5 -0.1
v 0.1 0.6 0
v 0.1 0.6 -0.1
v 0.2 0 0.1
v 0.2 0 -0.2
v 0.2 0.1 0.2
v 0.2 0.1 0.1
v 0.2 0.1 -0.2
v 0.2 0.1 -0.3
v 0.2 0.4 0.2
v 0.2 0.4 0.1
v 0.2 0.4 -0.2
v 0.2 0.4 -0.3
v 0.2 0.5 0.1
v 0.2 0.5 -0.2
v 0.3 0.1 0.1
v 0.3 0.1 -0.2
v 0.3 0.4 0.1
v 0.3 0.4 -0.2
v -0.1 0.1 0.2
v -0.1 0.4 0.2
v 0.2 0.1 0.2
v 0.2 0.4 0.2
v -0.2 0.1 0.1
v -0.2 0.4 0.1
v -0.1 0 0.1
v -0.1 0.1 0.1
v -0.1 0.4 0.1
v -0.1 0.5 0.1
v 0.2 0 0.1
v 0.2 0.1 0.1
v 0.2 0.4 0.1
v 0.2 0.5 0.1
v 0.3 0.1 0.1
v 0.3 0.4 0.1
v -0.1 0.6 0
v -0.1 0.7 0
v 0 0.5 0
v 0 0.6 0
v 0 0.7 0
v 0.1 0.5 0
v 0.1 0.6 0
v -0.1 0.6 -0.1
v -0.1 0.7 -0.1
v 0 0.5 -0.1
v 0 0.6 -0.1
v 0 0.7 -0.1
v 0.1 0.5 -0.1
v 0.1 0.6 -0.1
v -0.2 0.1 -0.2
v -0.2 0.4 -0.2
v -0.1 0 -0.2
v -0.1 0.1 -0.2
v -0.1 0.4 -0.2
v -0.1 0.5 -0.2
v 0.2 0 -0.2
v 0.2 0.1 -0.2
v 0.2 0.4 -0.2
v 0.2 0.5 -0.2
v 0.3 0.1 -0.2
v 0.3 0.4 -0.2
v -0.1 0.1 -0.3
v -0.1 0.4 -0.3
v 0.2 0.1 -0.3
v 0.2 0.4 -0.3
v -0.1 0 0.1
v 0.2 0 0.1
v -0.1 0 -0.2
v 0.2 0 -0.2
v -0.1 0.1 0.2
v 0.2 0.1 0.2
v -0.2 0.1 0.1
v -0.1 0.1 0.1
v 0.2 0.1 0.1
v 0.3 0.1 0.1
v -0.2 0.1 -0.2
v -0.1 0.1 -0.2
v 0.2 0.1 -0.2
v 0.3 0.1 -0.2
v -0.1 0.1 -0.3
v 0.2 0.1 -0.3
v -0.1 0.6 0
v 0 0.6 0
v -0.1 0.6 -0.1
v 0 0.6 -0.1
v -0.1 0.4 0.2
v 0.2 0.4 0.2
v -0.2 0.4 0.1
v -0.1 0.4 0.1
v 0.2 0.4 0.1
v 0.3 0.4 0.1
v -0.2 0.4 -0.2
v -0.1 0.4 -0.2
v 0.2 0.4 -0.2
v 0.3 0.4 -0.2
v -0.1 0.4 -0.3
v 0.2 0.4 -0.3
v -0.1 0.5 0.1
v 0.2 0.5 0.1
v 0 0.5 0
v 0.1 0.5 0
v 0 0.5 -0.1
v 0.1 0.5 -0.1
v -0.1 0.5 -0.2
v 0.2 0.5 -0.2
v 0 0.6 0
v 0.1 0.6 0
v 0 0.6 -0.1
v 0.1 0.6 -0.1
v -0.1 0.7 0
v 0 0.7 0
v -0.1 0.7 -0.1
v 0 0.7 -0.1

# faces
f 3/3/1 2/3/1 1/3/1
f 4/3/1 2/3/1 3/3/1
f 8/3/1 6/3/1 5/3/1
f 9/3/1 6/3/1 8/3/1
f 11/3/1 8/3/1 7/3/1
f 12/3/1 8/3/1 11/3/1
f 13/3/1 10/3/1 9/3/1
f 14/3/1 10/3/1 13/3/1
f 15/3/1 13/3/1 12/3/1
f 16/3/1 13/3/1 15/3/1
f 19/1/1 18/1/1 17/1/1
f 20/1/1 18/1/1 19/1/1
f 23/2/1 22/2/1 21/2/1
f 24/2/1 22/2/1 23/2/1
f 25/1/2 26/1/2 27/1/2
f 27/1/2 26/1/2 28/1/2
f 29/2/2 30/2/2 31/2/2
f 31/2/2 30/2/2 32/2/2
f 33/3/2 34/3/2 36/3/2
f 36/3/2 34/3/2 37/3/2
f 35/3/2 36/3/2 39/3/2
f 39/3/2 36/3/2 40/3/2
f 37/3/2 38/3/2 41/3/2
f 41/3/2 38/3/2 42/3/2
f 40/3/2 41/3/2 43/3/2
f 43/3/2 41/3/2 44/3/2
f 45/3/2 46/3/2 47/3/2
f 47/3/2 46/3/2 48/3/2
f 51/3/3 50/3/3 49/3/3
f 52/3/3 50/3/3 51/3/3
f 56/3/3 54/3/3 53/3/3
f 57/3/3 54/3/3 56/3/3
f 59/3/3 56/3/3 55/3/3
f 60/3/3 56/3/3 59/3/3
f 61/3/3 58/3/3 57/3/3
f 62/3/3 58/3/3 61/3/3
f 63/3/3 61/3/3 60/3/3
f 64/3/3 61/3/3 63/3/3
f 68/1/3 66/1/3 65/1/3
f 69/1/3 66/1/3 68/1/3
f 70/2/3 68/2/3 67/2/3
f 71/2/3 68/2/3 70/2/3
f 72/1/4 73/1/4 75/1/4
f 75/1/4 73/1/4 76/1/4
f 74/2/4 75/2/4 77/2/4
f 77/2/4 75/2/4 78/2/4
f 79/3/4 80/3/4 82/3/4
f 82/3/4 80/3/4 83/3/4
f 81/3/4 82/3/4 85/3/4
f 85/3/4 82/3/4 86/3/4
f 83/3/4 84/3/4 87/3/4
f 87/3/4 84/3/4 88/3/4
f 86/3/4 87/3/4 89/3/4
f 89/3/4 87/3/4 90/3/4
f 91/3/4 92/3/4 93/3/4
f 93/3/4 92/3/4 94/3/4
f 97/3/5 96/3/5 95/3/5
f 98/3/5 96/3/5 97/3/5
f 102/3/5 100/3/5 99/3/5
f 103/3/5 100/3/5 102/3/5
f 105/3/5 102/3/5 101/3/5
f 106/3/5 102/3/5 105/3/5
f 107/3/5 104/3/5 103/3/5
f 108/3/5 104/3/5 107/3/5
f 109/3/5 107/3/5 106/3/5
f 110/3/5 107/3/5 109/3/5
f 113/1/5 112/1/5 111/1/5
f 114/1/5 112/1/5 113/1/5
f 115/3/6 116/3/6 118/3/6
f 118/3/6 116/3/6 119/3/6
f 117/3/6 118/3/6 121/3/6
f 121/3/6 118/3/6 122/3/6
f 119/3/6 120/3/6 123/3/6
f 123/3/6 120/3/6 124/3/6
f 122/3/6 123/3/6 125/3/6
f 125/3/6 123/3/6 126/3/6
f 127/3/6 128/3/6 129/3/6
f 129/3/6 128/3/6 130/3/6
f 127/3/6 129/3/6 131/3/6
f 130/3/6 128/3/6 132/3/6
f 127/3/6 131/3/6 133/3/6
f 131/3/6 132/3/6 133/3/6
f 132/3/6 128/3/6 134/3/6
f 133/3/6 132/3/6 134/3/6
f 135/2/6 136/2/6 137/2/6
f 137/2/6 136/2/6 138/2/6
f 139/1/6 140/1/6 141/1/6
f 141/1/6 140/1/6 142/1/6
