# MagicaVoxel @ Ephtracy

# group
o 

# material
mtllib emptyHandPlayer.mtl
usemtl palette

# normals
vn -1 0 0
vn 1 0 0
vn 0 0 1
vn 0 0 -1
vn 0 -1 0
vn 0 1 0

# texcoords
vt 0.0566406 0.5
vt 0.599609 0.5
vt 0.642578 0.5

# verts
v 0.5 2.5 -0.4
v 0.5 2.5 -0.6
v 0.5 2.5 -0.7
v 0.5 2.5 -0.9
v 0.5 2.7 -0.5
v 0.5 2.7 -0.6
v 0.5 2.7 -0.7
v 0.5 2.7 -0.8
v 0.5 2.8 -0.5
v 0.5 2.8 -0.8
v 0.5 2.9 -0.4
v 0.5 2.9 -0.5
v 0.5 2.9 -0.8
v 0.5 2.9 -0.9
v 0.5 3 -0.5
v 0.5 3 -0.8
v 0.6 2.3 -0.4
v 0.6 2.3 -0.9
v 0.6 2.5 -0.4
v 0.6 2.5 -0.6
v 0.6 2.5 -0.7
v 0.6 2.5 -0.9
v 0.6 2.7 -0.5
v 0.6 2.7 -0.6
v 0.6 2.7 -0.7
v 0.6 2.7 -0.8
v 0.6 2.8 -0.5
v 0.6 2.8 -0.8
v 0.6 3 -0.6
v 0.6 3 -0.7
v 0.6 3.1 -0.6
v 0.6 3.1 -0.7
v 0.7 2.1 -0.4
v 0.7 2.1 -0.5
v 0.7 2.1 -0.8
v 0.7 2.1 -0.9
v 0.7 2.3 -0.3
v 0.7 2.3 -0.4
v 0.7 2.3 -0.5
v 0.7 2.3 -0.8
v 0.7 2.3 -0.9
v 0.7 2.5 -0.3
v 0.7 2.5 -0.4
v 0.8 2.1 -0.4
v 0.8 2.1 -0.5
v 0.8 2.1 -0.8
v 0.8 2.1 -0.9
v 0.8 2.3 -0.3
v 0.8 2.3 -0.4
v 0.8 2.3 -0.5
v 0.8 2.3 -0.8
v 0.8 2.3 -0.9
v 0.8 2.5 -0.3
v 0.8 2.5 -0.4
v 0.9 2.3 -0.4
v 0.9 2.3 -0.9
v 0.9 2.5 -0.4
v 0.9 2.5 -0.9
v 1 2.5 -0.4
v 1 2.5 -0.9
v 1 2.6 -0.5
v 1 2.6 -0.8
v 1 2.9 -0.4
v 1 2.9 -0.5
v 1 2.9 -0.8
v 1 2.9 -0.9
v 1.1 2.6 -0.5
v 1.1 2.6 -0.6
v 1.1 2.6 -0.7
v 1.1 2.6 -0.8
v 1.1 3 -0.5
v 1.1 3 -0.6
v 1.1 3 -0.7
v 1.1 3 -0.8
v 1.2 2.6 -0.6
v 1.2 2.6 -0.7
v 1.2 3.1 -0.6
v 1.2 3.1 -0.7
v 0.7 2.3 -0.3
v 0.7 2.5 -0.3
v 0.8 2.3 -0.3
v 0.8 2.5 -0.3
v 0.5 2.5 -0.4
v 0.5 2.9 -0.4
v 0.6 2.3 -0.4
v 0.6 2.5 -0.4
v 0.7 2.1 -0.4
v 0.7 2.3 -0.4
v 0.7 2.5 -0.4
v 0.8 2.1 -0.4
v 0.8 2.3 -0.4
v 0.8 2.5 -0.4
v 0.9 2.3 -0.4
v 0.9 2.5 -0.4
v 1 2.5 -0.4
v 1 2.9 -0.4
v 0.5 2.9 -0.5
v 0.5 3 -0.5
v 1 2.6 -0.5
v 1 2.9 -0.5
v 1.1 2.6 -0.5
v 1.1 3 -0.5
v 0.6 3 -0.6
v 0.6 3.1 -0.6
v 1.1 2.6 -0.6
v 1.1 3 -0.6
v 1.2 2.6 -0.6
v 1.2 3.1 -0.6
v 0.5 2.5 -0.7
v 0.5 2.7 -0.7
v 0.6 2.5 -0.7
v 0.6 2.7 -0.7
v 0.5 2.7 -0.8
v 0.5 2.8 -0.8
v 0.6 2.7 -0.8
v 0.6 2.8 -0.8
v 0.7 2.1 -0.8
v 0.7 2.3 -0.8
v 0.8 2.1 -0.8
v 0.8 2.3 -0.8
v 0.5 2.7 -0.5
v 0.5 2.8 -0.5
v 0.6 2.7 -0.5
v 0.6 2.8 -0.5
v 0.7 2.1 -0.5
v 0.7 2.3 -0.5
v 0.8 2.1 -0.5
v 0.8 2.3 -0.5
v 0.5 2.5 -0.6
v 0.5 2.7 -0.6
v 0.6 2.5 -0.6
v 0.6 2.7 -0.6
v 0.6 3 -0.7
v 0.6 3.1 -0.7
v 1.1 2.6 -0.7
v 1.1 3 -0.7
v 1.2 2.6 -0.7
v 1.2 3.1 -0.7
v 0.5 2.9 -0.8
v 0.5 3 -0.8
v 1 2.6 -0.8
v 1 2.9 -0.8
v 1.1 2.6 -0.8
v 1.1 3 -0.8
v 0.5 2.5 -0.9
v 0.5 2.9 -0.9
v 0.6 2.3 -0.9
v 0.6 2.5 -0.9
v 0.7 2.1 -0.9
v 0.7 2.3 -0.9
v 0.8 2.1 -0.9
v 0.8 2.3 -0.9
v 0.9 2.3 -0.9
v 0.9 2.5 -0.9
v 1 2.5 -0.9
v 1 2.9 -0.9
v 0.7 2.1 -0.4
v 0.8 2.1 -0.4
v 0.7 2.1 -0.5
v 0.8 2.1 -0.5
v 0.7 2.1 -0.8
v 0.8 2.1 -0.8
v 0.7 2.1 -0.9
v 0.8 2.1 -0.9
v 0.7 2.3 -0.3
v 0.8 2.3 -0.3
v 0.6 2.3 -0.4
v 0.7 2.3 -0.4
v 0.8 2.3 -0.4
v 0.9 2.3 -0.4
v 0.7 2.3 -0.5
v 0.8 2.3 -0.5
v 0.7 2.3 -0.8
v 0.8 2.3 -0.8
v 0.6 2.3 -0.9
v 0.7 2.3 -0.9
v 0.8 2.3 -0.9
v 0.9 2.3 -0.9
v 0.5 2.5 -0.4
v 0.6 2.5 -0.4
v 0.9 2.5 -0.4
v 1 2.5 -0.4
v 0.5 2.5 -0.6
v 0.6 2.5 -0.6
v 0.5 2.5 -0.7
v 0.6 2.5 -0.7
v 0.5 2.5 -0.9
v 0.6 2.5 -0.9
v 0.9 2.5 -0.9
v 1 2.5 -0.9
v 1 2.6 -0.5
v 1.1 2.6 -0.5
v 1.1 2.6 -0.6
v 1.2 2.6 -0.6
v 1.1 2.6 -0.7
v 1.2 2.6 -0.7
v 1 2.6 -0.8
v 1.1 2.6 -0.8
v 0.5 2.8 -0.5
v 0.6 2.8 -0.5
v 0.5 2.8 -0.8
v 0.6 2.8 -0.8
v 0.7 2.5 -0.3
v 0.8 2.5 -0.3
v 0.7 2.5 -0.4
v 0.8 2.5 -0.4
v 0.5 2.7 -0.5
v 0.6 2.7 -0.5
v 0.5 2.7 -0.6
v 0.6 2.7 -0.6
v 0.5 2.7 -0.7
v 0.6 2.7 -0.7
v 0.5 2.7 -0.8
v 0.6 2.7 -0.8
v 0.5 2.9 -0.4
v 1 2.9 -0.4
v 0.5 2.9 -0.5
v 1 2.9 -0.5
v 0.5 2.9 -0.8
v 1 2.9 -0.8
v 0.5 2.9 -0.9
v 1 2.9 -0.9
v 0.5 3 -0.5
v 1.1 3 -0.5
v 0.6 3 -0.6
v 1.1 3 -0.6
v 0.6 3 -0.7
v 1.1 3 -0.7
v 0.5 3 -0.8
v 1.1 3 -0.8
v 0.6 3.1 -0.6
v 1.2 3.1 -0.6
v 0.6 3.1 -0.7
v 1.2 3.1 -0.7

# faces
f 5/3/1 2/3/1 1/3/1
f 6/3/1 2/3/1 5/3/1
f 7/3/1 4/3/1 3/3/1
f 8/3/1 4/3/1 7/3/1
f 9/3/1 5/3/1 1/3/1
f 10/3/1 4/3/1 8/3/1
f 11/3/1 9/3/1 1/3/1
f 11/3/1 10/3/1 9/3/1
f 12/3/1 10/3/1 11/3/1
f 13/3/1 4/3/1 10/3/1
f 13/3/1 10/3/1 12/3/1
f 14/3/1 4/3/1 13/3/1
f 15/1/1 13/1/1 12/1/1
f 16/1/1 13/1/1 15/1/1
f 19/3/1 18/3/1 17/3/1
f 20/3/1 18/3/1 19/3/1
f 21/3/1 18/3/1 20/3/1
f 22/3/1 18/3/1 21/3/1
f 24/2/1 21/2/1 20/2/1
f 25/2/1 21/2/1 24/2/1
f 27/2/1 24/2/1 23/2/1
f 27/2/1 26/2/1 25/2/1
f 27/2/1 25/2/1 24/2/1
f 28/2/1 26/2/1 27/2/1
f 31/1/1 30/1/1 29/1/1
f 32/1/1 30/1/1 31/1/1
f 38/3/1 34/3/1 33/3/1
f 39/3/1 34/3/1 38/3/1
f 40/3/1 36/3/1 35/3/1
f 41/3/1 36/3/1 40/3/1
f 42/3/1 38/3/1 37/3/1
f 43/3/1 38/3/1 42/3/1
f 44/3/2 45/3/2 49/3/2
f 49/3/2 45/3/2 50/3/2
f 46/3/2 47/3/2 51/3/2
f 51/3/2 47/3/2 52/3/2
f 48/3/2 49/3/2 53/3/2
f 53/3/2 49/3/2 54/3/2
f 55/3/2 56/3/2 57/3/2
f 57/3/2 56/3/2 58/3/2
f 59/3/2 60/3/2 61/3/2
f 61/3/2 60/3/2 62/3/2
f 59/3/2 61/3/2 63/3/2
f 63/3/2 61/3/2 64/3/2
f 62/3/2 60/3/2 65/3/2
f 65/3/2 60/3/2 66/3/2
f 67/1/2 68/1/2 71/1/2
f 71/1/2 68/1/2 72/1/2
f 69/1/2 70/1/2 73/1/2
f 73/1/2 70/1/2 74/1/2
f 75/1/2 76/1/2 77/1/2
f 77/1/2 76/1/2 78/1/2
f 81/3/3 80/3/3 79/3/3
f 82/3/3 80/3/3 81/3/3
f 86/3/3 84/3/3 83/3/3
f 88/3/3 86/3/3 85/3/3
f 89/3/3 84/3/3 86/3/3
f 89/3/3 86/3/3 88/3/3
f 90/3/3 88/3/3 87/3/3
f 91/3/3 88/3/3 90/3/3
f 92/3/3 84/3/3 89/3/3
f 93/3/3 92/3/3 91/3/3
f 94/3/3 84/3/3 92/3/3
f 94/3/3 92/3/3 93/3/3
f 95/3/3 84/3/3 94/3/3
f 96/3/3 84/3/3 95/3/3
f 100/1/3 98/1/3 97/1/3
f 101/1/3 100/1/3 99/1/3
f 102/1/3 98/1/3 100/1/3
f 102/1/3 100/1/3 101/1/3
f 106/1/3 104/1/3 103/1/3
f 107/1/3 106/1/3 105/1/3
f 108/1/3 104/1/3 106/1/3
f 108/1/3 106/1/3 107/1/3
f 111/3/3 110/3/3 109/3/3
f 112/3/3 110/3/3 111/3/3
f 115/3/3 114/3/3 113/3/3
f 116/3/3 114/3/3 115/3/3
f 119/3/3 118/3/3 117/3/3
f 120/3/3 118/3/3 119/3/3
f 121/3/4 122/3/4 123/3/4
f 123/3/4 122/3/4 124/3/4
f 125/3/4 126/3/4 127/3/4
f 127/3/4 126/3/4 128/3/4
f 129/3/4 130/3/4 131/3/4
f 131/3/4 130/3/4 132/3/4
f 133/1/4 134/1/4 136/1/4
f 135/1/4 136/1/4 137/1/4
f 136/1/4 134/1/4 138/1/4
f 137/1/4 136/1/4 138/1/4
f 139/1/4 140/1/4 142/1/4
f 141/1/4 142/1/4 143/1/4
f 142/1/4 140/1/4 144/1/4
f 143/1/4 142/1/4 144/1/4
f 145/3/4 146/3/4 148/3/4
f 147/3/4 148/3/4 150/3/4
f 149/3/4 150/3/4 151/3/4
f 150/3/4 148/3/4 152/3/4
f 151/3/4 150/3/4 152/3/4
f 152/3/4 148/3/4 153/3/4
f 148/3/4 146/3/4 154/3/4
f 153/3/4 148/3/4 154/3/4
f 154/3/4 146/3/4 155/3/4
f 155/3/4 146/3/4 156/3/4
f 159/3/5 158/3/5 157/3/5
f 160/3/5 158/3/5 159/3/5
f 163/3/5 162/3/5 161/3/5
f 164/3/5 162/3/5 163/3/5
f 168/3/5 166/3/5 165/3/5
f 169/3/5 166/3/5 168/3/5
f 171/3/5 168/3/5 167/3/5
f 172/3/5 170/3/5 169/3/5
f 173/3/5 171/3/5 167/3/5
f 173/3/5 172/3/5 171/3/5
f 174/3/5 170/3/5 172/3/5
f 174/3/5 172/3/5 173/3/5
f 175/3/5 173/3/5 167/3/5
f 176/3/5 173/3/5 175/3/5
f 177/3/5 170/3/5 174/3/5
f 178/3/5 170/3/5 177/3/5
f 183/3/5 180/3/5 179/3/5
f 184/3/5 180/3/5 183/3/5
f 187/3/5 186/3/5 185/3/5
f 188/3/5 186/3/5 187/3/5
f 189/3/5 182/3/5 181/3/5
f 190/3/5 182/3/5 189/3/5
f 193/1/5 192/1/5 191/1/5
f 195/1/5 193/1/5 191/1/5
f 195/1/5 194/1/5 193/1/5
f 196/1/5 194/1/5 195/1/5
f 197/1/5 195/1/5 191/1/5
f 198/1/5 195/1/5 197/1/5
f 201/3/5 200/3/5 199/3/5
f 202/3/5 200/3/5 201/3/5
f 203/3/6 204/3/6 205/3/6
f 205/3/6 204/3/6 206/3/6
f 207/3/6 208/3/6 209/3/6
f 209/3/6 208/3/6 210/3/6
f 211/3/6 212/3/6 213/3/6
f 213/3/6 212/3/6 214/3/6
f 215/3/6 216/3/6 217/3/6
f 217/3/6 216/3/6 218/3/6
f 219/3/6 220/3/6 221/3/6
f 221/3/6 220/3/6 222/3/6
f 223/1/6 224/1/6 225/1/6
f 225/1/6 224/1/6 226/1/6
f 223/1/6 225/1/6 227/1/6
f 223/1/6 227/1/6 229/1/6
f 227/1/6 228/1/6 229/1/6
f 229/1/6 228/1/6 230/1/6
f 231/1/6 232/1/6 233/1/6
f 233/1/6 232/1/6 234/1/6
