# MagicaVoxel @ Ephtracy

# group
o 

# material
mtllib PlayerPlain.mtl
usemtl palette

# normals
vn -1 0 0
vn 1 0 0
vn 0 0 1
vn 0 0 -1
vn 0 -1 0
vn 0 1 0

# texcoords
vt 0.0566406 0.5
vt 0.599609 0.5
vt 0.642578 0.5

# verts
v 0.5 2.4 -0.8
v 0.5 2.4 -0.9
v 0.5 2.5 -0.4
v 0.5 2.5 -0.6
v 0.5 2.5 -0.7
v 0.5 2.5 -0.8
v 0.5 2.7 -0.5
v 0.5 2.7 -0.6
v 0.5 2.7 -0.7
v 0.5 2.7 -0.8
v 0.5 2.8 -0.5
v 0.5 2.8 -0.8
v 0.5 2.9 -0.4
v 0.5 2.9 -0.5
v 0.5 2.9 -0.8
v 0.5 2.9 -0.9
v 0.5 3 -0.5
v 0.5 3 -0.8
v 0.6 2.3 -0.4
v 0.6 2.3 -0.9
v 0.6 2.4 -0.8
v 0.6 2.4 -0.9
v 0.6 2.5 -0.4
v 0.6 2.5 -0.6
v 0.6 2.5 -0.7
v 0.6 2.5 -0.8
v 0.6 2.7 -0.5
v 0.6 2.7 -0.6
v 0.6 2.7 -0.7
v 0.6 2.7 -0.8
v 0.6 2.8 -0.5
v 0.6 2.8 -0.8
v 0.6 3 -0.6
v 0.6 3 -0.7
v 0.6 3.1 -0.6
v 0.6 3.1 -0.7
v 0.7 2.1 -0.4
v 0.7 2.1 -0.5
v 0.7 2.1 -0.8
v 0.7 2.1 -0.9
v 0.7 2.3 -0.3
v 0.7 2.3 -0.4
v 0.7 2.3 -0.5
v 0.7 2.3 -0.8
v 0.7 2.3 -0.9
v 0.7 2.3 -1
v 0.7 2.5 -0.3
v 0.7 2.5 -0.4
v 0.7 2.5 -0.9
v 0.7 2.5 -1
v 0.8 2.1 -0.4
v 0.8 2.1 -0.5
v 0.8 2.1 -0.8
v 0.8 2.1 -0.9
v 0.8 2.3 -0.3
v 0.8 2.3 -0.4
v 0.8 2.3 -0.5
v 0.8 2.3 -0.8
v 0.8 2.3 -0.9
v 0.8 2.3 -1
v 0.8 2.5 -0.3
v 0.8 2.5 -0.4
v 0.8 2.5 -0.9
v 0.8 2.5 -1
v 0.9 2.3 -0.4
v 0.9 2.3 -0.9
v 0.9 2.5 -0.4
v 0.9 2.5 -0.9
v 1 2.5 -0.4
v 1 2.5 -0.9
v 1 2.6 -0.5
v 1 2.6 -0.8
v 1 2.9 -0.4
v 1 2.9 -0.5
v 1 2.9 -0.8
v 1 2.9 -0.9
v 1.1 2.6 -0.5
v 1.1 2.6 -0.6
v 1.1 2.6 -0.7
v 1.1 2.6 -0.8
v 1.1 3 -0.5
v 1.1 3 -0.6
v 1.1 3 -0.7
v 1.1 3 -0.8
v 1.2 2.6 -0.6
v 1.2 2.6 -0.7
v 1.2 3.1 -0.6
v 1.2 3.1 -0.7
v 0.7 2.3 -0.3
v 0.7 2.5 -0.3
v 0.8 2.3 -0.3
v 0.8 2.5 -0.3
v 0.5 2.5 -0.4
v 0.5 2.9 -0.4
v 0.6 2.3 -0.4
v 0.6 2.5 -0.4
v 0.7 2.1 -0.4
v 0.7 2.3 -0.4
v 0.7 2.5 -0.4
v 0.8 2.1 -0.4
v 0.8 2.3 -0.4
v 0.8 2.5 -0.4
v 0.9 2.3 -0.4
v 0.9 2.5 -0.4
v 1 2.5 -0.4
v 1 2.9 -0.4
v 0.5 2.9 -0.5
v 0.5 3 -0.5
v 1 2.6 -0.5
v 1 2.9 -0.5
v 1.1 2.6 -0.5
v 1.1 3 -0.5
v 0.6 3 -0.6
v 0.6 3.1 -0.6
v 1.1 2.6 -0.6
v 1.1 3 -0.6
v 1.2 2.6 -0.6
v 1.2 3.1 -0.6
v 0.5 2.5 -0.7
v 0.5 2.7 -0.7
v 0.6 2.5 -0.7
v 0.6 2.7 -0.7
v 0.5 2.4 -0.8
v 0.5 2.5 -0.8
v 0.5 2.7 -0.8
v 0.5 2.8 -0.8
v 0.6 2.4 -0.8
v 0.6 2.5 -0.8
v 0.6 2.7 -0.8
v 0.6 2.8 -0.8
v 0.7 2.1 -0.8
v 0.7 2.3 -0.8
v 0.8 2.1 -0.8
v 0.8 2.3 -0.8
v 0.5 2.7 -0.5
v 0.5 2.8 -0.5
v 0.6 2.7 -0.5
v 0.6 2.8 -0.5
v 0.7 2.1 -0.5
v 0.7 2.3 -0.5
v 0.8 2.1 -0.5
v 0.8 2.3 -0.5
v 0.5 2.5 -0.6
v 0.5 2.7 -0.6
v 0.6 2.5 -0.6
v 0.6 2.7 -0.6
v 0.6 3 -0.7
v 0.6 3.1 -0.7
v 1.1 2.6 -0.7
v 1.1 3 -0.7
v 1.2 2.6 -0.7
v 1.2 3.1 -0.7
v 0.5 2.9 -0.8
v 0.5 3 -0.8
v 1 2.6 -0.8
v 1 2.9 -0.8
v 1.1 2.6 -0.8
v 1.1 3 -0.8
v 0.5 2.4 -0.9
v 0.5 2.9 -0.9
v 0.6 2.3 -0.9
v 0.6 2.4 -0.9
v 0.7 2.1 -0.9
v 0.7 2.3 -0.9
v 0.7 2.5 -0.9
v 0.8 2.1 -0.9
v 0.8 2.3 -0.9
v 0.8 2.5 -0.9
v 0.9 2.3 -0.9
v 0.9 2.5 -0.9
v 1 2.5 -0.9
v 1 2.9 -0.9
v 0.7 2.3 -1
v 0.7 2.5 -1
v 0.8 2.3 -1
v 0.8 2.5 -1
v 0.7 2.1 -0.4
v 0.8 2.1 -0.4
v 0.7 2.1 -0.5
v 0.8 2.1 -0.5
v 0.7 2.1 -0.8
v 0.8 2.1 -0.8
v 0.7 2.1 -0.9
v 0.8 2.1 -0.9
v 0.7 2.3 -0.3
v 0.8 2.3 -0.3
v 0.6 2.3 -0.4
v 0.7 2.3 -0.4
v 0.8 2.3 -0.4
v 0.9 2.3 -0.4
v 0.7 2.3 -0.5
v 0.8 2.3 -0.5
v 0.7 2.3 -0.8
v 0.8 2.3 -0.8
v 0.6 2.3 -0.9
v 0.7 2.3 -0.9
v 0.8 2.3 -0.9
v 0.9 2.3 -0.9
v 0.7 2.3 -1
v 0.8 2.3 -1
v 0.5 2.4 -0.8
v 0.6 2.4 -0.8
v 0.5 2.4 -0.9
v 0.6 2.4 -0.9
v 0.5 2.5 -0.4
v 0.6 2.5 -0.4
v 0.9 2.5 -0.4
v 1 2.5 -0.4
v 0.5 2.5 -0.6
v 0.6 2.5 -0.6
v 0.5 2.5 -0.7
v 0.6 2.5 -0.7
v 0.5 2.5 -0.8
v 0.6 2.5 -0.8
v 0.9 2.5 -0.9
v 1 2.5 -0.9
v 1 2.6 -0.5
v 1.1 2.6 -0.5
v 1.1 2.6 -0.6
v 1.2 2.6 -0.6
v 1.1 2.6 -0.7
v 1.2 2.6 -0.7
v 1 2.6 -0.8
v 1.1 2.6 -0.8
v 0.5 2.8 -0.5
v 0.6 2.8 -0.5
v 0.5 2.8 -0.8
v 0.6 2.8 -0.8
v 0.7 2.5 -0.3
v 0.8 2.5 -0.3
v 0.7 2.5 -0.4
v 0.8 2.5 -0.4
v 0.7 2.5 -0.9
v 0.8 2.5 -0.9
v 0.7 2.5 -1
v 0.8 2.5 -1
v 0.5 2.7 -0.5
v 0.6 2.7 -0.5
v 0.5 2.7 -0.6
v 0.6 2.7 -0.6
v 0.5 2.7 -0.7
v 0.6 2.7 -0.7
v 0.5 2.7 -0.8
v 0.6 2.7 -0.8
v 0.5 2.9 -0.4
v 1 2.9 -0.4
v 0.5 2.9 -0.5
v 1 2.9 -0.5
v 0.5 2.9 -0.8
v 1 2.9 -0.8
v 0.5 2.9 -0.9
v 1 2.9 -0.9
v 0.5 3 -0.5
v 1.1 3 -0.5
v 0.6 3 -0.6
v 1.1 3 -0.6
v 0.6 3 -0.7
v 1.1 3 -0.7
v 0.5 3 -0.8
v 1.1 3 -0.8
v 0.6 3.1 -0.6
v 1.2 3.1 -0.6
v 0.6 3.1 -0.7
v 1.2 3.1 -0.7

# faces
f 6/3/1 2/3/1 1/3/1
f 7/3/1 4/3/1 3/3/1
f 8/3/1 4/3/1 7/3/1
f 9/3/1 6/3/1 5/3/1
f 10/3/1 2/3/1 6/3/1
f 10/3/1 6/3/1 9/3/1
f 11/3/1 7/3/1 3/3/1
f 12/3/1 2/3/1 10/3/1
f 13/3/1 11/3/1 3/3/1
f 13/3/1 12/3/1 11/3/1
f 14/3/1 12/3/1 13/3/1
f 15/3/1 2/3/1 12/3/1
f 15/3/1 12/3/1 14/3/1
f 16/3/1 2/3/1 15/3/1
f 17/1/1 15/1/1 14/1/1
f 18/1/1 15/1/1 17/1/1
f 21/3/1 20/3/1 19/3/1
f 22/3/1 20/3/1 21/3/1
f 23/3/1 21/3/1 19/3/1
f 24/3/1 21/3/1 23/3/1
f 25/3/1 21/3/1 24/3/1
f 26/3/1 21/3/1 25/3/1
f 28/2/1 25/2/1 24/2/1
f 29/2/1 25/2/1 28/2/1
f 31/2/1 28/2/1 27/2/1
f 31/2/1 30/2/1 29/2/1
f 31/2/1 29/2/1 28/2/1
f 32/2/1 30/2/1 31/2/1
f 35/1/1 34/1/1 33/1/1
f 36/1/1 34/1/1 35/1/1
f 42/3/1 38/3/1 37/3/1
f 43/3/1 38/3/1 42/3/1
f 44/3/1 40/3/1 39/3/1
f 45/3/1 40/3/1 44/3/1
f 47/3/1 42/3/1 41/3/1
f 48/3/1 42/3/1 47/3/1
f 49/3/1 46/3/1 45/3/1
f 50/3/1 46/3/1 49/3/1
f 51/3/2 52/3/2 56/3/2
f 56/3/2 52/3/2 57/3/2
f 53/3/2 54/3/2 58/3/2
f 58/3/2 54/3/2 59/3/2
f 55/3/2 56/3/2 61/3/2
f 61/3/2 56/3/2 62/3/2
f 59/3/2 60/3/2 63/3/2
f 63/3/2 60/3/2 64/3/2
f 65/3/2 66/3/2 67/3/2
f 67/3/2 66/3/2 68/3/2
f 69/3/2 70/3/2 71/3/2
f 71/3/2 70/3/2 72/3/2
f 69/3/2 71/3/2 73/3/2
f 73/3/2 71/3/2 74/3/2
f 72/3/2 70/3/2 75/3/2
f 75/3/2 70/3/2 76/3/2
f 77/1/2 78/1/2 81/1/2
f 81/1/2 78/1/2 82/1/2
f 79/1/2 80/1/2 83/1/2
f 83/1/2 80/1/2 84/1/2
f 85/1/2 86/1/2 87/1/2
f 87/1/2 86/1/2 88/1/2
f 91/3/3 90/3/3 89/3/3
f 92/3/3 90/3/3 91/3/3
f 96/3/3 94/3/3 93/3/3
f 98/3/3 96/3/3 95/3/3
f 99/3/3 94/3/3 96/3/3
f 99/3/3 96/3/3 98/3/3
f 100/3/3 98/3/3 97/3/3
f 101/3/3 98/3/3 100/3/3
f 102/3/3 94/3/3 99/3/3
f 103/3/3 102/3/3 101/3/3
f 104/3/3 94/3/3 102/3/3
f 104/3/3 102/3/3 103/3/3
f 105/3/3 94/3/3 104/3/3
f 106/3/3 94/3/3 105/3/3
f 110/1/3 108/1/3 107/1/3
f 111/1/3 110/1/3 109/1/3
f 112/1/3 108/1/3 110/1/3
f 112/1/3 110/1/3 111/1/3
f 116/1/3 114/1/3 113/1/3
f 117/1/3 116/1/3 115/1/3
f 118/1/3 114/1/3 116/1/3
f 118/1/3 116/1/3 117/1/3
f 121/3/3 120/3/3 119/3/3
f 122/3/3 120/3/3 121/3/3
f 127/3/3 124/3/3 123/3/3
f 128/3/3 124/3/3 127/3/3
f 129/3/3 126/3/3 125/3/3
f 130/3/3 126/3/3 129/3/3
f 133/3/3 132/3/3 131/3/3
f 134/3/3 132/3/3 133/3/3
f 135/3/4 136/3/4 137/3/4
f 137/3/4 136/3/4 138/3/4
f 139/3/4 140/3/4 141/3/4
f 141/3/4 140/3/4 142/3/4
f 143/3/4 144/3/4 145/3/4
f 145/3/4 144/3/4 146/3/4
f 147/1/4 148/1/4 150/1/4
f 149/1/4 150/1/4 151/1/4
f 150/1/4 148/1/4 152/1/4
f 151/1/4 150/1/4 152/1/4
f 153/1/4 154/1/4 156/1/4
f 155/1/4 156/1/4 157/1/4
f 156/1/4 154/1/4 158/1/4
f 157/1/4 156/1/4 158/1/4
f 159/3/4 160/3/4 162/3/4
f 161/3/4 162/3/4 164/3/4
f 162/3/4 160/3/4 165/3/4
f 164/3/4 162/3/4 165/3/4
f 163/3/4 164/3/4 166/3/4
f 166/3/4 164/3/4 167/3/4
f 165/3/4 160/3/4 168/3/4
f 167/3/4 168/3/4 169/3/4
f 168/3/4 160/3/4 170/3/4
f 169/3/4 168/3/4 170/3/4
f 170/3/4 160/3/4 171/3/4
f 171/3/4 160/3/4 172/3/4
f 173/3/4 174/3/4 175/3/4
f 175/3/4 174/3/4 176/3/4
f 179/3/5 178/3/5 177/3/5
f 180/3/5 178/3/5 179/3/5
f 183/3/5 182/3/5 181/3/5
f 184/3/5 182/3/5 183/3/5
f 188/3/5 186/3/5 185/3/5
f 189/3/5 186/3/5 188/3/5
f 191/3/5 188/3/5 187/3/5
f 192/3/5 190/3/5 189/3/5
f 193/3/5 191/3/5 187/3/5
f 193/3/5 192/3/5 191/3/5
f 194/3/5 190/3/5 192/3/5
f 194/3/5 192/3/5 193/3/5
f 195/3/5 193/3/5 187/3/5
f 196/3/5 193/3/5 195/3/5
f 197/3/5 190/3/5 194/3/5
f 198/3/5 190/3/5 197/3/5
f 199/3/5 197/3/5 196/3/5
f 200/3/5 197/3/5 199/3/5
f 203/3/5 202/3/5 201/3/5
f 204/3/5 202/3/5 203/3/5
f 209/3/5 206/3/5 205/3/5
f 210/3/5 206/3/5 209/3/5
f 213/3/5 212/3/5 211/3/5
f 214/3/5 212/3/5 213/3/5
f 215/3/5 208/3/5 207/3/5
f 216/3/5 208/3/5 215/3/5
f 219/1/5 218/1/5 217/1/5
f 221/1/5 219/1/5 217/1/5
f 221/1/5 220/1/5 219/1/5
f 222/1/5 220/1/5 221/1/5
f 223/1/5 221/1/5 217/1/5
f 224/1/5 221/1/5 223/1/5
f 227/3/5 226/3/5 225/3/5
f 228/3/5 226/3/5 227/3/5
f 229/3/6 230/3/6 231/3/6
f 231/3/6 230/3/6 232/3/6
f 233/3/6 234/3/6 235/3/6
f 235/3/6 234/3/6 236/3/6
f 237/3/6 238/3/6 239/3/6
f 239/3/6 238/3/6 240/3/6
f 241/3/6 242/3/6 243/3/6
f 243/3/6 242/3/6 244/3/6
f 245/3/6 246/3/6 247/3/6
f 247/3/6 246/3/6 248/3/6
f 249/3/6 250/3/6 251/3/6
f 251/3/6 250/3/6 252/3/6
f 253/1/6 254/1/6 255/1/6
f 255/1/6 254/1/6 256/1/6
f 253/1/6 255/1/6 257/1/6
f 253/1/6 257/1/6 259/1/6
f 257/1/6 258/1/6 259/1/6
f 259/1/6 258/1/6 260/1/6
f 261/1/6 262/1/6 263/1/6
f 263/1/6 262/1/6 264/1/6
