# MagicaVoxel @ Ephtracy

# group
o 

# material
mtllib PlayerBody.mtl
usemtl palette

# normals
vn -1 0 0
vn 1 0 0
vn 0 0 1
vn 0 0 -1
vn 0 -1 0
vn 0 1 0

# texcoords
vt 0.0566406 0.5
vt 0.599609 0.5
vt 0.642578 0.5

# verts
v 0.5 2.5 -0.4
v 0.5 2.5 -0.6
v 0.5 2.5 -0.7
v 0.5 2.5 -0.9
v 0.5 2.7 -0.5
v 0.5 2.7 -0.6
v 0.5 2.7 -0.7
v 0.5 2.7 -0.8
v 0.5 2.8 -0.5
v 0.5 2.8 -0.8
v 0.5 2.9 -0.4
v 0.5 2.9 -0.5
v 0.5 2.9 -0.8
v 0.5 2.9 -0.9
v 0.5 3 -0.5
v 0.5 3 -0.8
v 0.6 2.3 -0.4
v 0.6 2.3 -0.9
v 0.6 2.5 -0.4
v 0.6 2.5 -0.6
v 0.6 2.5 -0.7
v 0.6 2.5 -0.9
v 0.6 2.7 -0.5
v 0.6 2.7 -0.6
v 0.6 2.7 -0.7
v 0.6 2.7 -0.8
v 0.6 2.8 -0.5
v 0.6 2.8 -0.8
v 0.6 3 -0.6
v 0.6 3 -0.7
v 0.6 3.1 -0.6
v 0.6 3.1 -0.7
v 0.7 2.3 -0.3
v 0.7 2.3 -0.4
v 0.7 2.5 -0.3
v 0.7 2.5 -0.4
v 0.8 2.3 -0.3
v 0.8 2.3 -0.4
v 0.8 2.5 -0.3
v 0.8 2.5 -0.4
v 0.9 2.3 -0.4
v 0.9 2.3 -0.9
v 0.9 2.5 -0.4
v 0.9 2.5 -0.9
v 1 2.5 -0.4
v 1 2.5 -0.9
v 1 2.6 -0.5
v 1 2.6 -0.8
v 1 2.9 -0.4
v 1 2.9 -0.5
v 1 2.9 -0.8
v 1 2.9 -0.9
v 1.1 2.6 -0.5
v 1.1 2.6 -0.6
v 1.1 2.6 -0.7
v 1.1 2.6 -0.8
v 1.1 3 -0.5
v 1.1 3 -0.6
v 1.1 3 -0.7
v 1.1 3 -0.8
v 1.2 2.6 -0.6
v 1.2 2.6 -0.7
v 1.2 3.1 -0.6
v 1.2 3.1 -0.7
v 0.7 2.3 -0.3
v 0.7 2.5 -0.3
v 0.8 2.3 -0.3
v 0.8 2.5 -0.3
v 0.5 2.5 -0.4
v 0.5 2.9 -0.4
v 0.6 2.3 -0.4
v 0.6 2.5 -0.4
v 0.7 2.3 -0.4
v 0.7 2.5 -0.4
v 0.8 2.3 -0.4
v 0.8 2.5 -0.4
v 0.9 2.3 -0.4
v 0.9 2.5 -0.4
v 1 2.5 -0.4
v 1 2.9 -0.4
v 0.5 2.9 -0.5
v 0.5 3 -0.5
v 1 2.6 -0.5
v 1 2.9 -0.5
v 1.1 2.6 -0.5
v 1.1 3 -0.5
v 0.6 3 -0.6
v 0.6 3.1 -0.6
v 1.1 2.6 -0.6
v 1.1 3 -0.6
v 1.2 2.6 -0.6
v 1.2 3.1 -0.6
v 0.5 2.5 -0.7
v 0.5 2.7 -0.7
v 0.6 2.5 -0.7
v 0.6 2.7 -0.7
v 0.5 2.7 -0.8
v 0.5 2.8 -0.8
v 0.6 2.7 -0.8
v 0.6 2.8 -0.8
v 0.5 2.7 -0.5
v 0.5 2.8 -0.5
v 0.6 2.7 -0.5
v 0.6 2.8 -0.5
v 0.5 2.5 -0.6
v 0.5 2.7 -0.6
v 0.6 2.5 -0.6
v 0.6 2.7 -0.6
v 0.6 3 -0.7
v 0.6 3.1 -0.7
v 1.1 2.6 -0.7
v 1.1 3 -0.7
v 1.2 2.6 -0.7
v 1.2 3.1 -0.7
v 0.5 2.9 -0.8
v 0.5 3 -0.8
v 1 2.6 -0.8
v 1 2.9 -0.8
v 1.1 2.6 -0.8
v 1.1 3 -0.8
v 0.5 2.5 -0.9
v 0.5 2.9 -0.9
v 0.6 2.3 -0.9
v 0.6 2.5 -0.9
v 0.9 2.3 -0.9
v 0.9 2.5 -0.9
v 1 2.5 -0.9
v 1 2.9 -0.9
v 0.7 2.3 -0.3
v 0.8 2.3 -0.3
v 0.6 2.3 -0.4
v 0.7 2.3 -0.4
v 0.8 2.3 -0.4
v 0.9 2.3 -0.4
v 0.6 2.3 -0.9
v 0.9 2.3 -0.9
v 0.5 2.5 -0.4
v 0.6 2.5 -0.4
v 0.9 2.5 -0.4
v 1 2.5 -0.4
v 0.5 2.5 -0.6
v 0.6 2.5 -0.6
v 0.5 2.5 -0.7
v 0.6 2.5 -0.7
v 0.5 2.5 -0.9
v 0.6 2.5 -0.9
v 0.9 2.5 -0.9
v 1 2.5 -0.9
v 1 2.6 -0.5
v 1.1 2.6 -0.5
v 1.1 2.6 -0.6
v 1.2 2.6 -0.6
v 1.1 2.6 -0.7
v 1.2 2.6 -0.7
v 1 2.6 -0.8
v 1.1 2.6 -0.8
v 0.5 2.8 -0.5
v 0.6 2.8 -0.5
v 0.5 2.8 -0.8
v 0.6 2.8 -0.8
v 0.7 2.5 -0.3
v 0.8 2.5 -0.3
v 0.7 2.5 -0.4
v 0.8 2.5 -0.4
v 0.5 2.7 -0.5
v 0.6 2.7 -0.5
v 0.5 2.7 -0.6
v 0.6 2.7 -0.6
v 0.5 2.7 -0.7
v 0.6 2.7 -0.7
v 0.5 2.7 -0.8
v 0.6 2.7 -0.8
v 0.5 2.9 -0.4
v 1 2.9 -0.4
v 0.5 2.9 -0.5
v 1 2.9 -0.5
v 0.5 2.9 -0.8
v 1 2.9 -0.8
v 0.5 2.9 -0.9
v 1 2.9 -0.9
v 0.5 3 -0.5
v 1.1 3 -0.5
v 0.6 3 -0.6
v 1.1 3 -0.6
v 0.6 3 -0.7
v 1.1 3 -0.7
v 0.5 3 -0.8
v 1.1 3 -0.8
v 0.6 3.1 -0.6
v 1.2 3.1 -0.6
v 0.6 3.1 -0.7
v 1.2 3.1 -0.7

# faces
f 5/3/1 2/3/1 1/3/1
f 6/3/1 2/3/1 5/3/1
f 7/3/1 4/3/1 3/3/1
f 8/3/1 4/3/1 7/3/1
f 9/3/1 5/3/1 1/3/1
f 10/3/1 4/3/1 8/3/1
f 11/3/1 9/3/1 1/3/1
f 11/3/1 10/3/1 9/3/1
f 12/3/1 10/3/1 11/3/1
f 13/3/1 4/3/1 10/3/1
f 13/3/1 10/3/1 12/3/1
f 14/3/1 4/3/1 13/3/1
f 15/1/1 13/1/1 12/1/1
f 16/1/1 13/1/1 15/1/1
f 19/3/1 18/3/1 17/3/1
f 20/3/1 18/3/1 19/3/1
f 21/3/1 18/3/1 20/3/1
f 22/3/1 18/3/1 21/3/1
f 24/2/1 21/2/1 20/2/1
f 25/2/1 21/2/1 24/2/1
f 27/2/1 24/2/1 23/2/1
f 27/2/1 26/2/1 25/2/1
f 27/2/1 25/2/1 24/2/1
f 28/2/1 26/2/1 27/2/1
f 31/1/1 30/1/1 29/1/1
f 32/1/1 30/1/1 31/1/1
f 35/3/1 34/3/1 33/3/1
f 36/3/1 34/3/1 35/3/1
f 37/3/2 38/3/2 39/3/2
f 39/3/2 38/3/2 40/3/2
f 41/3/2 42/3/2 43/3/2
f 43/3/2 42/3/2 44/3/2
f 45/3/2 46/3/2 47/3/2
f 47/3/2 46/3/2 48/3/2
f 45/3/2 47/3/2 49/3/2
f 49/3/2 47/3/2 50/3/2
f 48/3/2 46/3/2 51/3/2
f 51/3/2 46/3/2 52/3/2
f 53/1/2 54/1/2 57/1/2
f 57/1/2 54/1/2 58/1/2
f 55/1/2 56/1/2 59/1/2
f 59/1/2 56/1/2 60/1/2
f 61/1/2 62/1/2 63/1/2
f 63/1/2 62/1/2 64/1/2
f 67/3/3 66/3/3 65/3/3
f 68/3/3 66/3/3 67/3/3
f 72/3/3 70/3/3 69/3/3
f 73/3/3 72/3/3 71/3/3
f 74/3/3 70/3/3 72/3/3
f 74/3/3 72/3/3 73/3/3
f 76/3/3 70/3/3 74/3/3
f 77/3/3 76/3/3 75/3/3
f 78/3/3 70/3/3 76/3/3
f 78/3/3 76/3/3 77/3/3
f 79/3/3 70/3/3 78/3/3
f 80/3/3 70/3/3 79/3/3
f 84/1/3 82/1/3 81/1/3
f 85/1/3 84/1/3 83/1/3
f 86/1/3 82/1/3 84/1/3
f 86/1/3 84/1/3 85/1/3
f 90/1/3 88/1/3 87/1/3
f 91/1/3 90/1/3 89/1/3
f 92/1/3 88/1/3 90/1/3
f 92/1/3 90/1/3 91/1/3
f 95/3/3 94/3/3 93/3/3
f 96/3/3 94/3/3 95/3/3
f 99/3/3 98/3/3 97/3/3
f 100/3/3 98/3/3 99/3/3
f 101/3/4 102/3/4 103/3/4
f 103/3/4 102/3/4 104/3/4
f 105/3/4 106/3/4 107/3/4
f 107/3/4 106/3/4 108/3/4
f 109/1/4 110/1/4 112/1/4
f 111/1/4 112/1/4 113/1/4
f 112/1/4 110/1/4 114/1/4
f 113/1/4 112/1/4 114/1/4
f 115/1/4 116/1/4 118/1/4
f 117/1/4 118/1/4 119/1/4
f 118/1/4 116/1/4 120/1/4
f 119/1/4 118/1/4 120/1/4
f 121/3/4 122/3/4 124/3/4
f 123/3/4 124/3/4 125/3/4
f 124/3/4 122/3/4 126/3/4
f 125/3/4 124/3/4 126/3/4
f 126/3/4 122/3/4 127/3/4
f 127/3/4 122/3/4 128/3/4
f 132/3/5 130/3/5 129/3/5
f 133/3/5 130/3/5 132/3/5
f 135/3/5 132/3/5 131/3/5
f 135/3/5 134/3/5 133/3/5
f 135/3/5 133/3/5 132/3/5
f 136/3/5 134/3/5 135/3/5
f 141/3/5 138/3/5 137/3/5
f 142/3/5 138/3/5 141/3/5
f 145/3/5 144/3/5 143/3/5
f 146/3/5 144/3/5 145/3/5
f 147/3/5 140/3/5 139/3/5
f 148/3/5 140/3/5 147/3/5
f 151/1/5 150/1/5 149/1/5
f 153/1/5 151/1/5 149/1/5
f 153/1/5 152/1/5 151/1/5
f 154/1/5 152/1/5 153/1/5
f 155/1/5 153/1/5 149/1/5
f 156/1/5 153/1/5 155/1/5
f 159/3/5 158/3/5 157/3/5
f 160/3/5 158/3/5 159/3/5
f 161/3/6 162/3/6 163/3/6
f 163/3/6 162/3/6 164/3/6
f 165/3/6 166/3/6 167/3/6
f 167/3/6 166/3/6 168/3/6
f 169/3/6 170/3/6 171/3/6
f 171/3/6 170/3/6 172/3/6
f 173/3/6 174/3/6 175/3/6
f 175/3/6 174/3/6 176/3/6
f 177/3/6 178/3/6 179/3/6
f 179/3/6 178/3/6 180/3/6
f 181/1/6 182/1/6 183/1/6
f 183/1/6 182/1/6 184/1/6
f 181/1/6 183/1/6 185/1/6
f 181/1/6 185/1/6 187/1/6
f 185/1/6 186/1/6 187/1/6
f 187/1/6 186/1/6 188/1/6
f 189/1/6 190/1/6 191/1/6
f 191/1/6 190/1/6 192/1/6
