# MagicaVoxel @ Ephtracy

# group
o 

# material
mtllib poppyPlayer.mtl
usemtl palette

# normals
vn -1 0 0
vn 1 0 0
vn 0 0 1
vn 0 0 -1
vn 0 -1 0
vn 0 1 0

# texcoords
vt 0.0566406 0.5
vt 0.599609 0.5
vt 0.642578 0.5
vt 0.916016 0.5
vt 0.982422 0.5

# verts
v 0.5 2.5 -0.4
v 0.5 2.5 -0.6
v 0.5 2.5 -0.7
v 0.5 2.5 -0.9
v 0.5 2.7 -0.5
v 0.5 2.7 -0.6
v 0.5 2.7 -0.7
v 0.5 2.7 -0.8
v 0.5 2.8 -0.5
v 0.5 2.8 -0.8
v 0.5 2.9 -0.4
v 0.5 2.9 -0.5
v 0.5 2.9 -0.8
v 0.5 2.9 -0.9
v 0.5 3 -0.5
v 0.5 3 -0.8
v 0.6 2.3 -0.4
v 0.6 2.3 -0.9
v 0.6 2.5 -0.4
v 0.6 2.5 -0.6
v 0.6 2.5 -0.7
v 0.6 2.5 -0.9
v 0.6 2.7 -0.5
v 0.6 2.7 -0.6
v 0.6 2.7 -0.7
v 0.6 2.7 -0.8
v 0.6 2.8 -0.5
v 0.6 2.8 -0.8
v 0.6 3 -0.6
v 0.6 3 -0.7
v 0.6 3.1 -0.6
v 0.6 3.1 -0.7
v 0.7 2.1 -0.4
v 0.7 2.1 -0.5
v 0.7 2.1 -0.8
v 0.7 2.1 -0.9
v 0.7 2.1 -1
v 0.7 2.1 -1.1
v 0.7 2.3 -0.3
v 0.7 2.3 -0.4
v 0.7 2.3 -0.5
v 0.7 2.3 -0.8
v 0.7 2.3 -0.9
v 0.7 2.4 -0.9
v 0.7 2.4 -1
v 0.7 2.5 -0.3
v 0.7 2.5 -0.4
v 0.7 2.5 -0.9
v 0.7 2.5 -1
v 0.7 2.5 -1.2
v 0.7 2.5 -1.3
v 0.7 2.6 -1.1
v 0.7 2.6 -1.2
v 0.7 2.8 -1.1
v 0.7 2.8 -1.2
v 0.7 2.9 -1
v 0.7 2.9 -1.1
v 0.7 2.9 -1.2
v 0.7 2.9 -1.3
v 0.8 2.1 -0.4
v 0.8 2.1 -0.5
v 0.8 2.1 -0.8
v 0.8 2.1 -0.9
v 0.8 2.1 -1
v 0.8 2.1 -1.1
v 0.8 2.3 -0.3
v 0.8 2.3 -0.4
v 0.8 2.3 -0.5
v 0.8 2.3 -0.8
v 0.8 2.3 -0.9
v 0.8 2.4 -0.9
v 0.8 2.4 -1
v 0.8 2.5 -0.3
v 0.8 2.5 -0.4
v 0.8 2.5 -0.9
v 0.8 2.5 -1
v 0.8 2.5 -1.2
v 0.8 2.5 -1.3
v 0.8 2.6 -1.1
v 0.8 2.6 -1.2
v 0.8 2.8 -1.1
v 0.8 2.8 -1.2
v 0.8 2.9 -1
v 0.8 2.9 -1.1
v 0.8 2.9 -1.2
v 0.8 2.9 -1.3
v 0.9 2.3 -0.4
v 0.9 2.3 -0.9
v 0.9 2.5 -0.4
v 0.9 2.5 -0.9
v 1 2.5 -0.4
v 1 2.5 -0.9
v 1 2.6 -0.5
v 1 2.6 -0.8
v 1 2.9 -0.4
v 1 2.9 -0.5
v 1 2.9 -0.8
v 1 2.9 -0.9
v 1.1 2.6 -0.5
v 1.1 2.6 -0.6
v 1.1 2.6 -0.7
v 1.1 2.6 -0.8
v 1.1 3 -0.5
v 1.1 3 -0.6
v 1.1 3 -0.7
v 1.1 3 -0.8
v 1.2 2.6 -0.6
v 1.2 2.6 -0.7
v 1.2 3.1 -0.6
v 1.2 3.1 -0.7
v 0.7 2.3 -0.3
v 0.7 2.5 -0.3
v 0.8 2.3 -0.3
v 0.8 2.5 -0.3
v 0.5 2.5 -0.4
v 0.5 2.9 -0.4
v 0.6 2.3 -0.4
v 0.6 2.5 -0.4
v 0.7 2.1 -0.4
v 0.7 2.3 -0.4
v 0.7 2.5 -0.4
v 0.8 2.1 -0.4
v 0.8 2.3 -0.4
v 0.8 2.5 -0.4
v 0.9 2.3 -0.4
v 0.9 2.5 -0.4
v 1 2.5 -0.4
v 1 2.9 -0.4
v 0.5 2.9 -0.5
v 0.5 3 -0.5
v 1 2.6 -0.5
v 1 2.9 -0.5
v 1.1 2.6 -0.5
v 1.1 3 -0.5
v 0.6 3 -0.6
v 0.6 3.1 -0.6
v 1.1 2.6 -0.6
v 1.1 3 -0.6
v 1.2 2.6 -0.6
v 1.2 3.1 -0.6
v 0.5 2.5 -0.7
v 0.5 2.7 -0.7
v 0.6 2.5 -0.7
v 0.6 2.7 -0.7
v 0.5 2.7 -0.8
v 0.5 2.8 -0.8
v 0.6 2.7 -0.8
v 0.6 2.8 -0.8
v 0.7 2.1 -0.8
v 0.7 2.3 -0.8
v 0.8 2.1 -0.8
v 0.8 2.3 -0.8
v 0.7 2.1 -1
v 0.7 2.4 -1
v 0.7 2.5 -1
v 0.7 2.9 -1
v 0.8 2.1 -1
v 0.8 2.4 -1
v 0.8 2.5 -1
v 0.8 2.9 -1
v 0.7 2.5 -1.2
v 0.7 2.6 -1.2
v 0.7 2.8 -1.2
v 0.7 2.9 -1.2
v 0.8 2.5 -1.2
v 0.8 2.6 -1.2
v 0.8 2.8 -1.2
v 0.8 2.9 -1.2
v 0.5 2.7 -0.5
v 0.5 2.8 -0.5
v 0.6 2.7 -0.5
v 0.6 2.8 -0.5
v 0.7 2.1 -0.5
v 0.7 2.3 -0.5
v 0.8 2.1 -0.5
v 0.8 2.3 -0.5
v 0.5 2.5 -0.6
v 0.5 2.7 -0.6
v 0.6 2.5 -0.6
v 0.6 2.7 -0.6
v 0.6 3 -0.7
v 0.6 3.1 -0.7
v 1.1 2.6 -0.7
v 1.1 3 -0.7
v 1.2 2.6 -0.7
v 1.2 3.1 -0.7
v 0.5 2.9 -0.8
v 0.5 3 -0.8
v 1 2.6 -0.8
v 1 2.9 -0.8
v 1.1 2.6 -0.8
v 1.1 3 -0.8
v 0.5 2.5 -0.9
v 0.5 2.9 -0.9
v 0.6 2.3 -0.9
v 0.6 2.5 -0.9
v 0.7 2.1 -0.9
v 0.7 2.3 -0.9
v 0.7 2.4 -0.9
v 0.7 2.5 -0.9
v 0.8 2.1 -0.9
v 0.8 2.3 -0.9
v 0.8 2.4 -0.9
v 0.8 2.5 -0.9
v 0.9 2.3 -0.9
v 0.9 2.5 -0.9
v 1 2.5 -0.9
v 1 2.9 -0.9
v 0.7 2.1 -1.1
v 0.7 2.6 -1.1
v 0.7 2.8 -1.1
v 0.7 2.9 -1.1
v 0.8 2.1 -1.1
v 0.8 2.6 -1.1
v 0.8 2.8 -1.1
v 0.8 2.9 -1.1
v 0.7 2.5 -1.3
v 0.7 2.9 -1.3
v 0.8 2.5 -1.3
v 0.8 2.9 -1.3
v 0.7 2.1 -0.4
v 0.8 2.1 -0.4
v 0.7 2.1 -0.5
v 0.8 2.1 -0.5
v 0.7 2.1 -0.8
v 0.8 2.1 -0.8
v 0.7 2.1 -0.9
v 0.8 2.1 -0.9
v 0.7 2.1 -1
v 0.8 2.1 -1
v 0.7 2.1 -1.1
v 0.8 2.1 -1.1
v 0.7 2.3 -0.3
v 0.8 2.3 -0.3
v 0.6 2.3 -0.4
v 0.7 2.3 -0.4
v 0.8 2.3 -0.4
v 0.9 2.3 -0.4
v 0.7 2.3 -0.5
v 0.8 2.3 -0.5
v 0.7 2.3 -0.8
v 0.8 2.3 -0.8
v 0.6 2.3 -0.9
v 0.7 2.3 -0.9
v 0.8 2.3 -0.9
v 0.9 2.3 -0.9
v 0.7 2.4 -0.9
v 0.8 2.4 -0.9
v 0.7 2.4 -1
v 0.8 2.4 -1
v 0.5 2.5 -0.4
v 0.6 2.5 -0.4
v 0.9 2.5 -0.4
v 1 2.5 -0.4
v 0.5 2.5 -0.6
v 0.6 2.5 -0.6
v 0.5 2.5 -0.7
v 0.6 2.5 -0.7
v 0.5 2.5 -0.9
v 0.6 2.5 -0.9
v 0.9 2.5 -0.9
v 1 2.5 -0.9
v 0.7 2.5 -1.2
v 0.8 2.5 -1.2
v 0.7 2.5 -1.3
v 0.8 2.5 -1.3
v 1 2.6 -0.5
v 1.1 2.6 -0.5
v 1.1 2.6 -0.6
v 1.2 2.6 -0.6
v 1.1 2.6 -0.7
v 1.2 2.6 -0.7
v 1 2.6 -0.8
v 1.1 2.6 -0.8
v 0.7 2.6 -1.1
v 0.8 2.6 -1.1
v 0.7 2.6 -1.2
v 0.8 2.6 -1.2
v 0.5 2.8 -0.5
v 0.6 2.8 -0.5
v 0.5 2.8 -0.8
v 0.6 2.8 -0.8
v 0.7 2.5 -0.3
v 0.8 2.5 -0.3
v 0.7 2.5 -0.4
v 0.8 2.5 -0.4
v 0.7 2.5 -0.9
v 0.8 2.5 -0.9
v 0.7 2.5 -1
v 0.8 2.5 -1
v 0.5 2.7 -0.5
v 0.6 2.7 -0.5
v 0.5 2.7 -0.6
v 0.6 2.7 -0.6
v 0.5 2.7 -0.7
v 0.6 2.7 -0.7
v 0.5 2.7 -0.8
v 0.6 2.7 -0.8
v 0.7 2.8 -1.1
v 0.8 2.8 -1.1
v 0.7 2.8 -1.2
v 0.8 2.8 -1.2
v 0.5 2.9 -0.4
v 1 2.9 -0.4
v 0.5 2.9 -0.5
v 1 2.9 -0.5
v 0.5 2.9 -0.8
v 1 2.9 -0.8
v 0.5 2.9 -0.9
v 1 2.9 -0.9
v 0.7 2.9 -1
v 0.8 2.9 -1
v 0.7 2.9 -1.1
v 0.8 2.9 -1.1
v 0.7 2.9 -1.2
v 0.8 2.9 -1.2
v 0.7 2.9 -1.3
v 0.8 2.9 -1.3
v 0.5 3 -0.5
v 1.1 3 -0.5
v 0.6 3 -0.6
v 1.1 3 -0.6
v 0.6 3 -0.7
v 1.1 3 -0.7
v 0.5 3 -0.8
v 1.1 3 -0.8
v 0.6 3.1 -0.6
v 1.2 3.1 -0.6
v 0.6 3.1 -0.7
v 1.2 3.1 -0.7

# faces
f 5/3/1 2/3/1 1/3/1
f 6/3/1 2/3/1 5/3/1
f 7/3/1 4/3/1 3/3/1
f 8/3/1 4/3/1 7/3/1
f 9/3/1 5/3/1 1/3/1
f 10/3/1 4/3/1 8/3/1
f 11/3/1 9/3/1 1/3/1
f 11/3/1 10/3/1 9/3/1
f 12/3/1 10/3/1 11/3/1
f 13/3/1 4/3/1 10/3/1
f 13/3/1 10/3/1 12/3/1
f 14/3/1 4/3/1 13/3/1
f 15/1/1 13/1/1 12/1/1
f 16/1/1 13/1/1 15/1/1
f 19/3/1 18/3/1 17/3/1
f 20/3/1 18/3/1 19/3/1
f 21/3/1 18/3/1 20/3/1
f 22/3/1 18/3/1 21/3/1
f 24/2/1 21/2/1 20/2/1
f 25/2/1 21/2/1 24/2/1
f 27/2/1 24/2/1 23/2/1
f 27/2/1 26/2/1 25/2/1
f 27/2/1 25/2/1 24/2/1
f 28/2/1 26/2/1 27/2/1
f 31/1/1 30/1/1 29/1/1
f 32/1/1 30/1/1 31/1/1
f 40/3/1 34/3/1 33/3/1
f 41/3/1 34/3/1 40/3/1
f 42/3/1 36/3/1 35/3/1
f 43/3/1 36/3/1 42/3/1
f 45/5/1 38/5/1 37/5/1
f 46/3/1 40/3/1 39/3/1
f 47/3/1 40/3/1 46/3/1
f 48/3/1 45/3/1 44/3/1
f 49/5/1 38/5/1 45/5/1
f 49/3/1 45/3/1 48/3/1
f 52/5/1 38/5/1 49/5/1
f 53/4/1 51/4/1 50/4/1
f 54/5/1 52/5/1 49/5/1
f 54/4/1 53/4/1 52/4/1
f 55/4/1 51/4/1 53/4/1
f 55/4/1 53/4/1 54/4/1
f 56/5/1 54/5/1 49/5/1
f 57/5/1 54/5/1 56/5/1
f 58/4/1 51/4/1 55/4/1
f 59/4/1 51/4/1 58/4/1
f 60/3/2 61/3/2 67/3/2
f 67/3/2 61/3/2 68/3/2
f 62/3/2 63/3/2 69/3/2
f 69/3/2 63/3/2 70/3/2
f 64/5/2 65/5/2 72/5/2
f 66/3/2 67/3/2 73/3/2
f 73/3/2 67/3/2 74/3/2
f 71/3/2 72/3/2 75/3/2
f 72/5/2 65/5/2 76/5/2
f 75/3/2 72/3/2 76/3/2
f 76/5/2 65/5/2 79/5/2
f 77/4/2 78/4/2 80/4/2
f 76/5/2 79/5/2 81/5/2
f 79/4/2 80/4/2 81/4/2
f 80/4/2 78/4/2 82/4/2
f 81/4/2 80/4/2 82/4/2
f 76/5/2 81/5/2 83/5/2
f 83/5/2 81/5/2 84/5/2
f 82/4/2 78/4/2 85/4/2
f 85/4/2 78/4/2 86/4/2
f 87/3/2 88/3/2 89/3/2
f 89/3/2 88/3/2 90/3/2
f 91/3/2 92/3/2 93/3/2
f 93/3/2 92/3/2 94/3/2
f 91/3/2 93/3/2 95/3/2
f 95/3/2 93/3/2 96/3/2
f 94/3/2 92/3/2 97/3/2
f 97/3/2 92/3/2 98/3/2
f 99/1/2 100/1/2 103/1/2
f 103/1/2 100/1/2 104/1/2
f 101/1/2 102/1/2 105/1/2
f 105/1/2 102/1/2 106/1/2
f 107/1/2 108/1/2 109/1/2
f 109/1/2 108/1/2 110/1/2
f 113/3/3 112/3/3 111/3/3
f 114/3/3 112/3/3 113/3/3
f 118/3/3 116/3/3 115/3/3
f 120/3/3 118/3/3 117/3/3
f 121/3/3 116/3/3 118/3/3
f 121/3/3 118/3/3 120/3/3
f 122/3/3 120/3/3 119/3/3
f 123/3/3 120/3/3 122/3/3
f 124/3/3 116/3/3 121/3/3
f 125/3/3 124/3/3 123/3/3
f 126/3/3 116/3/3 124/3/3
f 126/3/3 124/3/3 125/3/3
f 127/3/3 116/3/3 126/3/3
f 128/3/3 116/3/3 127/3/3
f 132/1/3 130/1/3 129/1/3
f 133/1/3 132/1/3 131/1/3
f 134/1/3 130/1/3 132/1/3
f 134/1/3 132/1/3 133/1/3
f 138/1/3 136/1/3 135/1/3
f 139/1/3 138/1/3 137/1/3
f 140/1/3 136/1/3 138/1/3
f 140/1/3 138/1/3 139/1/3
f 143/3/3 142/3/3 141/3/3
f 144/3/3 142/3/3 143/3/3
f 147/3/3 146/3/3 145/3/3
f 148/3/3 146/3/3 147/3/3
f 151/3/3 150/3/3 149/3/3
f 152/3/3 150/3/3 151/3/3
f 157/5/3 154/5/3 153/5/3
f 158/5/3 154/5/3 157/5/3
f 159/5/3 156/5/3 155/5/3
f 160/5/3 156/5/3 159/5/3
f 165/4/3 162/4/3 161/4/3
f 166/4/3 162/4/3 165/4/3
f 167/4/3 164/4/3 163/4/3
f 168/4/3 164/4/3 167/4/3
f 169/3/4 170/3/4 171/3/4
f 171/3/4 170/3/4 172/3/4
f 173/3/4 174/3/4 175/3/4
f 175/3/4 174/3/4 176/3/4
f 177/3/4 178/3/4 179/3/4
f 179/3/4 178/3/4 180/3/4
f 181/1/4 182/1/4 184/1/4
f 183/1/4 184/1/4 185/1/4
f 184/1/4 182/1/4 186/1/4
f 185/1/4 184/1/4 186/1/4
f 187/1/4 188/1/4 190/1/4
f 189/1/4 190/1/4 191/1/4
f 190/1/4 188/1/4 192/1/4
f 191/1/4 190/1/4 192/1/4
f 193/3/4 194/3/4 196/3/4
f 195/3/4 196/3/4 198/3/4
f 198/3/4 196/3/4 199/3/4
f 196/3/4 194/3/4 200/3/4
f 199/3/4 196/3/4 200/3/4
f 198/3/4 199/3/4 201/3/4
f 197/3/4 198/3/4 201/3/4
f 201/3/4 199/3/4 202/3/4
f 202/3/4 199/3/4 203/3/4
f 200/3/4 194/3/4 204/3/4
f 202/3/4 203/3/4 205/3/4
f 203/3/4 204/3/4 205/3/4
f 204/3/4 194/3/4 206/3/4
f 205/3/4 204/3/4 206/3/4
f 206/3/4 194/3/4 207/3/4
f 207/3/4 194/3/4 208/3/4
f 209/5/4 210/5/4 213/5/4
f 213/5/4 210/5/4 214/5/4
f 211/5/4 212/5/4 215/5/4
f 215/5/4 212/5/4 216/5/4
f 217/4/4 218/4/4 219/4/4
f 219/4/4 218/4/4 220/4/4
f 223/3/5 222/3/5 221/3/5
f 224/3/5 222/3/5 223/3/5
f 227/3/5 226/3/5 225/3/5
f 228/3/5 226/3/5 227/3/5
f 231/5/5 230/5/5 229/5/5
f 232/5/5 230/5/5 231/5/5
f 236/3/5 234/3/5 233/3/5
f 237/3/5 234/3/5 236/3/5
f 239/3/5 236/3/5 235/3/5
f 240/3/5 238/3/5 237/3/5
f 241/3/5 239/3/5 235/3/5
f 241/3/5 240/3/5 239/3/5
f 242/3/5 238/3/5 240/3/5
f 242/3/5 240/3/5 241/3/5
f 243/3/5 241/3/5 235/3/5
f 244/3/5 241/3/5 243/3/5
f 245/3/5 238/3/5 242/3/5
f 246/3/5 238/3/5 245/3/5
f 249/3/5 248/3/5 247/3/5
f 250/3/5 248/3/5 249/3/5
f 255/3/5 252/3/5 251/3/5
f 256/3/5 252/3/5 255/3/5
f 259/3/5 258/3/5 257/3/5
f 260/3/5 258/3/5 259/3/5
f 261/3/5 254/3/5 253/3/5
f 262/3/5 254/3/5 261/3/5
f 265/4/5 264/4/5 263/4/5
f 266/4/5 264/4/5 265/4/5
f 269/1/5 268/1/5 267/1/5
f 271/1/5 269/1/5 267/1/5
f 271/1/5 270/1/5 269/1/5
f 272/1/5 270/1/5 271/1/5
f 273/1/5 271/1/5 267/1/5
f 274/1/5 271/1/5 273/1/5
f 277/4/5 276/4/5 275/4/5
f 278/4/5 276/4/5 277/4/5
f 281/3/5 280/3/5 279/3/5
f 282/3/5 280/3/5 281/3/5
f 283/3/6 284/3/6 285/3/6
f 285/3/6 284/3/6 286/3/6
f 287/3/6 288/3/6 289/3/6
f 289/3/6 288/3/6 290/3/6
f 291/3/6 292/3/6 293/3/6
f 293/3/6 292/3/6 294/3/6
f 295/3/6 296/3/6 297/3/6
f 297/3/6 296/3/6 298/3/6
f 299/4/6 300/4/6 301/4/6
f 301/4/6 300/4/6 302/4/6
f 303/3/6 304/3/6 305/3/6
f 305/3/6 304/3/6 306/3/6
f 307/3/6 308/3/6 309/3/6
f 309/3/6 308/3/6 310/3/6
f 311/5/6 312/5/6 313/5/6
f 313/5/6 312/5/6 314/5/6
f 315/4/6 316/4/6 317/4/6
f 317/4/6 316/4/6 318/4/6
f 319/1/6 320/1/6 321/1/6
f 321/1/6 320/1/6 322/1/6
f 319/1/6 321/1/6 323/1/6
f 319/1/6 323/1/6 325/1/6
f 323/1/6 324/1/6 325/1/6
f 325/1/6 324/1/6 326/1/6
f 327/1/6 328/1/6 329/1/6
f 329/1/6 328/1/6 330/1/6
