# MagicaVoxel @ Ephtracy

# group
o 

# material
mtllib SwordPlayer - bodyOnly.mtl
usemtl palette

# normals
vn -1 0 0
vn 1 0 0
vn 0 0 1
vn 0 0 -1
vn 0 -1 0
vn 0 1 0

# texcoords
vt 0.0566406 0.5
vt 0.599609 0.5
vt 0.642578 0.5

# verts
v 0.5 2.4 -0.8
v 0.5 2.4 -0.9
v 0.5 2.5 -0.4
v 0.5 2.5 -0.6
v 0.5 2.5 -0.7
v 0.5 2.5 -0.8
v 0.5 2.7 -0.5
v 0.5 2.7 -0.6
v 0.5 2.7 -0.7
v 0.5 2.7 -0.8
v 0.5 2.8 -0.5
v 0.5 2.8 -0.8
v 0.5 2.9 -0.4
v 0.5 2.9 -0.5
v 0.5 2.9 -0.8
v 0.5 2.9 -0.9
v 0.5 3 -0.5
v 0.5 3 -0.8
v 0.6 2.3 -0.4
v 0.6 2.3 -0.9
v 0.6 2.4 -0.8
v 0.6 2.4 -0.9
v 0.6 2.5 -0.4
v 0.6 2.5 -0.6
v 0.6 2.5 -0.7
v 0.6 2.5 -0.8
v 0.6 2.7 -0.5
v 0.6 2.7 -0.6
v 0.6 2.7 -0.7
v 0.6 2.7 -0.8
v 0.6 2.8 -0.5
v 0.6 2.8 -0.8
v 0.6 3 -0.6
v 0.6 3 -0.7
v 0.6 3.1 -0.6
v 0.6 3.1 -0.7
v 0.7 2.1 -0.4
v 0.7 2.1 -0.5
v 0.7 2.1 -0.8
v 0.7 2.1 -0.9
v 0.7 2.3 -0.3
v 0.7 2.3 -0.4
v 0.7 2.3 -0.5
v 0.7 2.3 -0.8
v 0.7 2.3 -0.9
v 0.7 2.5 -0.3
v 0.7 2.5 -0.4
v 0.8 2.1 -0.4
v 0.8 2.1 -0.5
v 0.8 2.1 -0.8
v 0.8 2.1 -0.9
v 0.8 2.3 -0.3
v 0.8 2.3 -0.4
v 0.8 2.3 -0.5
v 0.8 2.3 -0.8
v 0.8 2.3 -0.9
v 0.8 2.5 -0.3
v 0.8 2.5 -0.4
v 0.9 2.3 -0.4
v 0.9 2.3 -0.9
v 0.9 2.5 -0.4
v 0.9 2.5 -0.9
v 1 2.5 -0.4
v 1 2.5 -0.9
v 1 2.6 -0.5
v 1 2.6 -0.8
v 1 2.9 -0.4
v 1 2.9 -0.5
v 1 2.9 -0.8
v 1 2.9 -0.9
v 1.1 2.6 -0.5
v 1.1 2.6 -0.6
v 1.1 2.6 -0.7
v 1.1 2.6 -0.8
v 1.1 3 -0.5
v 1.1 3 -0.6
v 1.1 3 -0.7
v 1.1 3 -0.8
v 1.2 2.6 -0.6
v 1.2 2.6 -0.7
v 1.2 3.1 -0.6
v 1.2 3.1 -0.7
v 0.7 2.3 -0.3
v 0.7 2.5 -0.3
v 0.8 2.3 -0.3
v 0.8 2.5 -0.3
v 0.5 2.5 -0.4
v 0.5 2.9 -0.4
v 0.6 2.3 -0.4
v 0.6 2.5 -0.4
v 0.7 2.1 -0.4
v 0.7 2.3 -0.4
v 0.7 2.5 -0.4
v 0.8 2.1 -0.4
v 0.8 2.3 -0.4
v 0.8 2.5 -0.4
v 0.9 2.3 -0.4
v 0.9 2.5 -0.4
v 1 2.5 -0.4
v 1 2.9 -0.4
v 0.5 2.9 -0.5
v 0.5 3 -0.5
v 1 2.6 -0.5
v 1 2.9 -0.5
v 1.1 2.6 -0.5
v 1.1 3 -0.5
v 0.6 3 -0.6
v 0.6 3.1 -0.6
v 1.1 2.6 -0.6
v 1.1 3 -0.6
v 1.2 2.6 -0.6
v 1.2 3.1 -0.6
v 0.5 2.5 -0.7
v 0.5 2.7 -0.7
v 0.6 2.5 -0.7
v 0.6 2.7 -0.7
v 0.5 2.4 -0.8
v 0.5 2.5 -0.8
v 0.5 2.7 -0.8
v 0.5 2.8 -0.8
v 0.6 2.4 -0.8
v 0.6 2.5 -0.8
v 0.6 2.7 -0.8
v 0.6 2.8 -0.8
v 0.7 2.1 -0.8
v 0.7 2.3 -0.8
v 0.8 2.1 -0.8
v 0.8 2.3 -0.8
v 0.5 2.7 -0.5
v 0.5 2.8 -0.5
v 0.6 2.7 -0.5
v 0.6 2.8 -0.5
v 0.7 2.1 -0.5
v 0.7 2.3 -0.5
v 0.8 2.1 -0.5
v 0.8 2.3 -0.5
v 0.5 2.5 -0.6
v 0.5 2.7 -0.6
v 0.6 2.5 -0.6
v 0.6 2.7 -0.6
v 0.6 3 -0.7
v 0.6 3.1 -0.7
v 1.1 2.6 -0.7
v 1.1 3 -0.7
v 1.2 2.6 -0.7
v 1.2 3.1 -0.7
v 0.5 2.9 -0.8
v 0.5 3 -0.8
v 1 2.6 -0.8
v 1 2.9 -0.8
v 1.1 2.6 -0.8
v 1.1 3 -0.8
v 0.5 2.4 -0.9
v 0.5 2.9 -0.9
v 0.6 2.3 -0.9
v 0.6 2.4 -0.9
v 0.7 2.1 -0.9
v 0.7 2.3 -0.9
v 0.8 2.1 -0.9
v 0.8 2.3 -0.9
v 0.9 2.3 -0.9
v 0.9 2.5 -0.9
v 1 2.5 -0.9
v 1 2.9 -0.9
v 0.7 2.1 -0.4
v 0.8 2.1 -0.4
v 0.7 2.1 -0.5
v 0.8 2.1 -0.5
v 0.7 2.1 -0.8
v 0.8 2.1 -0.8
v 0.7 2.1 -0.9
v 0.8 2.1 -0.9
v 0.7 2.3 -0.3
v 0.8 2.3 -0.3
v 0.6 2.3 -0.4
v 0.7 2.3 -0.4
v 0.8 2.3 -0.4
v 0.9 2.3 -0.4
v 0.7 2.3 -0.5
v 0.8 2.3 -0.5
v 0.7 2.3 -0.8
v 0.8 2.3 -0.8
v 0.6 2.3 -0.9
v 0.7 2.3 -0.9
v 0.8 2.3 -0.9
v 0.9 2.3 -0.9
v 0.5 2.4 -0.8
v 0.6 2.4 -0.8
v 0.5 2.4 -0.9
v 0.6 2.4 -0.9
v 0.5 2.5 -0.4
v 0.6 2.5 -0.4
v 0.9 2.5 -0.4
v 1 2.5 -0.4
v 0.5 2.5 -0.6
v 0.6 2.5 -0.6
v 0.5 2.5 -0.7
v 0.6 2.5 -0.7
v 0.5 2.5 -0.8
v 0.6 2.5 -0.8
v 0.9 2.5 -0.9
v 1 2.5 -0.9
v 1 2.6 -0.5
v 1.1 2.6 -0.5
v 1.1 2.6 -0.6
v 1.2 2.6 -0.6
v 1.1 2.6 -0.7
v 1.2 2.6 -0.7
v 1 2.6 -0.8
v 1.1 2.6 -0.8
v 0.5 2.8 -0.5
v 0.6 2.8 -0.5
v 0.5 2.8 -0.8
v 0.6 2.8 -0.8
v 0.7 2.5 -0.3
v 0.8 2.5 -0.3
v 0.7 2.5 -0.4
v 0.8 2.5 -0.4
v 0.5 2.7 -0.5
v 0.6 2.7 -0.5
v 0.5 2.7 -0.6
v 0.6 2.7 -0.6
v 0.5 2.7 -0.7
v 0.6 2.7 -0.7
v 0.5 2.7 -0.8
v 0.6 2.7 -0.8
v 0.5 2.9 -0.4
v 1 2.9 -0.4
v 0.5 2.9 -0.5
v 1 2.9 -0.5
v 0.5 2.9 -0.8
v 1 2.9 -0.8
v 0.5 2.9 -0.9
v 1 2.9 -0.9
v 0.5 3 -0.5
v 1.1 3 -0.5
v 0.6 3 -0.6
v 1.1 3 -0.6
v 0.6 3 -0.7
v 1.1 3 -0.7
v 0.5 3 -0.8
v 1.1 3 -0.8
v 0.6 3.1 -0.6
v 1.2 3.1 -0.6
v 0.6 3.1 -0.7
v 1.2 3.1 -0.7

# faces
f 6/3/1 2/3/1 1/3/1
f 7/3/1 4/3/1 3/3/1
f 8/3/1 4/3/1 7/3/1
f 9/3/1 6/3/1 5/3/1
f 10/3/1 2/3/1 6/3/1
f 10/3/1 6/3/1 9/3/1
f 11/3/1 7/3/1 3/3/1
f 12/3/1 2/3/1 10/3/1
f 13/3/1 11/3/1 3/3/1
f 13/3/1 12/3/1 11/3/1
f 14/3/1 12/3/1 13/3/1
f 15/3/1 2/3/1 12/3/1
f 15/3/1 12/3/1 14/3/1
f 16/3/1 2/3/1 15/3/1
f 17/1/1 15/1/1 14/1/1
f 18/1/1 15/1/1 17/1/1
f 21/3/1 20/3/1 19/3/1
f 22/3/1 20/3/1 21/3/1
f 23/3/1 21/3/1 19/3/1
f 24/3/1 21/3/1 23/3/1
f 25/3/1 21/3/1 24/3/1
f 26/3/1 21/3/1 25/3/1
f 28/2/1 25/2/1 24/2/1
f 29/2/1 25/2/1 28/2/1
f 31/2/1 28/2/1 27/2/1
f 31/2/1 30/2/1 29/2/1
f 31/2/1 29/2/1 28/2/1
f 32/2/1 30/2/1 31/2/1
f 35/1/1 34/1/1 33/1/1
f 36/1/1 34/1/1 35/1/1
f 42/3/1 38/3/1 37/3/1
f 43/3/1 38/3/1 42/3/1
f 44/3/1 40/3/1 39/3/1
f 45/3/1 40/3/1 44/3/1
f 46/3/1 42/3/1 41/3/1
f 47/3/1 42/3/1 46/3/1
f 48/3/2 49/3/2 53/3/2
f 53/3/2 49/3/2 54/3/2
f 50/3/2 51/3/2 55/3/2
f 55/3/2 51/3/2 56/3/2
f 52/3/2 53/3/2 57/3/2
f 57/3/2 53/3/2 58/3/2
f 59/3/2 60/3/2 61/3/2
f 61/3/2 60/3/2 62/3/2
f 63/3/2 64/3/2 65/3/2
f 65/3/2 64/3/2 66/3/2
f 63/3/2 65/3/2 67/3/2
f 67/3/2 65/3/2 68/3/2
f 66/3/2 64/3/2 69/3/2
f 69/3/2 64/3/2 70/3/2
f 71/1/2 72/1/2 75/1/2
f 75/1/2 72/1/2 76/1/2
f 73/1/2 74/1/2 77/1/2
f 77/1/2 74/1/2 78/1/2
f 79/1/2 80/1/2 81/1/2
f 81/1/2 80/1/2 82/1/2
f 85/3/3 84/3/3 83/3/3
f 86/3/3 84/3/3 85/3/3
f 90/3/3 88/3/3 87/3/3
f 92/3/3 90/3/3 89/3/3
f 93/3/3 88/3/3 90/3/3
f 93/3/3 90/3/3 92/3/3
f 94/3/3 92/3/3 91/3/3
f 95/3/3 92/3/3 94/3/3
f 96/3/3 88/3/3 93/3/3
f 97/3/3 96/3/3 95/3/3
f 98/3/3 88/3/3 96/3/3
f 98/3/3 96/3/3 97/3/3
f 99/3/3 88/3/3 98/3/3
f 100/3/3 88/3/3 99/3/3
f 104/1/3 102/1/3 101/1/3
f 105/1/3 104/1/3 103/1/3
f 106/1/3 102/1/3 104/1/3
f 106/1/3 104/1/3 105/1/3
f 110/1/3 108/1/3 107/1/3
f 111/1/3 110/1/3 109/1/3
f 112/1/3 108/1/3 110/1/3
f 112/1/3 110/1/3 111/1/3
f 115/3/3 114/3/3 113/3/3
f 116/3/3 114/3/3 115/3/3
f 121/3/3 118/3/3 117/3/3
f 122/3/3 118/3/3 121/3/3
f 123/3/3 120/3/3 119/3/3
f 124/3/3 120/3/3 123/3/3
f 127/3/3 126/3/3 125/3/3
f 128/3/3 126/3/3 127/3/3
f 129/3/4 130/3/4 131/3/4
f 131/3/4 130/3/4 132/3/4
f 133/3/4 134/3/4 135/3/4
f 135/3/4 134/3/4 136/3/4
f 137/3/4 138/3/4 139/3/4
f 139/3/4 138/3/4 140/3/4
f 141/1/4 142/1/4 144/1/4
f 143/1/4 144/1/4 145/1/4
f 144/1/4 142/1/4 146/1/4
f 145/1/4 144/1/4 146/1/4
f 147/1/4 148/1/4 150/1/4
f 149/1/4 150/1/4 151/1/4
f 150/1/4 148/1/4 152/1/4
f 151/1/4 150/1/4 152/1/4
f 153/3/4 154/3/4 156/3/4
f 155/3/4 156/3/4 158/3/4
f 157/3/4 158/3/4 159/3/4
f 158/3/4 156/3/4 160/3/4
f 159/3/4 158/3/4 160/3/4
f 160/3/4 156/3/4 161/3/4
f 156/3/4 154/3/4 162/3/4
f 161/3/4 156/3/4 162/3/4
f 162/3/4 154/3/4 163/3/4
f 163/3/4 154/3/4 164/3/4
f 167/3/5 166/3/5 165/3/5
f 168/3/5 166/3/5 167/3/5
f 171/3/5 170/3/5 169/3/5
f 172/3/5 170/3/5 171/3/5
f 176/3/5 174/3/5 173/3/5
f 177/3/5 174/3/5 176/3/5
f 179/3/5 176/3/5 175/3/5
f 180/3/5 178/3/5 177/3/5
f 181/3/5 179/3/5 175/3/5
f 181/3/5 180/3/5 179/3/5
f 182/3/5 178/3/5 180/3/5
f 182/3/5 180/3/5 181/3/5
f 183/3/5 181/3/5 175/3/5
f 184/3/5 181/3/5 183/3/5
f 185/3/5 178/3/5 182/3/5
f 186/3/5 178/3/5 185/3/5
f 189/3/5 188/3/5 187/3/5
f 190/3/5 188/3/5 189/3/5
f 195/3/5 192/3/5 191/3/5
f 196/3/5 192/3/5 195/3/5
f 199/3/5 198/3/5 197/3/5
f 200/3/5 198/3/5 199/3/5
f 201/3/5 194/3/5 193/3/5
f 202/3/5 194/3/5 201/3/5
f 205/1/5 204/1/5 203/1/5
f 207/1/5 205/1/5 203/1/5
f 207/1/5 206/1/5 205/1/5
f 208/1/5 206/1/5 207/1/5
f 209/1/5 207/1/5 203/1/5
f 210/1/5 207/1/5 209/1/5
f 213/3/5 212/3/5 211/3/5
f 214/3/5 212/3/5 213/3/5
f 215/3/6 216/3/6 217/3/6
f 217/3/6 216/3/6 218/3/6
f 219/3/6 220/3/6 221/3/6
f 221/3/6 220/3/6 222/3/6
f 223/3/6 224/3/6 225/3/6
f 225/3/6 224/3/6 226/3/6
f 227/3/6 228/3/6 229/3/6
f 229/3/6 228/3/6 230/3/6
f 231/3/6 232/3/6 233/3/6
f 233/3/6 232/3/6 234/3/6
f 235/1/6 236/1/6 237/1/6
f 237/1/6 236/1/6 238/1/6
f 235/1/6 237/1/6 239/1/6
f 235/1/6 239/1/6 241/1/6
f 239/1/6 240/1/6 241/1/6
f 241/1/6 240/1/6 242/1/6
f 243/1/6 244/1/6 245/1/6
f 245/1/6 244/1/6 246/1/6
