# MagicaVoxel @ Ephtracy

# group
o 

# material
mtllib swordAndHand.mtl
usemtl palette

# normals
vn -1 0 0
vn 1 0 0
vn 0 0 1
vn 0 0 -1
vn 0 -1 0
vn 0 1 0

# texcoords
vt 0.369141 0.5
vt 0.501953 0.5
vt 0.533203 0.5
vt 0.537109 0.5
vt 0.548828 0.5
vt 0.771484 0.5
vt 0.970703 0.5
vt 0.974609 0.5
vt 0.978516 0.5
vt 0.982422 0.5

# verts
v 1.1 1.4 -1
v 1.1 1.4 -1.1
v 1.1 1.5 -1
v 1.1 1.5 -1.1
v 1.2 1.3 -1
v 1.2 1.3 -1.1
v 1.2 1.4 -0.9
v 1.2 1.4 -1
v 1.2 1.4 -1.1
v 1.2 1.4 -1.2
v 1.2 1.5 -0.9
v 1.2 1.5 -1
v 1.2 1.5 -1.1
v 1.2 1.5 -1.2
v 1.2 1.6 -1
v 1.2 1.6 -1.1
v 1.2 2 -1
v 1.2 2 -1.2
v 1.5 1.2 -1
v 1.5 1.2 -1.1
v 1.5 1.4 -1
v 1.5 1.4 -1.1
v 1.5 1.5 -1
v 1.5 1.5 -1.1
v 1.5 1.7 -1
v 1.5 1.7 -1.1
v 1.6 1.1 -1
v 1.6 1.1 -1.1
v 1.6 1.2 -1
v 1.6 1.2 -1.1
v 1.6 1.7 -1
v 1.6 1.7 -1.1
v 1.6 1.8 -1
v 1.6 1.8 -1.1
v 1.3 1.3 -1
v 1.3 1.3 -1.1
v 1.3 1.4 -0.9
v 1.3 1.4 -1
v 1.3 1.4 -1.1
v 1.3 1.4 -1.2
v 1.3 1.5 -0.9
v 1.3 1.5 -1
v 1.3 1.5 -1.1
v 1.3 1.5 -1.2
v 1.4 1.5 -1
v 1.4 1.5 -1.1
v 1.4 1.5 -1.2
v 1.4 2 -1
v 1.4 2 -1.2
v 1.7 1.1 -1
v 1.7 1.1 -1.1
v 1.7 1.3 -1
v 1.7 1.3 -1.1
v 1.7 1.6 -1
v 1.7 1.6 -1.1
v 1.7 1.8 -1
v 1.7 1.8 -1.1
v 2.7 1.3 -1
v 2.7 1.3 -1.1
v 2.7 1.4 -1
v 2.7 1.4 -1.1
v 2.7 1.5 -1
v 2.7 1.5 -1.1
v 2.7 1.6 -1
v 2.7 1.6 -1.1
v 2.8 1.4 -1
v 2.8 1.4 -1.1
v 2.8 1.5 -1
v 2.8 1.5 -1.1
v 1.2 1.4 -0.9
v 1.2 1.5 -0.9
v 1.3 1.4 -0.9
v 1.3 1.5 -0.9
v 1.1 1.4 -1
v 1.1 1.5 -1
v 1.2 1.3 -1
v 1.2 1.4 -1
v 1.2 1.5 -1
v 1.2 1.6 -1
v 1.2 2 -1
v 1.3 1.3 -1
v 1.3 1.4 -1
v 1.3 1.5 -1
v 1.3 1.6 -1
v 1.4 1.5 -1
v 1.4 2 -1
v 1.5 1.2 -1
v 1.5 1.4 -1
v 1.5 1.5 -1
v 1.5 1.7 -1
v 1.6 1.1 -1
v 1.6 1.2 -1
v 1.6 1.3 -1
v 1.6 1.4 -1
v 1.6 1.5 -1
v 1.6 1.6 -1
v 1.6 1.7 -1
v 1.6 1.8 -1
v 1.7 1.1 -1
v 1.7 1.3 -1
v 1.7 1.6 -1
v 1.7 1.8 -1
v 2 1.4 -1
v 2 1.5 -1
v 2.6 1.4 -1
v 2.6 1.5 -1
v 2.7 1.3 -1
v 2.7 1.4 -1
v 2.7 1.5 -1
v 2.7 1.6 -1
v 2.8 1.4 -1
v 2.8 1.5 -1
v 1.1 1.4 -1.1
v 1.1 1.5 -1.1
v 1.2 1.3 -1.1
v 1.2 1.4 -1.1
v 1.2 1.5 -1.1
v 1.3 1.3 -1.1
v 1.3 1.4 -1.1
v 1.3 1.5 -1.1
v 1.4 1.5 -1.1
v 1.5 1.2 -1.1
v 1.5 1.4 -1.1
v 1.5 1.5 -1.1
v 1.5 1.7 -1.1
v 1.6 1.1 -1.1
v 1.6 1.2 -1.1
v 1.6 1.3 -1.1
v 1.6 1.4 -1.1
v 1.6 1.5 -1.1
v 1.6 1.6 -1.1
v 1.6 1.7 -1.1
v 1.6 1.8 -1.1
v 1.7 1.1 -1.1
v 1.7 1.3 -1.1
v 1.7 1.6 -1.1
v 1.7 1.8 -1.1
v 2 1.4 -1.1
v 2 1.5 -1.1
v 2.6 1.4 -1.1
v 2.6 1.5 -1.1
v 2.7 1.3 -1.1
v 2.7 1.4 -1.1
v 2.7 1.5 -1.1
v 2.7 1.6 -1.1
v 2.8 1.4 -1.1
v 2.8 1.5 -1.1
v 1.2 1.4 -1.2
v 1.2 1.5 -1.2
v 1.2 2 -1.2
v 1.3 1.4 -1.2
v 1.3 1.5 -1.2
v 1.4 1.5 -1.2
v 1.4 2 -1.2
v 1.6 1.1 -1
v 1.7 1.1 -1
v 1.6 1.1 -1.1
v 1.7 1.1 -1.1
v 1.5 1.2 -1
v 1.6 1.2 -1
v 1.5 1.2 -1.1
v 1.6 1.2 -1.1
v 1.2 1.3 -1
v 1.3 1.3 -1
v 1.7 1.3 -1
v 2.7 1.3 -1
v 1.2 1.3 -1.1
v 1.3 1.3 -1.1
v 1.7 1.3 -1.1
v 2.7 1.3 -1.1
v 1.2 1.4 -0.9
v 1.3 1.4 -0.9
v 1.1 1.4 -1
v 1.2 1.4 -1
v 1.3 1.4 -1
v 1.5 1.4 -1
v 2.7 1.4 -1
v 2.8 1.4 -1
v 1.1 1.4 -1.1
v 1.2 1.4 -1.1
v 1.3 1.4 -1.1
v 1.5 1.4 -1.1
v 2.7 1.4 -1.1
v 2.8 1.4 -1.1
v 1.2 1.4 -1.2
v 1.3 1.4 -1.2
v 1.3 1.5 -1.1
v 1.4 1.5 -1.1
v 1.3 1.5 -1.2
v 1.4 1.5 -1.2
v 1.2 1.5 -0.9
v 1.3 1.5 -0.9
v 1.1 1.5 -1
v 1.2 1.5 -1
v 1.3 1.5 -1
v 1.4 1.5 -1
v 1.5 1.5 -1
v 2.7 1.5 -1
v 2.8 1.5 -1
v 1.1 1.5 -1.1
v 1.2 1.5 -1.1
v 1.4 1.5 -1.1
v 1.5 1.5 -1.1
v 2.7 1.5 -1.1
v 2.8 1.5 -1.1
v 1.7 1.6 -1
v 2.7 1.6 -1
v 1.7 1.6 -1.1
v 2.7 1.6 -1.1
v 1.5 1.7 -1
v 1.6 1.7 -1
v 1.5 1.7 -1.1
v 1.6 1.7 -1.1
v 1.6 1.8 -1
v 1.7 1.8 -1
v 1.6 1.8 -1.1
v 1.7 1.8 -1.1
v 1.2 2 -1
v 1.4 2 -1
v 1.2 2 -1.2
v 1.4 2 -1.2

# faces
f 3/5/1 2/5/1 1/5/1
f 4/5/1 2/5/1 3/5/1
f 8/2/1 6/2/1 5/2/1
f 9/2/1 6/2/1 8/2/1
f 11/2/1 8/2/1 7/2/1
f 12/2/1 8/2/1 11/2/1
f 13/2/1 10/2/1 9/2/1
f 14/2/1 10/2/1 13/2/1
f 15/2/1 13/2/1 12/2/1
f 16/6/1 14/6/1 13/6/1
f 16/2/1 13/2/1 15/2/1
f 17/6/1 16/6/1 15/6/1
f 18/6/1 14/6/1 16/6/1
f 18/6/1 16/6/1 17/6/1
f 21/1/1 20/1/1 19/1/1
f 22/1/1 20/1/1 21/1/1
f 25/1/1 24/1/1 23/1/1
f 26/1/1 24/1/1 25/1/1
f 29/1/1 28/1/1 27/1/1
f 30/1/1 28/1/1 29/1/1
f 33/1/1 32/1/1 31/1/1
f 34/1/1 32/1/1 33/1/1
f 35/2/2 36/2/2 38/2/2
f 38/2/2 36/2/2 39/2/2
f 37/2/2 38/2/2 41/2/2
f 41/2/2 38/2/2 42/2/2
f 39/2/2 40/2/2 43/2/2
f 43/2/2 40/2/2 44/2/2
f 45/6/2 46/6/2 48/6/2
f 46/6/2 47/6/2 48/6/2
f 48/6/2 47/6/2 49/6/2
f 50/1/2 51/1/2 52/1/2
f 52/1/2 51/1/2 53/1/2
f 54/1/2 55/1/2 56/1/2
f 56/1/2 55/1/2 57/1/2
f 58/8/2 59/8/2 60/8/2
f 60/8/2 59/8/2 61/8/2
f 62/8/2 63/8/2 64/8/2
f 64/8/2 63/8/2 65/8/2
f 66/8/2 67/8/2 68/8/2
f 68/8/2 67/8/2 69/8/2
f 72/2/3 71/2/3 70/2/3
f 73/2/3 71/2/3 72/2/3
f 77/5/3 75/5/3 74/5/3
f 78/5/3 75/5/3 77/5/3
f 81/2/3 77/2/3 76/2/3
f 82/2/3 77/2/3 81/2/3
f 83/2/3 79/2/3 78/2/3
f 84/6/3 80/6/3 79/6/3
f 84/2/3 79/2/3 83/2/3
f 85/3/3 83/3/3 82/3/3
f 85/6/3 84/6/3 83/6/3
f 86/6/3 80/6/3 84/6/3
f 86/6/3 84/6/3 85/6/3
f 88/3/3 85/3/3 82/3/3
f 89/3/3 85/3/3 88/3/3
f 92/1/3 88/1/3 87/1/3
f 92/1/3 90/1/3 89/1/3
f 92/1/3 89/1/3 88/1/3
f 93/1/3 90/1/3 92/1/3
f 94/1/3 90/1/3 93/1/3
f 95/1/3 90/1/3 94/1/3
f 96/1/3 90/1/3 95/1/3
f 97/1/3 90/1/3 96/1/3
f 99/1/3 92/1/3 91/1/3
f 99/1/3 93/1/3 92/1/3
f 100/8/3 94/8/3 93/8/3
f 100/1/3 93/1/3 99/1/3
f 101/1/3 98/1/3 97/1/3
f 101/1/3 97/1/3 96/1/3
f 101/8/3 96/8/3 95/8/3
f 102/1/3 98/1/3 101/1/3
f 103/8/3 94/8/3 100/8/3
f 103/10/3 95/10/3 94/10/3
f 104/8/3 101/8/3 95/8/3
f 104/10/3 95/10/3 103/10/3
f 105/8/3 103/8/3 100/8/3
f 105/9/3 104/9/3 103/9/3
f 106/8/3 101/8/3 104/8/3
f 106/9/3 104/9/3 105/9/3
f 107/8/3 105/8/3 100/8/3
f 108/7/3 106/7/3 105/7/3
f 108/8/3 105/8/3 107/8/3
f 109/8/3 101/8/3 106/8/3
f 109/7/3 106/7/3 108/7/3
f 110/8/3 101/8/3 109/8/3
f 111/8/3 109/8/3 108/8/3
f 112/8/3 109/8/3 111/8/3
f 113/5/4 114/5/4 116/5/4
f 116/5/4 114/5/4 117/5/4
f 115/2/4 116/2/4 118/2/4
f 118/2/4 116/2/4 119/2/4
f 119/3/4 120/3/4 121/3/4
f 119/3/4 121/3/4 123/3/4
f 123/3/4 121/3/4 124/3/4
f 123/1/4 124/1/4 127/1/4
f 124/1/4 125/1/4 127/1/4
f 122/1/4 123/1/4 127/1/4
f 127/1/4 125/1/4 128/1/4
f 128/1/4 125/1/4 129/1/4
f 129/1/4 125/1/4 130/1/4
f 130/1/4 125/1/4 131/1/4
f 131/1/4 125/1/4 132/1/4
f 126/1/4 127/1/4 134/1/4
f 127/1/4 128/1/4 134/1/4
f 128/8/4 129/8/4 135/8/4
f 134/1/4 128/1/4 135/1/4
f 132/1/4 133/1/4 136/1/4
f 131/1/4 132/1/4 136/1/4
f 130/8/4 131/8/4 136/8/4
f 136/1/4 133/1/4 137/1/4
f 135/8/4 129/8/4 138/8/4
f 129/10/4 130/10/4 138/10/4
f 130/8/4 136/8/4 139/8/4
f 138/10/4 130/10/4 139/10/4
f 135/8/4 138/8/4 140/8/4
f 138/9/4 139/9/4 140/9/4
f 139/8/4 136/8/4 141/8/4
f 140/9/4 139/9/4 141/9/4
f 135/8/4 140/8/4 142/8/4
f 140/7/4 141/7/4 143/7/4
f 142/8/4 140/8/4 143/8/4
f 141/8/4 136/8/4 144/8/4
f 143/7/4 141/7/4 144/7/4
f 144/8/4 136/8/4 145/8/4
f 143/8/4 144/8/4 146/8/4
f 146/8/4 144/8/4 147/8/4
f 148/2/4 149/2/4 151/2/4
f 149/6/4 150/6/4 152/6/4
f 151/2/4 149/2/4 152/2/4
f 152/6/4 150/6/4 153/6/4
f 153/6/4 150/6/4 154/6/4
f 157/1/5 156/1/5 155/1/5
f 158/1/5 156/1/5 157/1/5
f 161/1/5 160/1/5 159/1/5
f 162/1/5 160/1/5 161/1/5
f 167/2/5 164/2/5 163/2/5
f 168/2/5 164/2/5 167/2/5
f 169/8/5 166/8/5 165/8/5
f 170/8/5 166/8/5 169/8/5
f 174/2/5 172/2/5 171/2/5
f 175/2/5 172/2/5 174/2/5
f 179/5/5 174/5/5 173/5/5
f 180/5/5 174/5/5 179/5/5
f 181/3/5 176/3/5 175/3/5
f 182/3/5 176/3/5 181/3/5
f 183/8/5 178/8/5 177/8/5
f 184/8/5 178/8/5 183/8/5
f 185/2/5 181/2/5 180/2/5
f 186/2/5 181/2/5 185/2/5
f 189/6/5 188/6/5 187/6/5
f 190/6/5 188/6/5 189/6/5
f 191/2/6 192/2/6 194/2/6
f 194/2/6 192/2/6 195/2/6
f 193/5/6 194/5/6 200/5/6
f 200/5/6 194/5/6 201/5/6
f 196/3/6 197/3/6 202/3/6
f 202/3/6 197/3/6 203/3/6
f 198/8/6 199/8/6 204/8/6
f 204/8/6 199/8/6 205/8/6
f 206/8/6 207/8/6 208/8/6
f 208/8/6 207/8/6 209/8/6
f 210/1/6 211/1/6 212/1/6
f 212/1/6 211/1/6 213/1/6
f 214/1/6 215/1/6 216/1/6
f 216/1/6 215/1/6 217/1/6
f 218/6/6 219/6/6 220/6/6
f 220/6/6 219/6/6 221/6/6
