# MagicaVoxel @ Ephtracy

# group
o 

# material
mtllib Light.mtl
usemtl palette

# normals
vn -1 0 0
vn 1 0 0
vn 0 0 1
vn 0 0 -1
vn 0 -1 0
vn 0 1 0

# texcoords
vt 0.146484 0.5
vt 0.208984 0.5
vt 0.431641 0.5
vt 0.974609 0.5
vt 0.978516 0.5

# verts
v -2 0 1.5
v -2 0 1.4
v -2 0.6 1.5
v -2 0.6 1.4
v -1.9 0.3 1.6
v -1.9 0.3 1.5
v -1.9 0.4 1.6
v -1.9 0.4 1.5
v -1.8 0.1 1.9
v -1.8 0.1 1.8
v -1.8 0.1 1.6
v -1.8 0.1 1.5
v -1.8 0.3 1.9
v -1.8 0.3 1.8
v -1.8 0.3 1.6
v -1.8 0.3 1.5
v -1.8 0.4 1.9
v -1.8 0.4 1.8
v -1.8 0.4 1.6
v -1.8 0.5 1.9
v -1.8 0.5 1.8
v -1.8 0.6 1.9
v -1.8 0.6 1.8
v -1.6 0.1 1.9
v -1.6 0.1 1.8
v -1.6 0.1 1.6
v -1.6 0.1 1.5
v -1.6 0.3 1.9
v -1.6 0.3 1.8
v -1.6 0.3 1.6
v -1.6 0.3 1.5
v -1.6 0.4 1.9
v -1.6 0.4 1.8
v -1.6 0.4 1.6
v -1.6 0.5 1.9
v -1.6 0.5 1.8
v -1.6 0.6 1.9
v -1.6 0.6 1.8
v -1.5 0.3 1.6
v -1.5 0.3 1.5
v -1.5 0.4 1.6
v -1.5 0.4 1.5
v -1.4 0 1.5
v -1.4 0 1.4
v -1.4 0.6 1.5
v -1.4 0.6 1.4
v -1.8 0.1 1.9
v -1.8 0.3 1.9
v -1.8 0.4 1.9
v -1.8 0.5 1.9
v -1.8 0.6 1.9
v -1.6 0.1 1.9
v -1.6 0.3 1.9
v -1.6 0.4 1.9
v -1.6 0.5 1.9
v -1.6 0.6 1.9
v -1.9 0.3 1.6
v -1.9 0.4 1.6
v -1.8 0.1 1.6
v -1.8 0.3 1.6
v -1.8 0.4 1.6
v -1.6 0.1 1.6
v -1.6 0.3 1.6
v -1.6 0.4 1.6
v -1.5 0.3 1.6
v -1.5 0.4 1.6
v -2 0 1.5
v -2 0.6 1.5
v -1.9 0.3 1.5
v -1.9 0.4 1.5
v -1.8 0.1 1.5
v -1.8 0.3 1.5
v -1.6 0.1 1.5
v -1.6 0.3 1.5
v -1.5 0.3 1.5
v -1.5 0.4 1.5
v -1.4 0 1.5
v -1.4 0.6 1.5
v -1.8 0.1 1.8
v -1.8 0.3 1.8
v -1.8 0.4 1.8
v -1.8 0.5 1.8
v -1.8 0.6 1.8
v -1.6 0.1 1.8
v -1.6 0.3 1.8
v -1.6 0.4 1.8
v -1.6 0.5 1.8
v -1.6 0.6 1.8
v -2 0 1.4
v -2 0.6 1.4
v -1.4 0 1.4
v -1.4 0.6 1.4
v -2 0 1.5
v -1.4 0 1.5
v -2 0 1.4
v -1.4 0 1.4
v -1.8 0.1 1.9
v -1.6 0.1 1.9
v -1.8 0.1 1.8
v -1.6 0.1 1.8
v -1.8 0.1 1.6
v -1.6 0.1 1.6
v -1.8 0.1 1.5
v -1.6 0.1 1.5
v -1.8 0.3 1.8
v -1.6 0.3 1.8
v -1.9 0.3 1.6
v -1.8 0.3 1.6
v -1.6 0.3 1.6
v -1.5 0.3 1.6
v -1.9 0.3 1.5
v -1.8 0.3 1.5
v -1.6 0.3 1.5
v -1.5 0.3 1.5
v -1.8 0.4 1.8
v -1.6 0.4 1.8
v -1.9 0.4 1.6
v -1.8 0.4 1.6
v -1.6 0.4 1.6
v -1.5 0.4 1.6
v -1.9 0.4 1.5
v -1.5 0.4 1.5
v -1.8 0.6 1.9
v -1.6 0.6 1.9
v -1.8 0.6 1.8
v -1.6 0.6 1.8
v -2 0.6 1.5
v -1.4 0.6 1.5
v -2 0.6 1.4
v -1.4 0.6 1.4

# faces
f 3/5/1 2/5/1 1/5/1
f 4/5/1 2/5/1 3/5/1
f 7/4/1 6/4/1 5/4/1
f 8/4/1 6/4/1 7/4/1
f 13/4/1 10/4/1 9/4/1
f 14/4/1 10/4/1 13/4/1
f 15/4/1 12/4/1 11/4/1
f 16/4/1 12/4/1 15/4/1
f 17/1/1 14/1/1 13/1/1
f 18/4/1 15/4/1 14/4/1
f 18/1/1 14/1/1 17/1/1
f 19/4/1 15/4/1 18/4/1
f 20/2/1 18/2/1 17/2/1
f 21/2/1 18/2/1 20/2/1
f 22/3/1 21/3/1 20/3/1
f 23/3/1 21/3/1 22/3/1
f 24/4/2 25/4/2 28/4/2
f 28/4/2 25/4/2 29/4/2
f 26/4/2 27/4/2 30/4/2
f 30/4/2 27/4/2 31/4/2
f 28/1/2 29/1/2 32/1/2
f 29/4/2 30/4/2 33/4/2
f 32/1/2 29/1/2 33/1/2
f 33/4/2 30/4/2 34/4/2
f 32/2/2 33/2/2 35/2/2
f 35/2/2 33/2/2 36/2/2
f 35/3/2 36/3/2 37/3/2
f 37/3/2 36/3/2 38/3/2
f 39/4/2 40/4/2 41/4/2
f 41/4/2 40/4/2 42/4/2
f 43/5/2 44/5/2 45/5/2
f 45/5/2 44/5/2 46/5/2
f 52/4/3 48/4/3 47/4/3
f 53/1/3 49/1/3 48/1/3
f 53/4/3 48/4/3 52/4/3
f 54/2/3 50/2/3 49/2/3
f 54/1/3 49/1/3 53/1/3
f 55/3/3 51/3/3 50/3/3
f 55/2/3 50/2/3 54/2/3
f 56/3/3 51/3/3 55/3/3
f 60/4/3 58/4/3 57/4/3
f 61/4/3 58/4/3 60/4/3
f 62/4/3 60/4/3 59/4/3
f 63/4/3 60/4/3 62/4/3
f 65/4/3 64/4/3 63/4/3
f 66/4/3 64/4/3 65/4/3
f 69/5/3 68/5/3 67/5/3
f 70/5/3 68/5/3 69/5/3
f 71/5/3 69/5/3 67/5/3
f 72/5/3 69/5/3 71/5/3
f 73/5/3 71/5/3 67/5/3
f 75/5/3 74/5/3 73/5/3
f 76/5/3 68/5/3 70/5/3
f 77/5/3 75/5/3 73/5/3
f 77/5/3 76/5/3 75/5/3
f 77/5/3 73/5/3 67/5/3
f 78/5/3 68/5/3 76/5/3
f 78/5/3 76/5/3 77/5/3
f 79/4/4 80/4/4 84/4/4
f 84/4/4 80/4/4 85/4/4
f 81/2/4 82/2/4 86/2/4
f 82/3/4 83/3/4 87/3/4
f 86/2/4 82/2/4 87/2/4
f 87/3/4 83/3/4 88/3/4
f 89/5/4 90/5/4 91/5/4
f 91/5/4 90/5/4 92/5/4
f 95/5/5 94/5/5 93/5/5
f 96/5/5 94/5/5 95/5/5
f 99/4/5 98/4/5 97/4/5
f 100/4/5 98/4/5 99/4/5
f 103/4/5 102/4/5 101/4/5
f 104/4/5 102/4/5 103/4/5
f 108/4/5 106/4/5 105/4/5
f 109/4/5 106/4/5 108/4/5
f 111/4/5 108/4/5 107/4/5
f 112/4/5 108/4/5 111/4/5
f 113/4/5 110/4/5 109/4/5
f 114/4/5 110/4/5 113/4/5
f 115/4/6 116/4/6 118/4/6
f 118/4/6 116/4/6 119/4/6
f 117/4/6 118/4/6 121/4/6
f 119/4/6 120/4/6 121/4/6
f 118/4/6 119/4/6 121/4/6
f 121/4/6 120/4/6 122/4/6
f 123/3/6 124/3/6 125/3/6
f 125/3/6 124/3/6 126/3/6
f 127/5/6 128/5/6 129/5/6
f 129/5/6 128/5/6 130/5/6
