# MagicaVoxel @ Ephtracy

# group
o 

# material
mtllib standingLamp.mtl
usemtl palette

# normals
vn -1 0 0
vn 1 0 0
vn 0 0 1
vn 0 0 -1
vn 0 -1 0
vn 0 1 0

# texcoords
vt 0.970703 0.5
vt 0.974609 0.5
vt 0.978516 0.5
vt 0.982422 0.5
vt 0.986328 0.5

# verts
v 0 2 -0.4
v 0 2 -0.5
v 0 2.1 -0.4
v 0 2.1 -0.5
v 0.1 2.1 -0.4
v 0.1 2.1 -0.5
v 0.1 2.2 -0.4
v 0.1 2.2 -0.5
v 0.2 2.2 -0.4
v 0.2 2.2 -0.5
v 0.2 2.3 -0.4
v 0.2 2.3 -0.5
v 0.2 3.1 -0.4
v 0.2 3.1 -0.5
v 0.2 3.4 -0.4
v 0.2 3.4 -0.5
v 0.3 3 -0.4
v 0.3 3 -0.5
v 0.3 3.1 -0.3
v 0.3 3.1 -0.4
v 0.3 3.1 -0.5
v 0.3 3.1 -0.6
v 0.3 3.2 -0.3
v 0.3 3.2 -0.4
v 0.3 3.2 -0.5
v 0.3 3.2 -0.6
v 0.3 3.3 -0.3
v 0.3 3.3 -0.4
v 0.3 3.3 -0.5
v 0.3 3.3 -0.6
v 0.3 3.4 -0.3
v 0.3 3.4 -0.4
v 0.3 3.4 -0.5
v 0.3 3.4 -0.6
v 0.3 3.5 -0.3
v 0.3 3.5 -0.6
v 0.3 3.6 -0.3
v 0.3 3.6 -0.6
v 0.4 2 0
v 0.4 2 -0.2
v 0.4 2 -0.7
v 0.4 2 -0.9
v 0.4 2.1 0
v 0.4 2.1 -0.1
v 0.4 2.1 -0.2
v 0.4 2.1 -0.3
v 0.4 2.1 -0.6
v 0.4 2.1 -0.7
v 0.4 2.1 -0.8
v 0.4 2.1 -0.9
v 0.4 2.2 -0.1
v 0.4 2.2 -0.2
v 0.4 2.2 -0.3
v 0.4 2.2 -0.4
v 0.4 2.2 -0.5
v 0.4 2.2 -0.6
v 0.4 2.2 -0.7
v 0.4 2.2 -0.8
v 0.4 2.3 -0.2
v 0.4 2.3 -0.4
v 0.4 2.3 -0.5
v 0.4 2.3 -0.7
v 0.4 3 -0.3
v 0.4 3 -0.4
v 0.4 3 -0.5
v 0.4 3 -0.6
v 0.4 3.1 -0.2
v 0.4 3.1 -0.3
v 0.4 3.1 -0.4
v 0.4 3.1 -0.5
v 0.4 3.1 -0.6
v 0.4 3.1 -0.7
v 0.4 3.2 -0.3
v 0.4 3.2 -0.6
v 0.4 3.3 -0.3
v 0.4 3.3 -0.6
v 0.4 3.4 -0.2
v 0.4 3.4 -0.3
v 0.4 3.4 -0.6
v 0.4 3.4 -0.7
v 0.6 2.1 -0.4
v 0.6 2.1 -0.5
v 0.6 2.2 -0.4
v 0.6 2.2 -0.5
v 0.7 2 -0.4
v 0.7 2 -0.5
v 0.7 2.1 -0.4
v 0.7 2.1 -0.5
v 0.2 2 -0.4
v 0.2 2 -0.5
v 0.2 2.1 -0.4
v 0.2 2.1 -0.5
v 0.3 2.1 -0.4
v 0.3 2.1 -0.5
v 0.3 2.2 -0.4
v 0.3 2.2 -0.5
v 0.5 2 0
v 0.5 2 -0.2
v 0.5 2 -0.7
v 0.5 2 -0.9
v 0.5 2.1 0
v 0.5 2.1 -0.1
v 0.5 2.1 -0.2
v 0.5 2.1 -0.3
v 0.5 2.1 -0.6
v 0.5 2.1 -0.7
v 0.5 2.1 -0.8
v 0.5 2.1 -0.9
v 0.5 2.2 -0.1
v 0.5 2.2 -0.2
v 0.5 2.2 -0.3
v 0.5 2.2 -0.4
v 0.5 2.2 -0.5
v 0.5 2.2 -0.6
v 0.5 2.2 -0.7
v 0.5 2.2 -0.8
v 0.5 2.3 -0.2
v 0.5 2.3 -0.4
v 0.5 2.3 -0.5
v 0.5 2.3 -0.7
v 0.5 3 -0.3
v 0.5 3 -0.4
v 0.5 3 -0.5
v 0.5 3 -0.6
v 0.5 3.1 -0.2
v 0.5 3.1 -0.3
v 0.5 3.1 -0.4
v 0.5 3.1 -0.5
v 0.5 3.1 -0.6
v 0.5 3.1 -0.7
v 0.5 3.2 -0.3
v 0.5 3.2 -0.6
v 0.5 3.3 -0.3
v 0.5 3.3 -0.6
v 0.5 3.4 -0.2
v 0.5 3.4 -0.3
v 0.5 3.4 -0.6
v 0.5 3.4 -0.7
v 0.6 3 -0.4
v 0.6 3 -0.5
v 0.6 3.1 -0.3
v 0.6 3.1 -0.4
v 0.6 3.1 -0.5
v 0.6 3.1 -0.6
v 0.6 3.2 -0.3
v 0.6 3.2 -0.4
v 0.6 3.2 -0.5
v 0.6 3.2 -0.6
v 0.6 3.3 -0.3
v 0.6 3.3 -0.4
v 0.6 3.3 -0.5
v 0.6 3.3 -0.6
v 0.6 3.4 -0.3
v 0.6 3.4 -0.4
v 0.6 3.4 -0.5
v 0.6 3.4 -0.6
v 0.6 3.5 -0.3
v 0.6 3.5 -0.6
v 0.6 3.6 -0.3
v 0.6 3.6 -0.6
v 0.7 2.2 -0.4
v 0.7 2.2 -0.5
v 0.7 2.3 -0.4
v 0.7 2.3 -0.5
v 0.7 3.1 -0.4
v 0.7 3.1 -0.5
v 0.7 3.4 -0.4
v 0.7 3.4 -0.5
v 0.8 2.1 -0.4
v 0.8 2.1 -0.5
v 0.8 2.2 -0.4
v 0.8 2.2 -0.5
v 0.9 2 -0.4
v 0.9 2 -0.5
v 0.9 2.1 -0.4
v 0.9 2.1 -0.5
v 0.4 2 0
v 0.4 2.1 0
v 0.5 2 0
v 0.5 2.1 0
v 0.4 2.1 -0.1
v 0.4 2.2 -0.1
v 0.5 2.1 -0.1
v 0.5 2.2 -0.1
v 0.4 2.2 -0.2
v 0.4 2.3 -0.2
v 0.4 3.1 -0.2
v 0.4 3.4 -0.2
v 0.5 2.2 -0.2
v 0.5 2.3 -0.2
v 0.5 3.1 -0.2
v 0.5 3.4 -0.2
v 0.3 3.1 -0.3
v 0.3 3.2 -0.3
v 0.3 3.3 -0.3
v 0.3 3.4 -0.3
v 0.3 3.5 -0.3
v 0.3 3.6 -0.3
v 0.4 3 -0.3
v 0.4 3.1 -0.3
v 0.4 3.2 -0.3
v 0.4 3.3 -0.3
v 0.4 3.4 -0.3
v 0.5 3 -0.3
v 0.5 3.1 -0.3
v 0.5 3.2 -0.3
v 0.5 3.3 -0.3
v 0.5 3.4 -0.3
v 0.6 3.1 -0.3
v 0.6 3.2 -0.3
v 0.6 3.3 -0.3
v 0.6 3.4 -0.3
v 0.6 3.5 -0.3
v 0.6 3.6 -0.3
v 0 2 -0.4
v 0 2.1 -0.4
v 0.1 2.1 -0.4
v 0.1 2.2 -0.4
v 0.2 2 -0.4
v 0.2 2.1 -0.4
v 0.2 2.2 -0.4
v 0.2 2.3 -0.4
v 0.2 3.1 -0.4
v 0.2 3.4 -0.4
v 0.3 2.1 -0.4
v 0.3 2.2 -0.4
v 0.3 3 -0.4
v 0.3 3.1 -0.4
v 0.3 3.2 -0.4
v 0.3 3.3 -0.4
v 0.3 3.4 -0.4
v 0.4 2.2 -0.4
v 0.4 2.3 -0.4
v 0.4 3 -0.4
v 0.4 3.1 -0.4
v 0.5 2.2 -0.4
v 0.5 2.3 -0.4
v 0.5 3 -0.4
v 0.5 3.1 -0.4
v 0.6 2.1 -0.4
v 0.6 2.2 -0.4
v 0.6 3 -0.4
v 0.6 3.1 -0.4
v 0.6 3.2 -0.4
v 0.6 3.3 -0.4
v 0.6 3.4 -0.4
v 0.7 2 -0.4
v 0.7 2.1 -0.4
v 0.7 2.2 -0.4
v 0.7 2.3 -0.4
v 0.7 3.1 -0.4
v 0.7 3.4 -0.4
v 0.8 2.1 -0.4
v 0.8 2.2 -0.4
v 0.9 2 -0.4
v 0.9 2.1 -0.4
v 0.4 2.1 -0.6
v 0.4 2.2 -0.6
v 0.5 2.1 -0.6
v 0.5 2.2 -0.6
v 0.4 2 -0.7
v 0.4 2.1 -0.7
v 0.5 2 -0.7
v 0.5 2.1 -0.7
v 0.4 2 -0.2
v 0.4 2.1 -0.2
v 0.5 2 -0.2
v 0.5 2.1 -0.2
v 0.4 2.1 -0.3
v 0.4 2.2 -0.3
v 0.5 2.1 -0.3
v 0.5 2.2 -0.3
v 0 2 -0.5
v 0 2.1 -0.5
v 0.1 2.1 -0.5
v 0.1 2.2 -0.5
v 0.2 2 -0.5
v 0.2 2.1 -0.5
v 0.2 2.2 -0.5
v 0.2 2.3 -0.5
v 0.2 3.1 -0.5
v 0.2 3.4 -0.5
v 0.3 2.1 -0.5
v 0.3 2.2 -0.5
v 0.3 3 -0.5
v 0.3 3.1 -0.5
v 0.3 3.2 -0.5
v 0.3 3.3 -0.5
v 0.3 3.4 -0.5
v 0.4 2.2 -0.5
v 0.4 2.3 -0.5
v 0.4 3 -0.5
v 0.4 3.1 -0.5
v 0.5 2.2 -0.5
v 0.5 2.3 -0.5
v 0.5 3 -0.5
v 0.5 3.1 -0.5
v 0.6 2.1 -0.5
v 0.6 2.2 -0.5
v 0.6 3 -0.5
v 0.6 3.1 -0.5
v 0.6 3.2 -0.5
v 0.6 3.3 -0.5
v 0.6 3.4 -0.5
v 0.7 2 -0.5
v 0.7 2.1 -0.5
v 0.7 2.2 -0.5
v 0.7 2.3 -0.5
v 0.7 3.1 -0.5
v 0.7 3.4 -0.5
v 0.8 2.1 -0.5
v 0.8 2.2 -0.5
v 0.9 2 -0.5
v 0.9 2.1 -0.5
v 0.3 3.1 -0.6
v 0.3 3.2 -0.6
v 0.3 3.3 -0.6
v 0.3 3.4 -0.6
v 0.3 3.5 -0.6
v 0.3 3.6 -0.6
v 0.4 3 -0.6
v 0.4 3.1 -0.6
v 0.4 3.2 -0.6
v 0.4 3.3 -0.6
v 0.4 3.4 -0.6
v 0.5 3 -0.6
v 0.5 3.1 -0.6
v 0.5 3.2 -0.6
v 0.5 3.3 -0.6
v 0.5 3.4 -0.6
v 0.6 3.1 -0.6
v 0.6 3.2 -0.6
v 0.6 3.3 -0.6
v 0.6 3.4 -0.6
v 0.6 3.5 -0.6
v 0.6 3.6 -0.6
v 0.4 2.2 -0.7
v 0.4 2.3 -0.7
v 0.4 3.1 -0.7
v 0.4 3.4 -0.7
v 0.5 2.2 -0.7
v 0.5 2.3 -0.7
v 0.5 3.1 -0.7
v 0.5 3.4 -0.7
v 0.4 2.1 -0.8
v 0.4 2.2 -0.8
v 0.5 2.1 -0.8
v 0.5 2.2 -0.8
v 0.4 2 -0.9
v 0.4 2.1 -0.9
v 0.5 2 -0.9
v 0.5 2.1 -0.9
v 0.4 2 0
v 0.5 2 0
v 0.4 2 -0.2
v 0.5 2 -0.2
v 0 2 -0.4
v 0.2 2 -0.4
v 0.7 2 -0.4
v 0.9 2 -0.4
v 0 2 -0.5
v 0.2 2 -0.5
v 0.7 2 -0.5
v 0.9 2 -0.5
v 0.4 2 -0.7
v 0.5 2 -0.7
v 0.4 2 -0.9
v 0.5 2 -0.9
v 0.4 2.1 -0.2
v 0.5 2.1 -0.2
v 0.4 2.1 -0.3
v 0.5 2.1 -0.3
v 0.2 2.1 -0.4
v 0.3 2.1 -0.4
v 0.6 2.1 -0.4
v 0.7 2.1 -0.4
v 0.2 2.1 -0.5
v 0.3 2.1 -0.5
v 0.6 2.1 -0.5
v 0.7 2.1 -0.5
v 0.4 2.1 -0.6
v 0.5 2.1 -0.6
v 0.4 2.1 -0.7
v 0.5 2.1 -0.7
v 0.4 2.2 -0.3
v 0.5 2.2 -0.3
v 0.3 2.2 -0.4
v 0.4 2.2 -0.4
v 0.5 2.2 -0.4
v 0.6 2.2 -0.4
v 0.3 2.2 -0.5
v 0.4 2.2 -0.5
v 0.5 2.2 -0.5
v 0.6 2.2 -0.5
v 0.4 2.2 -0.6
v 0.5 2.2 -0.6
v 0.4 3 -0.3
v 0.5 3 -0.3
v 0.3 3 -0.4
v 0.4 3 -0.4
v 0.5 3 -0.4
v 0.6 3 -0.4
v 0.3 3 -0.5
v 0.4 3 -0.5
v 0.5 3 -0.5
v 0.6 3 -0.5
v 0.4 3 -0.6
v 0.5 3 -0.6
v 0.4 3.1 -0.2
v 0.5 3.1 -0.2
v 0.3 3.1 -0.3
v 0.4 3.1 -0.3
v 0.5 3.1 -0.3
v 0.6 3.1 -0.3
v 0.2 3.1 -0.4
v 0.3 3.1 -0.4
v 0.4 3.1 -0.4
v 0.5 3.1 -0.4
v 0.6 3.1 -0.4
v 0.7 3.1 -0.4
v 0.2 3.1 -0.5
v 0.3 3.1 -0.5
v 0.4 3.1 -0.5
v 0.5 3.1 -0.5
v 0.6 3.1 -0.5
v 0.7 3.1 -0.5
v 0.3 3.1 -0.6
v 0.4 3.1 -0.6
v 0.5 3.1 -0.6
v 0.6 3.1 -0.6
v 0.4 3.1 -0.7
v 0.5 3.1 -0.7
v 0.4 2.1 0
v 0.5 2.1 0
v 0.4 2.1 -0.1
v 0.5 2.1 -0.1
v 0 2.1 -0.4
v 0.1 2.1 -0.4
v 0.8 2.1 -0.4
v 0.9 2.1 -0.4
v 0 2.1 -0.5
v 0.1 2.1 -0.5
v 0.8 2.1 -0.5
v 0.9 2.1 -0.5
v 0.4 2.1 -0.8
v 0.5 2.1 -0.8
v 0.4 2.1 -0.9
v 0.5 2.1 -0.9
v 0.4 2.2 -0.1
v 0.5 2.2 -0.1
v 0.4 2.2 -0.2
v 0.5 2.2 -0.2
v 0.1 2.2 -0.4
v 0.2 2.2 -0.4
v 0.7 2.2 -0.4
v 0.8 2.2 -0.4
v 0.1 2.2 -0.5
v 0.2 2.2 -0.5
v 0.7 2.2 -0.5
v 0.8 2.2 -0.5
v 0.4 2.2 -0.7
v 0.5 2.2 -0.7
v 0.4 2.2 -0.8
v 0.5 2.2 -0.8
v 0.4 2.3 -0.2
v 0.5 2.3 -0.2
v 0.2 2.3 -0.4
v 0.4 2.3 -0.4
v 0.5 2.3 -0.4
v 0.7 2.3 -0.4
v 0.2 2.3 -0.5
v 0.4 2.3 -0.5
v 0.5 2.3 -0.5
v 0.7 2.3 -0.5
v 0.4 2.3 -0.7
v 0.5 2.3 -0.7
v 0.4 3.4 -0.2
v 0.5 3.4 -0.2
v 0.4 3.4 -0.3
v 0.5 3.4 -0.3
v 0.2 3.4 -0.4
v 0.3 3.4 -0.4
v 0.6 3.4 -0.4
v 0.7 3.4 -0.4
v 0.2 3.4 -0.5
v 0.3 3.4 -0.5
v 0.6 3.4 -0.5
v 0.7 3.4 -0.5
v 0.4 3.4 -0.6
v 0.5 3.4 -0.6
v 0.4 3.4 -0.7
v 0.5 3.4 -0.7
v 0.3 3.6 -0.3
v 0.6 3.6 -0.3
v 0.3 3.6 -0.6
v 0.6 3.6 -0.6

# faces
f 3/5/1 2/5/1 1/5/1
f 4/5/1 2/5/1 3/5/1
f 7/5/1 6/5/1 5/5/1
f 8/5/1 6/5/1 7/5/1
f 11/5/1 10/5/1 9/5/1
f 12/5/1 10/5/1 11/5/1
f 15/5/1 14/5/1 13/5/1
f 16/5/1 14/5/1 15/5/1
f 20/5/1 18/5/1 17/5/1
f 21/5/1 18/5/1 20/5/1
f 23/5/1 20/5/1 19/5/1
f 24/5/1 20/5/1 23/5/1
f 25/5/1 22/5/1 21/5/1
f 26/5/1 22/5/1 25/5/1
f 27/1/1 24/1/1 23/1/1
f 28/1/1 24/1/1 27/1/1
f 29/1/1 26/1/1 25/1/1
f 30/1/1 26/1/1 29/1/1
f 31/2/1 28/2/1 27/2/1
f 32/2/1 28/2/1 31/2/1
f 33/2/1 30/2/1 29/2/1
f 34/2/1 30/2/1 33/2/1
f 35/3/1 32/3/1 31/3/1
f 35/3/1 33/3/1 32/3/1
f 35/3/1 34/3/1 33/3/1
f 36/3/1 34/3/1 35/3/1
f 37/4/1 36/4/1 35/4/1
f 38/4/1 36/4/1 37/4/1
f 43/5/1 40/5/1 39/5/1
f 44/5/1 40/5/1 43/5/1
f 45/5/1 40/5/1 44/5/1
f 48/5/1 42/5/1 41/5/1
f 49/5/1 42/5/1 48/5/1
f 50/5/1 42/5/1 49/5/1
f 51/5/1 46/5/1 45/5/1
f 51/5/1 45/5/1 44/5/1
f 52/5/1 46/5/1 51/5/1
f 53/5/1 46/5/1 52/5/1
f 56/5/1 49/5/1 48/5/1
f 56/5/1 48/5/1 47/5/1
f 57/5/1 49/5/1 56/5/1
f 58/5/1 49/5/1 57/5/1
f 59/5/1 54/5/1 53/5/1
f 59/5/1 53/5/1 52/5/1
f 60/5/1 54/5/1 59/5/1
f 61/5/1 57/5/1 56/5/1
f 61/5/1 56/5/1 55/5/1
f 62/5/1 57/5/1 61/5/1
f 64/5/1 61/5/1 60/5/1
f 65/5/1 61/5/1 64/5/1
f 68/5/1 64/5/1 63/5/1
f 69/5/1 64/5/1 68/5/1
f 70/5/1 66/5/1 65/5/1
f 71/5/1 66/5/1 70/5/1
f 73/5/1 68/5/1 67/5/1
f 74/5/1 72/5/1 71/5/1
f 75/5/1 73/5/1 67/5/1
f 76/5/1 72/5/1 74/5/1
f 77/5/1 75/5/1 67/5/1
f 78/5/1 75/5/1 77/5/1
f 79/5/1 72/5/1 76/5/1
f 80/5/1 72/5/1 79/5/1
f 83/5/1 82/5/1 81/5/1
f 84/5/1 82/5/1 83/5/1
f 87/5/1 86/5/1 85/5/1
f 88/5/1 86/5/1 87/5/1
f 89/5/2 90/5/2 91/5/2
f 91/5/2 90/5/2 92/5/2
f 93/5/2 94/5/2 95/5/2
f 95/5/2 94/5/2 96/5/2
f 97/5/2 98/5/2 101/5/2
f 101/5/2 98/5/2 102/5/2
f 102/5/2 98/5/2 103/5/2
f 99/5/2 100/5/2 106/5/2
f 106/5/2 100/5/2 107/5/2
f 107/5/2 100/5/2 108/5/2
f 103/5/2 104/5/2 109/5/2
f 102/5/2 103/5/2 109/5/2
f 109/5/2 104/5/2 110/5/2
f 110/5/2 104/5/2 111/5/2
f 106/5/2 107/5/2 114/5/2
f 105/5/2 106/5/2 114/5/2
f 114/5/2 107/5/2 115/5/2
f 115/5/2 107/5/2 116/5/2
f 111/5/2 112/5/2 117/5/2
f 110/5/2 111/5/2 117/5/2
f 117/5/2 112/5/2 118/5/2
f 114/5/2 115/5/2 119/5/2
f 113/5/2 114/5/2 119/5/2
f 119/5/2 115/5/2 120/5/2
f 118/5/2 119/5/2 122/5/2
f 122/5/2 119/5/2 123/5/2
f 121/5/2 122/5/2 126/5/2
f 126/5/2 122/5/2 127/5/2
f 123/5/2 124/5/2 128/5/2
f 128/5/2 124/5/2 129/5/2
f 125/5/2 126/5/2 131/5/2
f 129/5/2 130/5/2 132/5/2
f 125/5/2 131/5/2 133/5/2
f 132/5/2 130/5/2 134/5/2
f 125/5/2 133/5/2 135/5/2
f 135/5/2 133/5/2 136/5/2
f 134/5/2 130/5/2 137/5/2
f 137/5/2 130/5/2 138/5/2
f 139/5/2 140/5/2 142/5/2
f 142/5/2 140/5/2 143/5/2
f 141/5/2 142/5/2 145/5/2
f 145/5/2 142/5/2 146/5/2
f 143/5/2 144/5/2 147/5/2
f 147/5/2 144/5/2 148/5/2
f 145/1/2 146/1/2 149/1/2
f 149/1/2 146/1/2 150/1/2
f 147/1/2 148/1/2 151/1/2
f 151/1/2 148/1/2 152/1/2
f 149/2/2 150/2/2 153/2/2
f 153/2/2 150/2/2 154/2/2
f 151/2/2 152/2/2 155/2/2
f 155/2/2 152/2/2 156/2/2
f 153/3/2 154/3/2 157/3/2
f 154/3/2 155/3/2 157/3/2
f 155/3/2 156/3/2 157/3/2
f 157/3/2 156/3/2 158/3/2
f 157/4/2 158/4/2 159/4/2
f 159/4/2 158/4/2 160/4/2
f 161/5/2 162/5/2 163/5/2
f 163/5/2 162/5/2 164/5/2
f 165/5/2 166/5/2 167/5/2
f 167/5/2 166/5/2 168/5/2
f 169/5/2 170/5/2 171/5/2
f 171/5/2 170/5/2 172/5/2
f 173/5/2 174/5/2 175/5/2
f 175/5/2 174/5/2 176/5/2
f 179/5/3 178/5/3 177/5/3
f 180/5/3 178/5/3 179/5/3
f 183/5/3 182/5/3 181/5/3
f 184/5/3 182/5/3 183/5/3
f 189/5/3 186/5/3 185/5/3
f 190/5/3 186/5/3 189/5/3
f 191/5/3 188/5/3 187/5/3
f 192/5/3 188/5/3 191/5/3
f 200/5/3 194/5/3 193/5/3
f 201/1/3 195/1/3 194/1/3
f 201/5/3 194/5/3 200/5/3
f 202/2/3 196/2/3 195/2/3
f 202/1/3 195/1/3 201/1/3
f 203/3/3 197/3/3 196/3/3
f 203/2/3 196/2/3 202/2/3
f 204/5/3 200/5/3 199/5/3
f 205/5/3 200/5/3 204/5/3
f 208/3/3 197/3/3 203/3/3
f 209/5/3 206/5/3 205/5/3
f 210/1/3 207/1/3 206/1/3
f 210/5/3 206/5/3 209/5/3
f 211/2/3 208/2/3 207/2/3
f 211/1/3 207/1/3 210/1/3
f 212/3/3 197/3/3 208/3/3
f 212/2/3 208/2/3 211/2/3
f 213/4/3 198/4/3 197/4/3
f 213/3/3 197/3/3 212/3/3
f 214/4/3 198/4/3 213/4/3
f 217/5/3 216/5/3 215/5/3
f 219/5/3 217/5/3 215/5/3
f 219/5/3 218/5/3 217/5/3
f 220/5/3 218/5/3 219/5/3
f 221/5/3 218/5/3 220/5/3
f 225/5/3 221/5/3 220/5/3
f 225/5/3 222/5/3 221/5/3
f 226/5/3 222/5/3 225/5/3
f 228/5/3 224/5/3 223/5/3
f 229/5/3 224/5/3 228/5/3
f 230/5/3 224/5/3 229/5/3
f 231/5/3 224/5/3 230/5/3
f 232/5/3 222/5/3 226/5/3
f 233/5/3 222/5/3 232/5/3
f 234/5/3 228/5/3 227/5/3
f 235/5/3 228/5/3 234/5/3
f 237/5/3 234/5/3 233/5/3
f 238/5/3 234/5/3 237/5/3
f 241/5/3 237/5/3 236/5/3
f 242/5/3 239/5/3 238/5/3
f 243/5/3 239/5/3 242/5/3
f 248/5/3 241/5/3 240/5/3
f 249/5/3 237/5/3 241/5/3
f 249/5/3 241/5/3 248/5/3
f 250/5/3 237/5/3 249/5/3
f 251/5/3 246/5/3 245/5/3
f 251/5/3 245/5/3 244/5/3
f 251/5/3 244/5/3 243/5/3
f 252/5/3 246/5/3 251/5/3
f 253/5/3 249/5/3 248/5/3
f 253/5/3 248/5/3 247/5/3
f 254/5/3 249/5/3 253/5/3
f 255/5/3 253/5/3 247/5/3
f 256/5/3 253/5/3 255/5/3
f 259/5/3 258/5/3 257/5/3
f 260/5/3 258/5/3 259/5/3
f 263/5/3 262/5/3 261/5/3
f 264/5/3 262/5/3 263/5/3
f 265/5/4 266/5/4 267/5/4
f 267/5/4 266/5/4 268/5/4
f 269/5/4 270/5/4 271/5/4
f 271/5/4 270/5/4 272/5/4
f 273/5/4 274/5/4 275/5/4
f 273/5/4 275/5/4 277/5/4
f 275/5/4 276/5/4 277/5/4
f 277/5/4 276/5/4 278/5/4
f 278/5/4 276/5/4 279/5/4
f 278/5/4 279/5/4 283/5/4
f 279/5/4 280/5/4 283/5/4
f 283/5/4 280/5/4 284/5/4
f 281/5/4 282/5/4 286/5/4
f 286/5/4 282/5/4 287/5/4
f 287/5/4 282/5/4 288/5/4
f 288/5/4 282/5/4 289/5/4
f 284/5/4 280/5/4 290/5/4
f 290/5/4 280/5/4 291/5/4
f 285/5/4 286/5/4 292/5/4
f 292/5/4 286/5/4 293/5/4
f 291/5/4 292/5/4 295/5/4
f 295/5/4 292/5/4 296/5/4
f 294/5/4 295/5/4 299/5/4
f 296/5/4 297/5/4 300/5/4
f 300/5/4 297/5/4 301/5/4
f 298/5/4 299/5/4 306/5/4
f 299/5/4 295/5/4 307/5/4
f 306/5/4 299/5/4 307/5/4
f 307/5/4 295/5/4 308/5/4
f 303/5/4 304/5/4 309/5/4
f 302/5/4 303/5/4 309/5/4
f 301/5/4 302/5/4 309/5/4
f 309/5/4 304/5/4 310/5/4
f 306/5/4 307/5/4 311/5/4
f 305/5/4 306/5/4 311/5/4
f 311/5/4 307/5/4 312/5/4
f 305/5/4 311/5/4 313/5/4
f 313/5/4 311/5/4 314/5/4
f 315/5/4 316/5/4 322/5/4
f 316/1/4 317/1/4 323/1/4
f 322/5/4 316/5/4 323/5/4
f 317/2/4 318/2/4 324/2/4
f 323/1/4 317/1/4 324/1/4
f 318/3/4 319/3/4 325/3/4
f 324/2/4 318/2/4 325/2/4
f 321/5/4 322/5/4 326/5/4
f 326/5/4 322/5/4 327/5/4
f 325/3/4 319/3/4 330/3/4
f 327/5/4 328/5/4 331/5/4
f 328/1/4 329/1/4 332/1/4
f 331/5/4 328/5/4 332/5/4
f 329/2/4 330/2/4 333/2/4
f 332/1/4 329/1/4 333/1/4
f 330/3/4 319/3/4 334/3/4
f 333/2/4 330/2/4 334/2/4
f 319/4/4 320/4/4 335/4/4
f 334/3/4 319/3/4 335/3/4
f 335/4/4 320/4/4 336/4/4
f 337/5/4 338/5/4 341/5/4
f 341/5/4 338/5/4 342/5/4
f 339/5/4 340/5/4 343/5/4
f 343/5/4 340/5/4 344/5/4
f 345/5/4 346/5/4 347/5/4
f 347/5/4 346/5/4 348/5/4
f 349/5/4 350/5/4 351/5/4
f 351/5/4 350/5/4 352/5/4
f 355/5/5 354/5/5 353/5/5
f 356/5/5 354/5/5 355/5/5
f 361/5/5 358/5/5 357/5/5
f 362/5/5 358/5/5 361/5/5
f 363/5/5 360/5/5 359/5/5
f 364/5/5 360/5/5 363/5/5
f 367/5/5 366/5/5 365/5/5
f 368/5/5 366/5/5 367/5/5
f 371/5/5 370/5/5 369/5/5
f 372/5/5 370/5/5 371/5/5
f 377/5/5 374/5/5 373/5/5
f 378/5/5 374/5/5 377/5/5
f 379/5/5 376/5/5 375/5/5
f 380/5/5 376/5/5 379/5/5
f 383/5/5 382/5/5 381/5/5
f 384/5/5 382/5/5 383/5/5
f 388/5/5 386/5/5 385/5/5
f 389/5/5 386/5/5 388/5/5
f 391/5/5 388/5/5 387/5/5
f 391/5/5 390/5/5 389/5/5
f 391/5/5 389/5/5 388/5/5
f 392/5/5 390/5/5 391/5/5
f 393/5/5 390/5/5 392/5/5
f 394/5/5 390/5/5 393/5/5
f 395/5/5 393/5/5 392/5/5
f 396/5/5 393/5/5 395/5/5
f 400/5/5 398/5/5 397/5/5
f 401/5/5 398/5/5 400/5/5
f 403/5/5 400/5/5 399/5/5
f 404/5/5 400/5/5 403/5/5
f 405/5/5 402/5/5 401/5/5
f 406/5/5 402/5/5 405/5/5
f 407/5/5 405/5/5 404/5/5
f 408/5/5 405/5/5 407/5/5
f 412/5/5 410/5/5 409/5/5
f 413/5/5 410/5/5 412/5/5
f 416/5/5 412/5/5 411/5/5
f 417/5/5 412/5/5 416/5/5
f 418/5/5 414/5/5 413/5/5
f 419/5/5 414/5/5 418/5/5
f 421/5/5 416/5/5 415/5/5
f 422/5/5 416/5/5 421/5/5
f 425/5/5 420/5/5 419/5/5
f 426/5/5 420/5/5 425/5/5
f 427/5/5 423/5/5 422/5/5
f 428/5/5 423/5/5 427/5/5
f 429/5/5 425/5/5 424/5/5
f 430/5/5 425/5/5 429/5/5
f 431/5/5 429/5/5 428/5/5
f 432/5/5 429/5/5 431/5/5
f 433/5/6 434/5/6 435/5/6
f 435/5/6 434/5/6 436/5/6
f 437/5/6 438/5/6 441/5/6
f 441/5/6 438/5/6 442/5/6
f 439/5/6 440/5/6 443/5/6
f 443/5/6 440/5/6 444/5/6
f 445/5/6 446/5/6 447/5/6
f 447/5/6 446/5/6 448/5/6
f 449/5/6 450/5/6 451/5/6
f 451/5/6 450/5/6 452/5/6
f 453/5/6 454/5/6 457/5/6
f 457/5/6 454/5/6 458/5/6
f 455/5/6 456/5/6 459/5/6
f 459/5/6 456/5/6 460/5/6
f 461/5/6 462/5/6 463/5/6
f 463/5/6 462/5/6 464/5/6
f 465/5/6 466/5/6 468/5/6
f 468/5/6 466/5/6 469/5/6
f 467/5/6 468/5/6 471/5/6
f 471/5/6 468/5/6 472/5/6
f 469/5/6 470/5/6 473/5/6
f 473/5/6 470/5/6 474/5/6
f 472/5/6 473/5/6 475/5/6
f 475/5/6 473/5/6 476/5/6
f 477/5/6 478/5/6 479/5/6
f 479/5/6 478/5/6 480/5/6
f 481/5/6 482/5/6 485/5/6
f 485/5/6 482/5/6 486/5/6
f 483/5/6 484/5/6 487/5/6
f 487/5/6 484/5/6 488/5/6
f 489/5/6 490/5/6 491/5/6
f 491/5/6 490/5/6 492/5/6
f 493/4/6 494/4/6 495/4/6
f 495/4/6 494/4/6 496/4/6
