# MagicaVoxel @ Ephtracy

# group
o 

# material
mtllib WallPiece - chonky.mtl
usemtl palette

# normals
vn -1 0 0
vn 1 0 0
vn 0 0 1
vn 0 0 -1
vn 0 -1 0
vn 0 1 0

# texcoords
vt 0.978516 0.5
vt 0.982422 0.5
vt 0.986328 0.5

# verts
v 0.1 2 0
v 0.1 2 -8
v 0.1 2.3 0
v 0.1 2.3 -8
v 0.2 2.3 0
v 0.2 2.3 -8
v 0.2 2.4 -1
v 0.2 2.4 -1.5
v 0.2 2.4 -4.8
v 0.2 2.4 -5.4
v 0.2 2.5 -0.5
v 0.2 2.5 -0.8
v 0.2 2.5 -1
v 0.2 2.5 -1.5
v 0.2 2.5 -2.2
v 0.2 2.5 -2.7
v 0.2 2.5 -3.6
v 0.2 2.5 -4
v 0.2 2.5 -4.4
v 0.2 2.5 -4.8
v 0.2 2.5 -4.9
v 0.2 2.5 -5.4
v 0.2 2.5 -5.7
v 0.2 2.5 -6.1
v 0.2 2.5 -6.4
v 0.2 2.5 -6.9
v 0.2 2.5 -7.2
v 0.2 2.5 -8
v 0.2 2.6 -0.5
v 0.2 2.6 -0.8
v 0.2 2.6 -2.2
v 0.2 2.6 -2.7
v 0.2 2.6 -3.6
v 0.2 2.6 -4
v 0.2 2.6 -4.4
v 0.2 2.6 -4.9
v 0.2 2.6 -5.7
v 0.2 2.6 -6.1
v 0.2 2.6 -6.4
v 0.2 2.6 -6.9
v 0.2 2.6 -7.2
v 0.2 2.6 -8
v 0.2 2.7 0
v 0.2 2.7 -0.2
v 0.2 2.7 -1.3
v 0.2 2.7 -1.8
v 0.2 2.7 -3.1
v 0.2 2.7 -3.9
v 0.2 2.7 -5.7
v 0.2 2.7 -6.2
v 0.2 2.7 -7.6
v 0.2 2.7 -8
v 0.2 2.8 0
v 0.2 2.8 -0.2
v 0.2 2.8 -0.6
v 0.2 2.8 -1.1
v 0.2 2.8 -1.3
v 0.2 2.8 -1.8
v 0.2 2.8 -3.1
v 0.2 2.8 -3.9
v 0.2 2.8 -5.7
v 0.2 2.8 -6.2
v 0.2 2.8 -7.6
v 0.2 2.8 -8
v 0.2 2.9 -0.6
v 0.2 2.9 -1.1
v 0.2 2.9 -2.3
v 0.2 2.9 -2.6
v 0.2 2.9 -4.5
v 0.2 2.9 -5
v 0.2 2.9 -5.5
v 0.2 2.9 -5.8
v 0.2 3 -1.4
v 0.2 3 -1.8
v 0.2 3 -2.3
v 0.2 3 -2.6
v 0.2 3 -2.9
v 0.2 3 -3.3
v 0.2 3 -4.5
v 0.2 3 -5
v 0.2 3 -5.5
v 0.2 3 -5.8
v 0.2 3 -6.7
v 0.2 3 -7.3
v 0.2 3.1 0
v 0.2 3.1 -0.9
v 0.2 3.1 -1.4
v 0.2 3.1 -1.8
v 0.2 3.1 -2.9
v 0.2 3.1 -3.3
v 0.2 3.1 -4.1
v 0.2 3.1 -6.7
v 0.2 3.1 -7.3
v 0.2 3.2 0
v 0.2 3.2 -0.9
v 0.2 3.2 -2.1
v 0.2 3.2 -2.4
v 0.2 3.2 -3.3
v 0.2 3.2 -4.1
v 0.2 3.2 -5.8
v 0.2 3.2 -6.9
v 0.2 3.2 -7.7
v 0.2 3.2 -8
v 0.2 3.3 -0.9
v 0.2 3.3 -1.6
v 0.2 3.3 -2.1
v 0.2 3.3 -2.4
v 0.2 3.3 -5.2
v 0.2 3.3 -5.7
v 0.2 3.3 -5.8
v 0.2 3.3 -6.9
v 0.2 3.3 -7.7
v 0.2 3.3 -8
v 0.2 3.4 -0.9
v 0.2 3.4 -1.6
v 0.2 3.4 -2.6
v 0.2 3.4 -3
v 0.2 3.4 -4.4
v 0.2 3.4 -4.8
v 0.2 3.4 -5.2
v 0.2 3.4 -5.7
v 0.2 3.5 0
v 0.2 3.5 -0.4
v 0.2 3.5 -2.6
v 0.2 3.5 -3
v 0.2 3.5 -3.6
v 0.2 3.5 -4.1
v 0.2 3.5 -4.4
v 0.2 3.5 -4.8
v 0.2 3.5 -6.5
v 0.2 3.5 -7.2
v 0.2 3.6 0
v 0.2 3.6 -0.4
v 0.2 3.6 -0.9
v 0.2 3.6 -1.7
v 0.2 3.6 -2.5
v 0.2 3.6 -3.2
v 0.2 3.6 -3.6
v 0.2 3.6 -4.1
v 0.2 3.6 -6.5
v 0.2 3.6 -7.2
v 0.2 3.6 -7.9
v 0.2 3.6 -8
v 0.2 3.7 -0.9
v 0.2 3.7 -1.7
v 0.2 3.7 -2.5
v 0.2 3.7 -3.2
v 0.2 3.7 -5.1
v 0.2 3.7 -5.8
v 0.2 3.7 -7.5
v 0.2 3.7 -7.8
v 0.2 3.7 -7.9
v 0.2 3.7 -8
v 0.2 3.8 -4.3
v 0.2 3.8 -4.8
v 0.2 3.8 -5.1
v 0.2 3.8 -5.8
v 0.2 3.8 -7.5
v 0.2 3.8 -7.8
v 0.2 3.9 0
v 0.2 3.9 -4.3
v 0.2 3.9 -4.8
v 0.2 3.9 -8
v 0.2 4 0
v 0.2 4 -8
v 2.2 2.3 0
v 2.2 2.3 -8
v 2.2 2.4 -5
v 2.2 2.4 -5.8
v 2.2 2.4 -7.3
v 2.2 2.4 -7.8
v 2.2 2.5 -1.3
v 2.2 2.5 -2
v 2.2 2.5 -2.6
v 2.2 2.5 -3.3
v 2.2 2.5 -3.5
v 2.2 2.5 -4.2
v 2.2 2.5 -5
v 2.2 2.5 -5.8
v 2.2 2.5 -7.3
v 2.2 2.5 -7.8
v 2.2 2.6 -0.5
v 2.2 2.6 -1.1
v 2.2 2.6 -1.3
v 2.2 2.6 -2
v 2.2 2.6 -2.6
v 2.2 2.6 -3.3
v 2.2 2.6 -3.5
v 2.2 2.6 -4.2
v 2.2 2.6 -5.7
v 2.2 2.6 -6.4
v 2.2 2.7 -0.5
v 2.2 2.7 -1.1
v 2.2 2.7 -2.7
v 2.2 2.7 -3.1
v 2.2 2.7 -5.7
v 2.2 2.7 -6.4
v 2.2 2.7 -6.6
v 2.2 2.7 -7.5
v 2.2 2.8 -2.1
v 2.2 2.8 -2.6
v 2.2 2.8 -2.7
v 2.2 2.8 -3.1
v 2.2 2.8 -3.9
v 2.2 2.8 -5
v 2.2 2.8 -6.6
v 2.2 2.8 -7.5
v 2.2 2.8 -7.7
v 2.2 2.8 -8
v 2.2 2.9 0
v 2.2 2.9 -0.6
v 2.2 2.9 -2.1
v 2.2 2.9 -2.6
v 2.2 2.9 -3.9
v 2.2 2.9 -5
v 2.2 2.9 -5.6
v 2.2 2.9 -6.3
v 2.2 2.9 -7.7
v 2.2 2.9 -8
v 2.2 3 0
v 2.2 3 -0.6
v 2.2 3 -3.1
v 2.2 3 -3.8
v 2.2 3 -5.6
v 2.2 3 -6.3
v 2.2 3.1 -1.2
v 2.2 3.1 -2.1
v 2.2 3.1 -3.1
v 2.2 3.1 -3.8
v 2.2 3.1 -4.1
v 2.2 3.1 -4.8
v 2.2 3.1 -6.7
v 2.2 3.1 -7.3
v 2.2 3.2 -1.2
v 2.2 3.2 -2.1
v 2.2 3.2 -2.6
v 2.2 3.2 -3.5
v 2.2 3.2 -4.1
v 2.2 3.2 -4.8
v 2.2 3.2 -6.7
v 2.2 3.2 -7.3
v 2.2 3.3 -2.6
v 2.2 3.3 -3.5
v 2.2 3.3 -5.2
v 2.2 3.3 -5.6
v 2.2 3.3 -7.5
v 2.2 3.3 -8
v 2.2 3.4 -0.6
v 2.2 3.4 -1.3
v 2.2 3.4 -4.6
v 2.2 3.4 -4.9
v 2.2 3.4 -5.2
v 2.2 3.4 -5.6
v 2.2 3.4 -5.7
v 2.2 3.4 -6.5
v 2.2 3.4 -7.5
v 2.2 3.4 -8
v 2.2 3.5 -0.6
v 2.2 3.5 -1.3
v 2.2 3.5 -2.3
v 2.2 3.5 -3.1
v 2.2 3.5 -3.7
v 2.2 3.5 -4.4
v 2.2 3.5 -4.6
v 2.2 3.5 -4.9
v 2.2 3.5 -5.7
v 2.2 3.5 -6.5
v 2.2 3.6 -2.3
v 2.2 3.6 -3.1
v 2.2 3.6 -3.7
v 2.2 3.6 -4.4
v 2.2 3.6 -5.1
v 2.2 3.6 -6.1
v 2.2 3.7 0
v 2.2 3.7 -0.6
v 2.2 3.7 -1.5
v 2.2 3.7 -2.2
v 2.2 3.7 -4
v 2.2 3.7 -4.7
v 2.2 3.7 -5.1
v 2.2 3.7 -6.1
v 2.2 3.7 -6.9
v 2.2 3.7 -7.6
v 2.2 3.8 0
v 2.2 3.8 -0.6
v 2.2 3.8 -1.5
v 2.2 3.8 -2.2
v 2.2 3.8 -4
v 2.2 3.8 -4.7
v 2.2 3.8 -6.9
v 2.2 3.8 -7.6
v 2.2 3.9 0
v 2.2 3.9 -8
v 2.2 4 0
v 2.2 4 -8
v 2.3 2 0
v 2.3 2 -8
v 2.3 2.3 0
v 2.3 2.3 -8
v 0.1 2 0
v 0.1 2.3 0
v 0.2 2.3 0
v 0.2 2.7 0
v 0.2 2.8 0
v 0.2 3.1 0
v 0.2 3.2 0
v 0.2 3.5 0
v 0.2 3.6 0
v 0.2 3.9 0
v 0.2 4 0
v 0.5 2.5 0
v 0.5 2.6 0
v 0.5 2.7 0
v 0.5 2.8 0
v 0.5 3.5 0
v 0.5 3.6 0
v 0.6 3.1 0
v 0.6 3.2 0
v 1.1 3 0
v 1.1 3.1 0
v 1.2 3.5 0
v 1.2 3.6 0
v 1.3 2.5 0
v 1.3 2.6 0
v 1.6 2.4 0
v 1.6 2.5 0
v 1.6 3 0
v 1.6 3.1 0
v 1.7 3.5 0
v 1.7 3.6 0
v 1.8 2.9 0
v 1.8 3 0
v 1.9 3.7 0
v 1.9 3.8 0
v 2 2.4 0
v 2 2.5 0
v 2.2 2.3 0
v 2.2 2.9 0
v 2.2 3 0
v 2.2 3.7 0
v 2.2 3.8 0
v 2.2 3.9 0
v 2.2 4 0
v 2.3 2 0
v 2.3 2.3 0
v 0.1 2 -8
v 0.1 2.3 -8
v 0.2 2.3 -8
v 0.2 2.5 -8
v 0.2 2.6 -8
v 0.2 2.7 -8
v 0.2 2.8 -8
v 0.2 3.2 -8
v 0.2 3.3 -8
v 0.2 3.6 -8
v 0.2 3.7 -8
v 0.2 3.9 -8
v 0.2 4 -8
v 0.4 2.5 -8
v 0.4 2.6 -8
v 0.4 3.6 -8
v 0.4 3.7 -8
v 0.8 3.2 -8
v 0.8 3.3 -8
v 1 3.5 -8
v 1 3.6 -8
v 1.3 3.7 -8
v 1.3 3.8 -8
v 1.4 2.7 -8
v 1.4 2.8 -8
v 1.5 2.5 -8
v 1.5 2.6 -8
v 1.6 3 -8
v 1.6 3.1 -8
v 1.6 3.5 -8
v 1.6 3.6 -8
v 1.9 3 -8
v 1.9 3.1 -8
v 1.9 3.7 -8
v 1.9 3.8 -8
v 2 2.5 -8
v 2 2.6 -8
v 2 3.3 -8
v 2 3.4 -8
v 2.1 2.8 -8
v 2.1 2.9 -8
v 2.2 2.3 -8
v 2.2 2.8 -8
v 2.2 2.9 -8
v 2.2 3.3 -8
v 2.2 3.4 -8
v 2.2 3.9 -8
v 2.2 4 -8
v 2.3 2 -8
v 2.3 2.3 -8
v 0.1 2 0
v 2.3 2 0
v 0.2 2 -0.1
v 2.2 2 -0.1
v 0.2 2 -2.1
v 0.6 2 -2.1
v 1.8 2 -2.1
v 2.2 2 -2.1
v 1.9 2 -2.2
v 2.2 2 -2.2
v 0.2 2 -5.5
v 0.5 2 -5.5
v 0.2 2 -5.8
v 0.5 2 -5.8
v 1.9 2 -5.8
v 2.2 2 -5.8
v 0.2 2 -5.9
v 0.6 2 -5.9
v 1.8 2 -5.9
v 2.2 2 -5.9
v 0.2 2 -7.9
v 2.2 2 -7.9
v 0.1 2 -8
v 2.3 2 -8
v 0.1 2.3 0
v 0.2 2.3 0
v 2.2 2.3 0
v 2.3 2.3 0
v 0.1 2.3 -8
v 0.2 2.3 -8
v 2.2 2.3 -8
v 2.3 2.3 -8
v 0.2 4 0
v 2.2 4 0
v 0.2 4 -8
v 2.2 4 -8

# faces
f 3/3/1 2/3/1 1/3/1
f 4/3/1 2/3/1 3/3/1
f 7/2/1 6/2/1 5/2/1
f 8/2/1 6/2/1 7/2/1
f 9/2/1 6/2/1 8/2/1
f 10/2/1 6/2/1 9/2/1
f 11/2/1 7/2/1 5/2/1
f 12/2/1 7/2/1 11/2/1
f 13/1/1 8/1/1 7/1/1
f 13/2/1 7/2/1 12/2/1
f 14/2/1 9/2/1 8/2/1
f 14/1/1 8/1/1 13/1/1
f 15/2/1 9/2/1 14/2/1
f 16/2/1 9/2/1 15/2/1
f 17/2/1 9/2/1 16/2/1
f 18/2/1 9/2/1 17/2/1
f 19/2/1 9/2/1 18/2/1
f 20/1/1 10/1/1 9/1/1
f 20/2/1 9/2/1 19/2/1
f 21/1/1 10/1/1 20/1/1
f 22/2/1 6/2/1 10/2/1
f 22/1/1 10/1/1 21/1/1
f 23/2/1 6/2/1 22/2/1
f 24/2/1 6/2/1 23/2/1
f 25/2/1 6/2/1 24/2/1
f 26/2/1 6/2/1 25/2/1
f 27/2/1 6/2/1 26/2/1
f 28/2/1 6/2/1 27/2/1
f 29/3/1 12/3/1 11/3/1
f 29/2/1 11/2/1 5/2/1
f 30/2/1 13/2/1 12/2/1
f 30/3/1 12/3/1 29/3/1
f 30/2/1 14/2/1 13/2/1
f 30/2/1 15/2/1 14/2/1
f 31/1/1 16/1/1 15/1/1
f 31/2/1 15/2/1 30/2/1
f 32/2/1 17/2/1 16/2/1
f 32/1/1 16/1/1 31/1/1
f 33/1/1 18/1/1 17/1/1
f 33/2/1 17/2/1 32/2/1
f 34/2/1 19/2/1 18/2/1
f 34/1/1 18/1/1 33/1/1
f 35/3/1 21/3/1 20/3/1
f 35/2/1 19/2/1 34/2/1
f 35/3/1 20/3/1 19/3/1
f 36/2/1 22/2/1 21/2/1
f 36/3/1 21/3/1 35/3/1
f 36/2/1 23/2/1 22/2/1
f 37/3/1 24/3/1 23/3/1
f 37/2/1 23/2/1 36/2/1
f 38/2/1 25/2/1 24/2/1
f 38/3/1 24/3/1 37/3/1
f 39/1/1 26/1/1 25/1/1
f 39/2/1 25/2/1 38/2/1
f 40/2/1 27/2/1 26/2/1
f 40/1/1 26/1/1 39/1/1
f 41/1/1 28/1/1 27/1/1
f 41/2/1 27/2/1 40/2/1
f 42/1/1 28/1/1 41/1/1
f 43/2/1 34/2/1 33/2/1
f 43/2/1 29/2/1 5/2/1
f 43/2/1 42/2/1 41/2/1
f 43/2/1 41/2/1 40/2/1
f 43/2/1 36/2/1 35/2/1
f 43/2/1 35/2/1 34/2/1
f 43/2/1 37/2/1 36/2/1
f 43/2/1 32/2/1 31/2/1
f 43/2/1 31/2/1 30/2/1
f 43/2/1 30/2/1 29/2/1
f 43/2/1 38/2/1 37/2/1
f 43/2/1 39/2/1 38/2/1
f 43/2/1 40/2/1 39/2/1
f 43/2/1 33/2/1 32/2/1
f 44/2/1 42/2/1 43/2/1
f 45/2/1 42/2/1 44/2/1
f 46/2/1 42/2/1 45/2/1
f 47/2/1 42/2/1 46/2/1
f 48/2/1 42/2/1 47/2/1
f 49/2/1 42/2/1 48/2/1
f 50/2/1 42/2/1 49/2/1
f 51/2/1 42/2/1 50/2/1
f 52/2/1 42/2/1 51/2/1
f 53/1/1 44/1/1 43/1/1
f 54/2/1 45/2/1 44/2/1
f 54/1/1 44/1/1 53/1/1
f 55/2/1 45/2/1 54/2/1
f 56/2/1 45/2/1 55/2/1
f 57/3/1 46/3/1 45/3/1
f 57/2/1 45/2/1 56/2/1
f 58/2/1 47/2/1 46/2/1
f 58/3/1 46/3/1 57/3/1
f 59/3/1 48/3/1 47/3/1
f 59/2/1 47/2/1 58/2/1
f 60/2/1 49/2/1 48/2/1
f 60/3/1 48/3/1 59/3/1
f 61/1/1 50/1/1 49/1/1
f 61/2/1 49/2/1 60/2/1
f 62/2/1 51/2/1 50/2/1
f 62/1/1 50/1/1 61/1/1
f 63/3/1 52/3/1 51/3/1
f 63/2/1 51/2/1 62/2/1
f 64/3/1 52/3/1 63/3/1
f 65/1/1 56/1/1 55/1/1
f 65/2/1 54/2/1 53/2/1
f 65/2/1 55/2/1 54/2/1
f 66/2/1 57/2/1 56/2/1
f 66/1/1 56/1/1 65/1/1
f 66/2/1 58/2/1 57/2/1
f 66/2/1 63/2/1 62/2/1
f 66/2/1 64/2/1 63/2/1
f 66/2/1 62/2/1 61/2/1
f 66/2/1 61/2/1 60/2/1
f 66/2/1 60/2/1 59/2/1
f 66/2/1 59/2/1 58/2/1
f 67/2/1 64/2/1 66/2/1
f 68/2/1 64/2/1 67/2/1
f 69/2/1 64/2/1 68/2/1
f 70/2/1 64/2/1 69/2/1
f 71/2/1 64/2/1 70/2/1
f 72/2/1 64/2/1 71/2/1
f 73/2/1 66/2/1 65/2/1
f 73/2/1 67/2/1 66/2/1
f 74/2/1 67/2/1 73/2/1
f 75/3/1 68/3/1 67/3/1
f 75/2/1 67/2/1 74/2/1
f 76/2/1 69/2/1 68/2/1
f 76/3/1 68/3/1 75/3/1
f 77/2/1 69/2/1 76/2/1
f 78/2/1 69/2/1 77/2/1
f 79/1/1 70/1/1 69/1/1
f 79/2/1 69/2/1 78/2/1
f 80/2/1 71/2/1 70/2/1
f 80/1/1 70/1/1 79/1/1
f 81/1/1 72/1/1 71/1/1
f 81/2/1 71/2/1 80/2/1
f 82/2/1 64/2/1 72/2/1
f 82/1/1 72/1/1 81/1/1
f 83/2/1 64/2/1 82/2/1
f 84/2/1 64/2/1 83/2/1
f 85/2/1 65/2/1 53/2/1
f 85/2/1 73/2/1 65/2/1
f 86/2/1 73/2/1 85/2/1
f 87/1/1 74/1/1 73/1/1
f 87/2/1 73/2/1 86/2/1
f 88/2/1 75/2/1 74/2/1
f 88/1/1 74/1/1 87/1/1
f 88/2/1 76/2/1 75/2/1
f 88/2/1 77/2/1 76/2/1
f 89/1/1 78/1/1 77/1/1
f 89/2/1 77/2/1 88/2/1
f 90/2/1 81/2/1 80/2/1
f 90/1/1 78/1/1 89/1/1
f 90/2/1 80/2/1 79/2/1
f 90/2/1 82/2/1 81/2/1
f 90/2/1 83/2/1 82/2/1
f 90/2/1 79/2/1 78/2/1
f 91/2/1 83/2/1 90/2/1
f 92/1/1 84/1/1 83/1/1
f 92/2/1 83/2/1 91/2/1
f 93/2/1 64/2/1 84/2/1
f 93/1/1 84/1/1 92/1/1
f 94/3/1 86/3/1 85/3/1
f 95/2/1 89/2/1 88/2/1
f 95/3/1 86/3/1 94/3/1
f 95/2/1 87/2/1 86/2/1
f 95/2/1 88/2/1 87/2/1
f 95/2/1 90/2/1 89/2/1
f 96/2/1 90/2/1 95/2/1
f 97/2/1 90/2/1 96/2/1
f 98/3/1 91/3/1 90/3/1
f 98/2/1 90/2/1 97/2/1
f 99/2/1 92/2/1 91/2/1
f 99/3/1 91/3/1 98/3/1
f 99/2/1 93/2/1 92/2/1
f 100/2/1 93/2/1 99/2/1
f 101/2/1 93/2/1 100/2/1
f 102/2/1 64/2/1 93/2/1
f 102/2/1 93/2/1 101/2/1
f 103/2/1 64/2/1 102/2/1
f 104/2/1 96/2/1 95/2/1
f 104/2/1 95/2/1 94/2/1
f 105/2/1 96/2/1 104/2/1
f 106/1/1 97/1/1 96/1/1
f 106/2/1 96/2/1 105/2/1
f 107/2/1 98/2/1 97/2/1
f 107/1/1 97/1/1 106/1/1
f 107/2/1 99/2/1 98/2/1
f 107/2/1 100/2/1 99/2/1
f 108/2/1 100/2/1 107/2/1
f 109/2/1 100/2/1 108/2/1
f 110/3/1 101/3/1 100/3/1
f 110/2/1 100/2/1 109/2/1
f 111/2/1 102/2/1 101/2/1
f 111/3/1 101/3/1 110/3/1
f 112/1/1 103/1/1 102/1/1
f 112/2/1 102/2/1 111/2/1
f 113/1/1 103/1/1 112/1/1
f 114/1/1 105/1/1 104/1/1
f 114/2/1 104/2/1 94/2/1
f 115/2/1 106/2/1 105/2/1
f 115/1/1 105/1/1 114/1/1
f 115/2/1 107/2/1 106/2/1
f 115/2/1 108/2/1 107/2/1
f 116/2/1 108/2/1 115/2/1
f 117/2/1 108/2/1 116/2/1
f 118/2/1 108/2/1 117/2/1
f 119/2/1 108/2/1 118/2/1
f 120/1/1 109/1/1 108/1/1
f 120/2/1 108/2/1 119/2/1
f 121/2/1 111/2/1 110/2/1
f 121/1/1 109/1/1 120/1/1
f 121/2/1 113/2/1 112/2/1
f 121/2/1 110/2/1 109/2/1
f 121/2/1 112/2/1 111/2/1
f 122/2/1 114/2/1 94/2/1
f 122/2/1 116/2/1 115/2/1
f 122/2/1 115/2/1 114/2/1
f 123/2/1 116/2/1 122/2/1
f 124/1/1 117/1/1 116/1/1
f 124/2/1 116/2/1 123/2/1
f 125/2/1 118/2/1 117/2/1
f 125/1/1 117/1/1 124/1/1
f 126/2/1 118/2/1 125/2/1
f 127/2/1 118/2/1 126/2/1
f 128/3/1 119/3/1 118/3/1
f 128/2/1 118/2/1 127/2/1
f 129/2/1 120/2/1 119/2/1
f 129/3/1 119/3/1 128/3/1
f 129/2/1 121/2/1 120/2/1
f 130/2/1 113/2/1 121/2/1
f 130/2/1 121/2/1 129/2/1
f 131/2/1 113/2/1 130/2/1
f 132/1/1 123/1/1 122/1/1
f 133/2/1 124/2/1 123/2/1
f 133/1/1 123/1/1 132/1/1
f 133/2/1 126/2/1 125/2/1
f 133/2/1 125/2/1 124/2/1
f 134/2/1 126/2/1 133/2/1
f 135/2/1 126/2/1 134/2/1
f 136/2/1 126/2/1 135/2/1
f 137/2/1 126/2/1 136/2/1
f 138/1/1 127/1/1 126/1/1
f 138/2/1 126/2/1 137/2/1
f 139/2/1 129/2/1 128/2/1
f 139/1/1 127/1/1 138/1/1
f 139/2/1 128/2/1 127/2/1
f 139/2/1 130/2/1 129/2/1
f 140/1/1 131/1/1 130/1/1
f 140/2/1 130/2/1 139/2/1
f 141/2/1 113/2/1 131/2/1
f 141/1/1 131/1/1 140/1/1
f 142/2/1 113/2/1 141/2/1
f 143/2/1 113/2/1 142/2/1
f 144/3/1 135/3/1 134/3/1
f 144/2/1 133/2/1 132/2/1
f 144/2/1 134/2/1 133/2/1
f 145/2/1 136/2/1 135/2/1
f 145/3/1 135/3/1 144/3/1
f 146/3/1 137/3/1 136/3/1
f 146/2/1 136/2/1 145/2/1
f 147/2/1 138/2/1 137/2/1
f 147/3/1 137/3/1 146/3/1
f 147/2/1 140/2/1 139/2/1
f 147/2/1 141/2/1 140/2/1
f 147/2/1 142/2/1 141/2/1
f 147/2/1 139/2/1 138/2/1
f 148/2/1 142/2/1 147/2/1
f 149/2/1 142/2/1 148/2/1
f 150/2/1 142/2/1 149/2/1
f 151/2/1 142/2/1 150/2/1
f 152/1/1 143/1/1 142/1/1
f 152/2/1 142/2/1 151/2/1
f 153/1/1 143/1/1 152/1/1
f 154/2/1 146/2/1 145/2/1
f 154/2/1 145/2/1 144/2/1
f 154/2/1 147/2/1 146/2/1
f 154/2/1 148/2/1 147/2/1
f 155/2/1 148/2/1 154/2/1
f 156/3/1 149/3/1 148/3/1
f 156/2/1 148/2/1 155/2/1
f 157/2/1 150/2/1 149/2/1
f 157/3/1 149/3/1 156/3/1
f 158/3/1 151/3/1 150/3/1
f 158/2/1 150/2/1 157/2/1
f 159/2/1 153/2/1 152/2/1
f 159/3/1 151/3/1 158/3/1
f 159/2/1 152/2/1 151/2/1
f 160/2/1 144/2/1 132/2/1
f 160/2/1 154/2/1 144/2/1
f 161/1/1 155/1/1 154/1/1
f 161/2/1 154/2/1 160/2/1
f 162/2/1 158/2/1 157/2/1
f 162/1/1 155/1/1 161/1/1
f 162/2/1 157/2/1 156/2/1
f 162/2/1 159/2/1 158/2/1
f 162/2/1 156/2/1 155/2/1
f 163/2/1 153/2/1 159/2/1
f 163/2/1 159/2/1 162/2/1
f 164/3/1 161/3/1 160/3/1
f 164/3/1 162/3/1 161/3/1
f 164/3/1 163/3/1 162/3/1
f 165/3/1 163/3/1 164/3/1
f 166/2/2 167/2/2 168/2/2
f 168/2/2 167/2/2 169/2/2
f 169/2/2 167/2/2 170/2/2
f 170/2/2 167/2/2 171/2/2
f 166/2/2 168/2/2 172/2/2
f 172/2/2 168/2/2 173/2/2
f 173/2/2 168/2/2 174/2/2
f 174/2/2 168/2/2 175/2/2
f 175/2/2 168/2/2 176/2/2
f 176/2/2 168/2/2 177/2/2
f 168/3/2 169/3/2 178/3/2
f 177/2/2 168/2/2 178/2/2
f 169/2/2 170/2/2 179/2/2
f 178/3/2 169/3/2 179/3/2
f 170/1/2 171/1/2 180/1/2
f 179/2/2 170/2/2 180/2/2
f 171/2/2 167/2/2 181/2/2
f 180/1/2 171/1/2 181/1/2
f 166/2/2 172/2/2 182/2/2
f 182/2/2 172/2/2 183/2/2
f 172/3/2 173/3/2 184/3/2
f 183/2/2 172/2/2 184/2/2
f 173/2/2 174/2/2 185/2/2
f 184/3/2 173/3/2 185/3/2
f 174/3/2 175/3/2 186/3/2
f 185/2/2 174/2/2 186/2/2
f 175/2/2 176/2/2 187/2/2
f 186/3/2 175/3/2 187/3/2
f 176/1/2 177/1/2 188/1/2
f 187/2/2 176/2/2 188/2/2
f 179/2/2 180/2/2 189/2/2
f 188/1/2 177/1/2 189/1/2
f 177/2/2 178/2/2 189/2/2
f 178/2/2 179/2/2 189/2/2
f 180/2/2 181/2/2 189/2/2
f 189/2/2 181/2/2 190/2/2
f 190/2/2 181/2/2 191/2/2
f 166/2/2 182/2/2 192/2/2
f 182/1/2 183/1/2 192/1/2
f 187/2/2 188/2/2 193/2/2
f 192/1/2 183/1/2 193/1/2
f 186/2/2 187/2/2 193/2/2
f 189/2/2 190/2/2 193/2/2
f 188/2/2 189/2/2 193/2/2
f 184/2/2 185/2/2 193/2/2
f 183/2/2 184/2/2 193/2/2
f 185/2/2 186/2/2 193/2/2
f 193/2/2 190/2/2 194/2/2
f 194/2/2 190/2/2 195/2/2
f 190/1/2 191/1/2 196/1/2
f 195/2/2 190/2/2 196/2/2
f 191/2/2 181/2/2 197/2/2
f 196/1/2 191/1/2 197/1/2
f 197/2/2 181/2/2 198/2/2
f 198/2/2 181/2/2 199/2/2
f 192/2/2 193/2/2 200/2/2
f 193/2/2 194/2/2 200/2/2
f 200/2/2 194/2/2 201/2/2
f 194/1/2 195/1/2 202/1/2
f 201/2/2 194/2/2 202/2/2
f 195/2/2 196/2/2 203/2/2
f 202/1/2 195/1/2 203/1/2
f 196/2/2 197/2/2 203/2/2
f 197/2/2 198/2/2 203/2/2
f 203/2/2 198/2/2 204/2/2
f 204/2/2 198/2/2 205/2/2
f 198/3/2 199/3/2 206/3/2
f 205/2/2 198/2/2 206/2/2
f 199/2/2 181/2/2 207/2/2
f 206/3/2 199/3/2 207/3/2
f 207/2/2 181/2/2 208/2/2
f 181/2/2 167/2/2 209/2/2
f 208/2/2 181/2/2 209/2/2
f 166/2/2 192/2/2 210/2/2
f 192/2/2 200/2/2 210/2/2
f 210/2/2 200/2/2 211/2/2
f 200/3/2 201/3/2 212/3/2
f 211/2/2 200/2/2 212/2/2
f 201/2/2 202/2/2 213/2/2
f 212/3/2 201/3/2 213/3/2
f 202/2/2 203/2/2 213/2/2
f 203/2/2 204/2/2 213/2/2
f 204/3/2 205/3/2 214/3/2
f 213/2/2 204/2/2 214/2/2
f 207/2/2 208/2/2 215/2/2
f 214/3/2 205/3/2 215/3/2
f 205/2/2 206/2/2 215/2/2
f 206/2/2 207/2/2 215/2/2
f 215/2/2 208/2/2 216/2/2
f 216/2/2 208/2/2 217/2/2
f 208/1/2 209/1/2 218/1/2
f 217/2/2 208/2/2 218/2/2
f 218/1/2 209/1/2 219/1/2
f 210/3/2 211/3/2 220/3/2
f 211/2/2 212/2/2 221/2/2
f 220/3/2 211/3/2 221/3/2
f 213/2/2 214/2/2 221/2/2
f 212/2/2 213/2/2 221/2/2
f 214/2/2 215/2/2 221/2/2
f 215/2/2 216/2/2 221/2/2
f 221/2/2 216/2/2 222/2/2
f 222/2/2 216/2/2 223/2/2
f 216/3/2 217/3/2 224/3/2
f 223/2/2 216/2/2 224/2/2
f 218/2/2 219/2/2 225/2/2
f 224/3/2 217/3/2 225/3/2
f 217/2/2 218/2/2 225/2/2
f 221/2/2 222/2/2 226/2/2
f 220/2/2 221/2/2 226/2/2
f 226/2/2 222/2/2 227/2/2
f 222/1/2 223/1/2 228/1/2
f 227/2/2 222/2/2 228/2/2
f 223/2/2 224/2/2 229/2/2
f 228/1/2 223/1/2 229/1/2
f 224/2/2 225/2/2 229/2/2
f 229/2/2 225/2/2 230/2/2
f 230/2/2 225/2/2 231/2/2
f 225/2/2 219/2/2 232/2/2
f 231/2/2 225/2/2 232/2/2
f 232/2/2 219/2/2 233/2/2
f 226/1/2 227/1/2 234/1/2
f 220/2/2 226/2/2 234/2/2
f 227/2/2 228/2/2 235/2/2
f 234/1/2 227/1/2 235/1/2
f 228/2/2 229/2/2 235/2/2
f 229/2/2 230/2/2 235/2/2
f 235/2/2 230/2/2 236/2/2
f 236/2/2 230/2/2 237/2/2
f 230/1/2 231/1/2 238/1/2
f 237/2/2 230/2/2 238/2/2
f 231/2/2 232/2/2 239/2/2
f 238/1/2 231/1/2 239/1/2
f 232/1/2 233/1/2 240/1/2
f 239/2/2 232/2/2 240/2/2
f 233/2/2 219/2/2 241/2/2
f 240/1/2 233/1/2 241/1/2
f 236/3/2 237/3/2 242/3/2
f 234/2/2 235/2/2 242/2/2
f 235/2/2 236/2/2 242/2/2
f 239/2/2 240/2/2 243/2/2
f 242/3/2 237/3/2 243/3/2
f 238/2/2 239/2/2 243/2/2
f 240/2/2 241/2/2 243/2/2
f 237/2/2 238/2/2 243/2/2
f 243/2/2 241/2/2 244/2/2
f 244/2/2 241/2/2 245/2/2
f 241/2/2 219/2/2 246/2/2
f 245/2/2 241/2/2 246/2/2
f 246/2/2 219/2/2 247/2/2
f 220/2/2 234/2/2 248/2/2
f 234/2/2 242/2/2 248/2/2
f 242/2/2 243/2/2 248/2/2
f 243/2/2 244/2/2 248/2/2
f 248/2/2 244/2/2 249/2/2
f 249/2/2 244/2/2 250/2/2
f 250/2/2 244/2/2 251/2/2
f 244/1/2 245/1/2 252/1/2
f 251/2/2 244/2/2 252/2/2
f 245/2/2 246/2/2 253/2/2
f 252/1/2 245/1/2 253/1/2
f 253/2/2 246/2/2 254/2/2
f 254/2/2 246/2/2 255/2/2
f 246/3/2 247/3/2 256/3/2
f 255/2/2 246/2/2 256/2/2
f 256/3/2 247/3/2 257/3/2
f 220/2/2 248/2/2 258/2/2
f 248/3/2 249/3/2 258/3/2
f 249/2/2 250/2/2 259/2/2
f 258/3/2 249/3/2 259/3/2
f 259/2/2 250/2/2 260/2/2
f 260/2/2 250/2/2 261/2/2
f 261/2/2 250/2/2 262/2/2
f 262/2/2 250/2/2 263/2/2
f 250/3/2 251/3/2 264/3/2
f 263/2/2 250/2/2 264/2/2
f 251/2/2 252/2/2 265/2/2
f 264/3/2 251/3/2 265/3/2
f 252/2/2 253/2/2 265/2/2
f 253/2/2 254/2/2 265/2/2
f 254/3/2 255/3/2 266/3/2
f 265/2/2 254/2/2 266/2/2
f 256/2/2 257/2/2 267/2/2
f 266/3/2 255/3/2 267/3/2
f 255/2/2 256/2/2 267/2/2
f 260/1/2 261/1/2 268/1/2
f 259/2/2 260/2/2 268/2/2
f 258/2/2 259/2/2 268/2/2
f 261/2/2 262/2/2 269/2/2
f 268/1/2 261/1/2 269/1/2
f 262/1/2 263/1/2 270/1/2
f 269/2/2 262/2/2 270/2/2
f 264/2/2 265/2/2 271/2/2
f 270/1/2 263/1/2 271/1/2
f 263/2/2 264/2/2 271/2/2
f 266/2/2 267/2/2 271/2/2
f 265/2/2 266/2/2 271/2/2
f 271/2/2 267/2/2 272/2/2
f 272/2/2 267/2/2 273/2/2
f 268/2/2 269/2/2 274/2/2
f 269/2/2 270/2/2 274/2/2
f 258/2/2 268/2/2 274/2/2
f 271/2/2 272/2/2 274/2/2
f 270/2/2 271/2/2 274/2/2
f 220/2/2 258/2/2 274/2/2
f 274/2/2 272/2/2 275/2/2
f 275/2/2 272/2/2 276/2/2
f 276/2/2 272/2/2 277/2/2
f 277/2/2 272/2/2 278/2/2
f 278/2/2 272/2/2 279/2/2
f 272/1/2 273/1/2 280/1/2
f 279/2/2 272/2/2 280/2/2
f 273/2/2 267/2/2 281/2/2
f 280/1/2 273/1/2 281/1/2
f 267/2/2 257/2/2 282/2/2
f 281/2/2 267/2/2 282/2/2
f 282/2/2 257/2/2 283/2/2
f 274/1/2 275/1/2 284/1/2
f 275/2/2 276/2/2 285/2/2
f 284/1/2 275/1/2 285/1/2
f 276/1/2 277/1/2 286/1/2
f 285/2/2 276/2/2 286/2/2
f 277/2/2 278/2/2 287/2/2
f 286/1/2 277/1/2 287/1/2
f 278/3/2 279/3/2 288/3/2
f 287/2/2 278/2/2 288/2/2
f 279/2/2 280/2/2 289/2/2
f 288/3/2 279/3/2 289/3/2
f 280/2/2 281/2/2 289/2/2
f 281/2/2 282/2/2 289/2/2
f 282/1/2 283/1/2 290/1/2
f 289/2/2 282/2/2 290/2/2
f 283/2/2 257/2/2 291/2/2
f 290/1/2 283/1/2 291/1/2
f 287/2/2 288/2/2 292/2/2
f 286/2/2 287/2/2 292/2/2
f 290/2/2 291/2/2 292/2/2
f 285/2/2 286/2/2 292/2/2
f 284/2/2 285/2/2 292/2/2
f 288/2/2 289/2/2 292/2/2
f 289/2/2 290/2/2 292/2/2
f 291/2/2 257/2/2 293/2/2
f 292/2/2 291/2/2 293/2/2
f 292/3/2 293/3/2 294/3/2
f 294/3/2 293/3/2 295/3/2
f 296/3/2 297/3/2 298/3/2
f 298/3/2 297/3/2 299/3/2
f 302/3/3 301/3/3 300/3/3
f 311/2/3 303/2/3 302/2/3
f 312/2/3 303/2/3 311/2/3
f 313/1/3 304/1/3 303/1/3
f 313/2/3 303/2/3 312/2/3
f 314/2/3 305/2/3 304/2/3
f 314/1/3 304/1/3 313/1/3
f 315/2/3 307/2/3 306/2/3
f 315/1/3 308/1/3 307/1/3
f 316/2/3 309/2/3 308/2/3
f 316/1/3 308/1/3 315/1/3
f 317/2/3 313/2/3 312/2/3
f 317/3/3 306/3/3 305/3/3
f 317/2/3 305/2/3 314/2/3
f 317/2/3 314/2/3 313/2/3
f 318/2/3 316/2/3 315/2/3
f 318/3/3 306/3/3 317/3/3
f 318/2/3 315/2/3 306/2/3
f 319/2/3 317/2/3 312/2/3
f 319/2/3 318/2/3 317/2/3
f 320/2/3 318/2/3 319/2/3
f 321/2/3 316/2/3 318/2/3
f 321/2/3 318/2/3 320/2/3
f 322/2/3 309/2/3 316/2/3
f 322/2/3 316/2/3 321/2/3
f 323/3/3 312/3/3 311/3/3
f 323/2/3 311/2/3 302/2/3
f 324/2/3 319/2/3 312/2/3
f 324/3/3 312/3/3 323/3/3
f 325/2/3 323/2/3 302/2/3
f 325/2/3 324/2/3 323/2/3
f 326/2/3 324/2/3 325/2/3
f 327/1/3 320/1/3 319/1/3
f 327/2/3 324/2/3 326/2/3
f 327/2/3 319/2/3 324/2/3
f 328/2/3 321/2/3 320/2/3
f 328/1/3 320/1/3 327/1/3
f 329/2/3 327/2/3 326/2/3
f 329/2/3 321/2/3 328/2/3
f 329/2/3 328/2/3 327/2/3
f 329/3/3 322/3/3 321/3/3
f 330/2/3 309/2/3 322/2/3
f 330/3/3 322/3/3 329/3/3
f 331/2/3 329/2/3 326/2/3
f 331/2/3 330/2/3 329/2/3
f 332/2/3 330/2/3 331/2/3
f 333/2/3 309/2/3 330/2/3
f 333/2/3 330/2/3 332/2/3
f 334/2/3 309/2/3 333/2/3
f 335/2/3 325/2/3 302/2/3
f 335/1/3 326/1/3 325/1/3
f 336/2/3 331/2/3 326/2/3
f 336/1/3 326/1/3 335/1/3
f 337/3/3 302/3/3 300/3/3
f 337/2/3 335/2/3 302/2/3
f 337/2/3 336/2/3 335/2/3
f 338/2/3 331/2/3 336/2/3
f 338/2/3 336/2/3 337/2/3
f 338/3/3 332/3/3 331/3/3
f 339/2/3 333/2/3 332/2/3
f 339/3/3 332/3/3 338/3/3
f 340/1/3 334/1/3 333/1/3
f 340/2/3 333/2/3 339/2/3
f 341/2/3 309/2/3 334/2/3
f 341/1/3 334/1/3 340/1/3
f 342/3/3 310/3/3 309/3/3
f 342/2/3 309/2/3 341/2/3
f 343/3/3 310/3/3 342/3/3
f 344/3/3 337/3/3 300/3/3
f 345/3/3 337/3/3 344/3/3
f 346/3/4 347/3/4 348/3/4
f 348/2/4 349/2/4 359/2/4
f 349/1/4 350/1/4 359/1/4
f 350/2/4 351/2/4 360/2/4
f 359/1/4 350/1/4 360/1/4
f 354/2/4 355/2/4 361/2/4
f 355/1/4 356/1/4 361/1/4
f 356/2/4 357/2/4 362/2/4
f 361/1/4 356/1/4 362/1/4
f 352/2/4 353/2/4 363/2/4
f 353/1/4 354/1/4 363/1/4
f 354/2/4 361/2/4 364/2/4
f 363/1/4 354/1/4 364/1/4
f 361/2/4 362/2/4 364/2/4
f 363/2/4 364/2/4 365/2/4
f 364/2/4 362/2/4 365/2/4
f 365/2/4 362/2/4 366/2/4
f 362/2/4 357/2/4 367/2/4
f 366/2/4 362/2/4 367/2/4
f 367/2/4 357/2/4 368/2/4
f 351/3/4 352/3/4 369/3/4
f 359/2/4 360/2/4 369/2/4
f 360/2/4 351/2/4 369/2/4
f 352/2/4 363/2/4 370/2/4
f 369/3/4 352/3/4 370/3/4
f 363/2/4 365/2/4 370/2/4
f 359/2/4 369/2/4 371/2/4
f 348/2/4 359/2/4 371/2/4
f 369/2/4 370/2/4 371/2/4
f 371/2/4 370/2/4 372/2/4
f 370/2/4 365/2/4 373/2/4
f 372/2/4 370/2/4 373/2/4
f 373/2/4 365/2/4 374/2/4
f 365/3/4 366/3/4 375/3/4
f 374/2/4 365/2/4 375/2/4
f 366/2/4 367/2/4 376/2/4
f 375/3/4 366/3/4 376/3/4
f 373/3/4 374/3/4 377/3/4
f 372/2/4 373/2/4 377/2/4
f 374/2/4 375/2/4 378/2/4
f 377/3/4 374/3/4 378/3/4
f 375/2/4 376/2/4 378/2/4
f 376/2/4 367/2/4 379/2/4
f 378/2/4 376/2/4 379/2/4
f 367/1/4 368/1/4 379/1/4
f 368/2/4 357/2/4 380/2/4
f 379/1/4 368/1/4 380/1/4
f 371/1/4 372/1/4 381/1/4
f 348/2/4 371/2/4 381/2/4
f 372/2/4 377/2/4 382/2/4
f 381/1/4 372/1/4 382/1/4
f 378/2/4 379/2/4 382/2/4
f 379/2/4 380/2/4 382/2/4
f 377/2/4 378/2/4 382/2/4
f 382/2/4 380/2/4 383/2/4
f 383/2/4 380/2/4 384/2/4
f 381/2/4 382/2/4 385/2/4
f 382/2/4 383/2/4 385/2/4
f 385/2/4 383/2/4 386/2/4
f 346/3/4 348/3/4 387/3/4
f 348/2/4 381/2/4 387/2/4
f 381/2/4 385/2/4 387/2/4
f 385/1/4 386/1/4 388/1/4
f 387/2/4 385/2/4 388/2/4
f 386/2/4 383/2/4 389/2/4
f 388/1/4 386/1/4 389/1/4
f 383/3/4 384/3/4 390/3/4
f 389/2/4 383/2/4 390/2/4
f 384/2/4 380/2/4 391/2/4
f 390/3/4 384/3/4 391/3/4
f 357/3/4 358/3/4 392/3/4
f 391/2/4 380/2/4 392/2/4
f 380/2/4 357/2/4 392/2/4
f 392/3/4 358/3/4 393/3/4
f 346/3/4 387/3/4 394/3/4
f 394/3/4 387/3/4 395/3/4
f 398/3/5 397/3/5 396/3/5
f 399/3/5 397/3/5 398/3/5
f 400/3/5 398/3/5 396/3/5
f 400/2/5 399/2/5 398/2/5
f 401/2/5 399/2/5 400/2/5
f 402/2/5 399/2/5 401/2/5
f 403/3/5 397/3/5 399/3/5
f 403/2/5 399/2/5 402/2/5
f 404/3/5 403/3/5 402/3/5
f 405/3/5 397/3/5 403/3/5
f 405/3/5 403/3/5 404/3/5
f 406/3/5 400/3/5 396/3/5
f 406/3/5 401/3/5 400/3/5
f 407/3/5 401/3/5 406/3/5
f 408/3/5 406/3/5 396/3/5
f 408/2/5 407/2/5 406/2/5
f 409/3/5 401/3/5 407/3/5
f 409/2/5 407/2/5 408/2/5
f 410/2/5 405/2/5 404/2/5
f 410/3/5 404/3/5 402/3/5
f 411/3/5 397/3/5 405/3/5
f 411/2/5 405/2/5 410/2/5
f 412/3/5 409/3/5 408/3/5
f 412/3/5 408/3/5 396/3/5
f 413/2/5 402/2/5 401/2/5
f 413/3/5 409/3/5 412/3/5
f 413/3/5 401/3/5 409/3/5
f 414/3/5 410/3/5 402/3/5
f 414/2/5 402/2/5 413/2/5
f 414/3/5 411/3/5 410/3/5
f 415/3/5 397/3/5 411/3/5
f 415/3/5 411/3/5 414/3/5
f 416/3/5 412/3/5 396/3/5
f 416/2/5 413/2/5 412/2/5
f 416/2/5 415/2/5 414/2/5
f 416/2/5 414/2/5 413/2/5
f 417/3/5 397/3/5 415/3/5
f 417/2/5 415/2/5 416/2/5
f 418/3/5 416/3/5 396/3/5
f 418/3/5 417/3/5 416/3/5
f 419/3/5 397/3/5 417/3/5
f 419/3/5 417/3/5 418/3/5
f 420/3/6 421/3/6 424/3/6
f 424/3/6 421/3/6 425/3/6
f 422/3/6 423/3/6 426/3/6
f 426/3/6 423/3/6 427/3/6
f 428/3/6 429/3/6 430/3/6
f 430/3/6 429/3/6 431/3/6
