# MagicaVoxel @ Ephtracy

# group
o 

# material
mtllib wallCandles.mtl
usemtl palette

# normals
vn -1 0 0
vn 1 0 0
vn 0 0 1
vn 0 0 -1
vn 0 -1 0
vn 0 1 0

# texcoords
vt 0.970703 0.5
vt 0.974609 0.5
vt 0.978516 0.5
vt 0.982422 0.5
vt 0.986328 0.5

# verts
v 0.2 2.4 -0.4
v 0.2 2.4 -0.5
v 0.2 2.6 -0.4
v 0.2 2.6 -0.5
v 0.2 2.7 -0.4
v 0.2 2.7 -0.5
v 0.2 2.8 -0.4
v 0.2 2.8 -0.5
v 0.2 2.9 -0.4
v 0.2 2.9 -0.5
v 0.2 3 -0.4
v 0.2 3 -0.5
v 0.3 2.3 -0.4
v 0.3 2.3 -0.5
v 0.3 2.4 -0.3
v 0.3 2.4 -0.4
v 0.3 2.4 -0.5
v 0.3 2.4 -0.6
v 0.3 2.5 -0.3
v 0.3 2.5 -0.4
v 0.3 2.5 -0.5
v 0.3 2.5 -0.6
v 0.4 2.2 -0.4
v 0.4 2.2 -0.5
v 0.4 2.3 -0.3
v 0.4 2.3 -0.4
v 0.4 2.3 -0.5
v 0.4 2.3 -0.6
v 0.4 2.4 -0.2
v 0.4 2.4 -0.3
v 0.4 2.4 -0.4
v 0.4 2.4 -0.5
v 0.4 2.4 -0.6
v 0.4 2.4 -0.7
v 0.4 2.5 -0.1
v 0.4 2.5 -0.2
v 0.4 2.5 -0.3
v 0.4 2.5 -0.6
v 0.4 2.5 -0.7
v 0.4 2.5 -0.8
v 0.4 2.6 -0.1
v 0.4 2.6 -0.2
v 0.4 2.6 -0.3
v 0.4 2.6 -0.6
v 0.4 2.6 -0.7
v 0.4 2.6 -0.8
v 0.4 2.7 -0.1
v 0.4 2.7 -0.2
v 0.4 2.7 -0.7
v 0.4 2.7 -0.8
v 0.4 2.8 -0.1
v 0.4 2.8 -0.2
v 0.4 2.8 -0.7
v 0.4 2.8 -0.8
v 0.4 2.9 -0.1
v 0.4 2.9 -0.2
v 0.4 2.9 -0.7
v 0.4 2.9 -0.8
v 0.4 3 -0.1
v 0.4 3 -0.2
v 0.4 3 -0.7
v 0.4 3 -0.8
v 0.7 2.1 -0.4
v 0.7 2.1 -0.5
v 0.7 2.2 -0.3
v 0.7 2.2 -0.4
v 0.7 2.2 -0.5
v 0.7 2.2 -0.6
v 0.7 2.3 -0.2
v 0.7 2.3 -0.3
v 0.7 2.3 -0.6
v 0.7 2.3 -0.7
v 0.7 2.4 -0.4
v 0.7 2.4 -0.5
v 0.7 2.5 -0.4
v 0.7 2.5 -0.5
v 0.7 2.8 -0.2
v 0.7 2.8 -0.3
v 0.7 2.8 -0.6
v 0.7 2.8 -0.7
v 0.7 3 -0.3
v 0.7 3 -0.4
v 0.7 3 -0.5
v 0.7 3 -0.6
v 0.7 3.1 -0.4
v 0.7 3.1 -0.5
v 0.3 2.5 -0.4
v 0.3 2.5 -0.5
v 0.3 2.6 -0.4
v 0.3 2.6 -0.5
v 0.3 2.7 -0.4
v 0.3 2.7 -0.5
v 0.3 2.8 -0.4
v 0.3 2.8 -0.5
v 0.3 2.9 -0.4
v 0.3 2.9 -0.5
v 0.3 3 -0.4
v 0.3 3 -0.5
v 0.5 2.2 -0.4
v 0.5 2.2 -0.5
v 0.5 2.3 -0.3
v 0.5 2.3 -0.4
v 0.5 2.3 -0.5
v 0.5 2.3 -0.6
v 0.5 2.4 -0.2
v 0.5 2.4 -0.3
v 0.5 2.4 -0.4
v 0.5 2.4 -0.5
v 0.5 2.4 -0.6
v 0.5 2.4 -0.7
v 0.5 2.5 -0.1
v 0.5 2.5 -0.2
v 0.5 2.5 -0.3
v 0.5 2.5 -0.4
v 0.5 2.5 -0.5
v 0.5 2.5 -0.6
v 0.5 2.5 -0.7
v 0.5 2.5 -0.8
v 0.5 2.6 -0.1
v 0.5 2.6 -0.2
v 0.5 2.6 -0.3
v 0.5 2.6 -0.6
v 0.5 2.6 -0.7
v 0.5 2.6 -0.8
v 0.5 2.7 -0.1
v 0.5 2.7 -0.2
v 0.5 2.7 -0.7
v 0.5 2.7 -0.8
v 0.5 2.8 -0.1
v 0.5 2.8 -0.2
v 0.5 2.8 -0.7
v 0.5 2.8 -0.8
v 0.5 2.9 -0.1
v 0.5 2.9 -0.2
v 0.5 2.9 -0.7
v 0.5 2.9 -0.8
v 0.5 3 -0.1
v 0.5 3 -0.2
v 0.5 3 -0.7
v 0.5 3 -0.8
v 0.8 2.1 -0.4
v 0.8 2.1 -0.5
v 0.8 2.2 -0.3
v 0.8 2.2 -0.4
v 0.8 2.2 -0.5
v 0.8 2.2 -0.6
v 0.8 2.3 -0.2
v 0.8 2.3 -0.3
v 0.8 2.3 -0.6
v 0.8 2.3 -0.7
v 0.8 2.8 -0.2
v 0.8 2.8 -0.3
v 0.8 2.8 -0.6
v 0.8 2.8 -0.7
v 0.8 3 -0.3
v 0.8 3 -0.4
v 0.8 3 -0.5
v 0.8 3 -0.6
v 0.8 3.1 -0.4
v 0.8 3.1 -0.5
v 0.4 2.5 -0.1
v 0.4 2.6 -0.1
v 0.4 2.7 -0.1
v 0.4 2.8 -0.1
v 0.4 2.9 -0.1
v 0.4 3 -0.1
v 0.5 2.5 -0.1
v 0.5 2.6 -0.1
v 0.5 2.7 -0.1
v 0.5 2.8 -0.1
v 0.5 2.9 -0.1
v 0.5 3 -0.1
v 0.4 2.4 -0.2
v 0.4 2.5 -0.2
v 0.5 2.4 -0.2
v 0.5 2.5 -0.2
v 0.7 2.3 -0.2
v 0.7 2.8 -0.2
v 0.8 2.3 -0.2
v 0.8 2.8 -0.2
v 0.3 2.4 -0.3
v 0.3 2.5 -0.3
v 0.4 2.3 -0.3
v 0.4 2.4 -0.3
v 0.4 2.5 -0.3
v 0.5 2.3 -0.3
v 0.5 2.4 -0.3
v 0.7 2.2 -0.3
v 0.7 2.3 -0.3
v 0.7 2.8 -0.3
v 0.7 3 -0.3
v 0.8 2.2 -0.3
v 0.8 2.3 -0.3
v 0.8 2.8 -0.3
v 0.8 3 -0.3
v 0.2 2.4 -0.4
v 0.2 2.6 -0.4
v 0.2 2.7 -0.4
v 0.2 2.8 -0.4
v 0.2 2.9 -0.4
v 0.2 3 -0.4
v 0.3 2.3 -0.4
v 0.3 2.4 -0.4
v 0.3 2.5 -0.4
v 0.3 2.6 -0.4
v 0.3 2.7 -0.4
v 0.3 2.8 -0.4
v 0.3 2.9 -0.4
v 0.3 3 -0.4
v 0.4 2.2 -0.4
v 0.4 2.3 -0.4
v 0.4 2.4 -0.4
v 0.5 2.2 -0.4
v 0.5 2.3 -0.4
v 0.5 2.4 -0.4
v 0.5 2.5 -0.4
v 0.7 2.1 -0.4
v 0.7 2.2 -0.4
v 0.7 2.4 -0.4
v 0.7 2.5 -0.4
v 0.7 3 -0.4
v 0.7 3.1 -0.4
v 0.8 2.1 -0.4
v 0.8 2.2 -0.4
v 0.8 3 -0.4
v 0.8 3.1 -0.4
v 0.4 2.5 -0.6
v 0.4 2.6 -0.6
v 0.5 2.5 -0.6
v 0.5 2.6 -0.6
v 0.4 2.6 -0.7
v 0.4 2.7 -0.7
v 0.4 2.8 -0.7
v 0.4 2.9 -0.7
v 0.4 3 -0.7
v 0.5 2.6 -0.7
v 0.5 2.7 -0.7
v 0.5 2.8 -0.7
v 0.5 2.9 -0.7
v 0.5 3 -0.7
v 0.4 2.6 -0.2
v 0.4 2.7 -0.2
v 0.4 2.8 -0.2
v 0.4 2.9 -0.2
v 0.4 3 -0.2
v 0.5 2.6 -0.2
v 0.5 2.7 -0.2
v 0.5 2.8 -0.2
v 0.5 2.9 -0.2
v 0.5 3 -0.2
v 0.4 2.5 -0.3
v 0.4 2.6 -0.3
v 0.5 2.5 -0.3
v 0.5 2.6 -0.3
v 0.2 2.4 -0.5
v 0.2 2.6 -0.5
v 0.2 2.7 -0.5
v 0.2 2.8 -0.5
v 0.2 2.9 -0.5
v 0.2 3 -0.5
v 0.3 2.3 -0.5
v 0.3 2.4 -0.5
v 0.3 2.5 -0.5
v 0.3 2.6 -0.5
v 0.3 2.7 -0.5
v 0.3 2.8 -0.5
v 0.3 2.9 -0.5
v 0.3 3 -0.5
v 0.4 2.2 -0.5
v 0.4 2.3 -0.5
v 0.4 2.4 -0.5
v 0.5 2.2 -0.5
v 0.5 2.3 -0.5
v 0.5 2.4 -0.5
v 0.5 2.5 -0.5
v 0.7 2.1 -0.5
v 0.7 2.2 -0.5
v 0.7 2.4 -0.5
v 0.7 2.5 -0.5
v 0.7 3 -0.5
v 0.7 3.1 -0.5
v 0.8 2.1 -0.5
v 0.8 2.2 -0.5
v 0.8 3 -0.5
v 0.8 3.1 -0.5
v 0.3 2.4 -0.6
v 0.3 2.5 -0.6
v 0.4 2.3 -0.6
v 0.4 2.4 -0.6
v 0.4 2.5 -0.6
v 0.5 2.3 -0.6
v 0.5 2.4 -0.6
v 0.7 2.2 -0.6
v 0.7 2.3 -0.6
v 0.7 2.8 -0.6
v 0.7 3 -0.6
v 0.8 2.2 -0.6
v 0.8 2.3 -0.6
v 0.8 2.8 -0.6
v 0.8 3 -0.6
v 0.4 2.4 -0.7
v 0.4 2.5 -0.7
v 0.5 2.4 -0.7
v 0.5 2.5 -0.7
v 0.7 2.3 -0.7
v 0.7 2.8 -0.7
v 0.8 2.3 -0.7
v 0.8 2.8 -0.7
v 0.4 2.5 -0.8
v 0.4 2.6 -0.8
v 0.4 2.7 -0.8
v 0.4 2.8 -0.8
v 0.4 2.9 -0.8
v 0.4 3 -0.8
v 0.5 2.5 -0.8
v 0.5 2.6 -0.8
v 0.5 2.7 -0.8
v 0.5 2.8 -0.8
v 0.5 2.9 -0.8
v 0.5 3 -0.8
v 0.7 2.1 -0.4
v 0.8 2.1 -0.4
v 0.7 2.1 -0.5
v 0.8 2.1 -0.5
v 0.7 2.2 -0.3
v 0.8 2.2 -0.3
v 0.4 2.2 -0.4
v 0.5 2.2 -0.4
v 0.7 2.2 -0.4
v 0.8 2.2 -0.4
v 0.4 2.2 -0.5
v 0.5 2.2 -0.5
v 0.7 2.2 -0.5
v 0.8 2.2 -0.5
v 0.7 2.2 -0.6
v 0.8 2.2 -0.6
v 0.7 2.3 -0.2
v 0.8 2.3 -0.2
v 0.4 2.3 -0.3
v 0.5 2.3 -0.3
v 0.7 2.3 -0.3
v 0.8 2.3 -0.3
v 0.3 2.3 -0.4
v 0.4 2.3 -0.4
v 0.5 2.3 -0.4
v 0.3 2.3 -0.5
v 0.4 2.3 -0.5
v 0.5 2.3 -0.5
v 0.4 2.3 -0.6
v 0.5 2.3 -0.6
v 0.7 2.3 -0.6
v 0.8 2.3 -0.6
v 0.7 2.3 -0.7
v 0.8 2.3 -0.7
v 0.4 2.4 -0.2
v 0.5 2.4 -0.2
v 0.3 2.4 -0.3
v 0.4 2.4 -0.3
v 0.5 2.4 -0.3
v 0.2 2.4 -0.4
v 0.3 2.4 -0.4
v 0.4 2.4 -0.4
v 0.5 2.4 -0.4
v 0.7 2.4 -0.4
v 0.2 2.4 -0.5
v 0.3 2.4 -0.5
v 0.4 2.4 -0.5
v 0.5 2.4 -0.5
v 0.7 2.4 -0.5
v 0.3 2.4 -0.6
v 0.4 2.4 -0.6
v 0.5 2.4 -0.6
v 0.4 2.4 -0.7
v 0.5 2.4 -0.7
v 0.4 2.5 -0.1
v 0.5 2.5 -0.1
v 0.4 2.5 -0.2
v 0.5 2.5 -0.2
v 0.4 2.5 -0.7
v 0.5 2.5 -0.7
v 0.4 2.5 -0.8
v 0.5 2.5 -0.8
v 0.3 2.5 -0.3
v 0.4 2.5 -0.3
v 0.5 2.5 -0.3
v 0.3 2.5 -0.4
v 0.5 2.5 -0.4
v 0.7 2.5 -0.4
v 0.3 2.5 -0.5
v 0.5 2.5 -0.5
v 0.7 2.5 -0.5
v 0.3 2.5 -0.6
v 0.4 2.5 -0.6
v 0.5 2.5 -0.6
v 0.4 2.6 -0.2
v 0.5 2.6 -0.2
v 0.4 2.6 -0.3
v 0.5 2.6 -0.3
v 0.4 2.6 -0.6
v 0.5 2.6 -0.6
v 0.4 2.6 -0.7
v 0.5 2.6 -0.7
v 0.7 2.8 -0.2
v 0.8 2.8 -0.2
v 0.7 2.8 -0.3
v 0.8 2.8 -0.3
v 0.7 2.8 -0.6
v 0.8 2.8 -0.6
v 0.7 2.8 -0.7
v 0.8 2.8 -0.7
v 0.4 3 -0.1
v 0.5 3 -0.1
v 0.4 3 -0.2
v 0.5 3 -0.2
v 0.7 3 -0.3
v 0.8 3 -0.3
v 0.2 3 -0.4
v 0.3 3 -0.4
v 0.7 3 -0.4
v 0.8 3 -0.4
v 0.2 3 -0.5
v 0.3 3 -0.5
v 0.7 3 -0.5
v 0.8 3 -0.5
v 0.7 3 -0.6
v 0.8 3 -0.6
v 0.4 3 -0.7
v 0.5 3 -0.7
v 0.4 3 -0.8
v 0.5 3 -0.8
v 0.7 3.1 -0.4
v 0.8 3.1 -0.4
v 0.7 3.1 -0.5
v 0.8 3.1 -0.5

# faces
f 3/5/1 2/5/1 1/5/1
f 4/5/1 2/5/1 3/5/1
f 5/1/1 4/1/1 3/1/1
f 6/1/1 4/1/1 5/1/1
f 7/2/1 6/2/1 5/2/1
f 8/2/1 6/2/1 7/2/1
f 9/3/1 8/3/1 7/3/1
f 10/3/1 8/3/1 9/3/1
f 11/4/1 10/4/1 9/4/1
f 12/4/1 10/4/1 11/4/1
f 16/5/1 14/5/1 13/5/1
f 17/5/1 14/5/1 16/5/1
f 19/5/1 16/5/1 15/5/1
f 20/5/1 16/5/1 19/5/1
f 21/5/1 18/5/1 17/5/1
f 22/5/1 18/5/1 21/5/1
f 26/5/1 24/5/1 23/5/1
f 27/5/1 24/5/1 26/5/1
f 30/5/1 26/5/1 25/5/1
f 31/5/1 26/5/1 30/5/1
f 32/5/1 28/5/1 27/5/1
f 33/5/1 28/5/1 32/5/1
f 36/5/1 30/5/1 29/5/1
f 37/5/1 30/5/1 36/5/1
f 38/5/1 34/5/1 33/5/1
f 39/5/1 34/5/1 38/5/1
f 41/5/1 37/5/1 36/5/1
f 41/5/1 36/5/1 35/5/1
f 42/5/1 37/5/1 41/5/1
f 43/5/1 37/5/1 42/5/1
f 44/5/1 40/5/1 39/5/1
f 44/5/1 39/5/1 38/5/1
f 45/5/1 40/5/1 44/5/1
f 46/5/1 40/5/1 45/5/1
f 47/1/1 42/1/1 41/1/1
f 48/1/1 42/1/1 47/1/1
f 49/1/1 46/1/1 45/1/1
f 50/1/1 46/1/1 49/1/1
f 51/2/1 48/2/1 47/2/1
f 52/2/1 48/2/1 51/2/1
f 53/2/1 50/2/1 49/2/1
f 54/2/1 50/2/1 53/2/1
f 55/3/1 52/3/1 51/3/1
f 56/3/1 52/3/1 55/3/1
f 57/3/1 54/3/1 53/3/1
f 58/3/1 54/3/1 57/3/1
f 59/4/1 56/4/1 55/4/1
f 60/4/1 56/4/1 59/4/1
f 61/4/1 58/4/1 57/4/1
f 62/4/1 58/4/1 61/4/1
f 66/5/1 64/5/1 63/5/1
f 67/5/1 64/5/1 66/5/1
f 70/5/1 66/5/1 65/5/1
f 70/5/1 68/5/1 67/5/1
f 70/5/1 67/5/1 66/5/1
f 71/5/1 68/5/1 70/5/1
f 73/5/1 70/5/1 69/5/1
f 73/5/1 72/5/1 71/5/1
f 73/5/1 71/5/1 70/5/1
f 74/5/1 72/5/1 73/5/1
f 75/5/1 73/5/1 69/5/1
f 76/5/1 72/5/1 74/5/1
f 77/5/1 75/5/1 69/5/1
f 77/5/1 76/5/1 75/5/1
f 78/5/1 76/5/1 77/5/1
f 79/5/1 72/5/1 76/5/1
f 79/5/1 76/5/1 78/5/1
f 80/5/1 72/5/1 79/5/1
f 81/5/1 79/5/1 78/5/1
f 82/5/1 79/5/1 81/5/1
f 83/5/1 79/5/1 82/5/1
f 84/5/1 79/5/1 83/5/1
f 85/5/1 83/5/1 82/5/1
f 86/5/1 83/5/1 85/5/1
f 87/5/2 88/5/2 89/5/2
f 89/5/2 88/5/2 90/5/2
f 89/1/2 90/1/2 91/1/2
f 91/1/2 90/1/2 92/1/2
f 91/2/2 92/2/2 93/2/2
f 93/2/2 92/2/2 94/2/2
f 93/3/2 94/3/2 95/3/2
f 95/3/2 94/3/2 96/3/2
f 95/4/2 96/4/2 97/4/2
f 97/4/2 96/4/2 98/4/2
f 99/5/2 100/5/2 102/5/2
f 102/5/2 100/5/2 103/5/2
f 101/5/2 102/5/2 106/5/2
f 103/5/2 104/5/2 106/5/2
f 102/5/2 103/5/2 106/5/2
f 106/5/2 104/5/2 107/5/2
f 107/5/2 104/5/2 108/5/2
f 108/5/2 104/5/2 109/5/2
f 105/5/2 106/5/2 112/5/2
f 106/5/2 107/5/2 112/5/2
f 112/5/2 107/5/2 113/5/2
f 113/5/2 107/5/2 114/5/2
f 108/5/2 109/5/2 115/5/2
f 109/5/2 110/5/2 115/5/2
f 115/5/2 110/5/2 116/5/2
f 116/5/2 110/5/2 117/5/2
f 112/5/2 113/5/2 119/5/2
f 111/5/2 112/5/2 119/5/2
f 119/5/2 113/5/2 120/5/2
f 120/5/2 113/5/2 121/5/2
f 117/5/2 118/5/2 122/5/2
f 116/5/2 117/5/2 122/5/2
f 122/5/2 118/5/2 123/5/2
f 123/5/2 118/5/2 124/5/2
f 119/1/2 120/1/2 125/1/2
f 125/1/2 120/1/2 126/1/2
f 123/1/2 124/1/2 127/1/2
f 127/1/2 124/1/2 128/1/2
f 125/2/2 126/2/2 129/2/2
f 129/2/2 126/2/2 130/2/2
f 127/2/2 128/2/2 131/2/2
f 131/2/2 128/2/2 132/2/2
f 129/3/2 130/3/2 133/3/2
f 133/3/2 130/3/2 134/3/2
f 131/3/2 132/3/2 135/3/2
f 135/3/2 132/3/2 136/3/2
f 133/4/2 134/4/2 137/4/2
f 137/4/2 134/4/2 138/4/2
f 135/4/2 136/4/2 139/4/2
f 139/4/2 136/4/2 140/4/2
f 141/5/2 142/5/2 144/5/2
f 144/5/2 142/5/2 145/5/2
f 143/5/2 144/5/2 148/5/2
f 145/5/2 146/5/2 148/5/2
f 144/5/2 145/5/2 148/5/2
f 148/5/2 146/5/2 149/5/2
f 147/5/2 148/5/2 151/5/2
f 149/5/2 150/5/2 151/5/2
f 148/5/2 149/5/2 151/5/2
f 151/5/2 150/5/2 152/5/2
f 152/5/2 150/5/2 153/5/2
f 153/5/2 150/5/2 154/5/2
f 152/5/2 153/5/2 155/5/2
f 155/5/2 153/5/2 156/5/2
f 156/5/2 153/5/2 157/5/2
f 157/5/2 153/5/2 158/5/2
f 156/5/2 157/5/2 159/5/2
f 159/5/2 157/5/2 160/5/2
f 167/5/3 162/5/3 161/5/3
f 168/1/3 163/1/3 162/1/3
f 168/5/3 162/5/3 167/5/3
f 169/2/3 164/2/3 163/2/3
f 169/1/3 163/1/3 168/1/3
f 170/3/3 165/3/3 164/3/3
f 170/2/3 164/2/3 169/2/3
f 171/4/3 166/4/3 165/4/3
f 171/3/3 165/3/3 170/3/3
f 172/4/3 166/4/3 171/4/3
f 175/5/3 174/5/3 173/5/3
f 176/5/3 174/5/3 175/5/3
f 179/5/3 178/5/3 177/5/3
f 180/5/3 178/5/3 179/5/3
f 184/5/3 182/5/3 181/5/3
f 185/5/3 182/5/3 184/5/3
f 186/5/3 184/5/3 183/5/3
f 187/5/3 184/5/3 186/5/3
f 192/5/3 189/5/3 188/5/3
f 193/5/3 189/5/3 192/5/3
f 194/5/3 191/5/3 190/5/3
f 195/5/3 191/5/3 194/5/3
f 203/5/3 197/5/3 196/5/3
f 204/5/3 197/5/3 203/5/3
f 205/1/3 198/1/3 197/1/3
f 205/5/3 197/5/3 204/5/3
f 206/2/3 199/2/3 198/2/3
f 206/1/3 198/1/3 205/1/3
f 207/3/3 200/3/3 199/3/3
f 207/2/3 199/2/3 206/2/3
f 208/4/3 201/4/3 200/4/3
f 208/3/3 200/3/3 207/3/3
f 209/4/3 201/4/3 208/4/3
f 211/5/3 203/5/3 202/5/3
f 212/5/3 203/5/3 211/5/3
f 213/5/3 211/5/3 210/5/3
f 214/5/3 211/5/3 213/5/3
f 219/5/3 216/5/3 215/5/3
f 220/5/3 216/5/3 219/5/3
f 223/5/3 218/5/3 217/5/3
f 224/5/3 218/5/3 223/5/3
f 225/5/3 222/5/3 221/5/3
f 226/5/3 222/5/3 225/5/3
f 229/5/3 228/5/3 227/5/3
f 230/5/3 228/5/3 229/5/3
f 236/1/3 232/1/3 231/1/3
f 237/2/3 233/2/3 232/2/3
f 237/1/3 232/1/3 236/1/3
f 238/3/3 234/3/3 233/3/3
f 238/2/3 233/2/3 237/2/3
f 239/4/3 235/4/3 234/4/3
f 239/3/3 234/3/3 238/3/3
f 240/4/3 235/4/3 239/4/3
f 241/1/4 242/1/4 246/1/4
f 242/2/4 243/2/4 247/2/4
f 246/1/4 242/1/4 247/1/4
f 243/3/4 244/3/4 248/3/4
f 247/2/4 243/2/4 248/2/4
f 244/4/4 245/4/4 249/4/4
f 248/3/4 244/3/4 249/3/4
f 249/4/4 245/4/4 250/4/4
f 251/5/4 252/5/4 253/5/4
f 253/5/4 252/5/4 254/5/4
f 255/5/4 256/5/4 262/5/4
f 262/5/4 256/5/4 263/5/4
f 256/1/4 257/1/4 264/1/4
f 263/5/4 256/5/4 264/5/4
f 257/2/4 258/2/4 265/2/4
f 264/1/4 257/1/4 265/1/4
f 258/3/4 259/3/4 266/3/4
f 265/2/4 258/2/4 266/2/4
f 259/4/4 260/4/4 267/4/4
f 266/3/4 259/3/4 267/3/4
f 267/4/4 260/4/4 268/4/4
f 261/5/4 262/5/4 270/5/4
f 270/5/4 262/5/4 271/5/4
f 269/5/4 270/5/4 272/5/4
f 272/5/4 270/5/4 273/5/4
f 274/5/4 275/5/4 278/5/4
f 278/5/4 275/5/4 279/5/4
f 276/5/4 277/5/4 282/5/4
f 282/5/4 277/5/4 283/5/4
f 280/5/4 281/5/4 284/5/4
f 284/5/4 281/5/4 285/5/4
f 286/5/4 287/5/4 289/5/4
f 289/5/4 287/5/4 290/5/4
f 288/5/4 289/5/4 291/5/4
f 291/5/4 289/5/4 292/5/4
f 293/5/4 294/5/4 297/5/4
f 297/5/4 294/5/4 298/5/4
f 295/5/4 296/5/4 299/5/4
f 299/5/4 296/5/4 300/5/4
f 301/5/4 302/5/4 303/5/4
f 303/5/4 302/5/4 304/5/4
f 305/5/4 306/5/4 307/5/4
f 307/5/4 306/5/4 308/5/4
f 309/5/4 310/5/4 315/5/4
f 310/1/4 311/1/4 316/1/4
f 315/5/4 310/5/4 316/5/4
f 311/2/4 312/2/4 317/2/4
f 316/1/4 311/1/4 317/1/4
f 312/3/4 313/3/4 318/3/4
f 317/2/4 312/2/4 318/2/4
f 313/4/4 314/4/4 319/4/4
f 318/3/4 313/3/4 319/3/4
f 319/4/4 314/4/4 320/4/4
f 323/5/5 322/5/5 321/5/5
f 324/5/5 322/5/5 323/5/5
f 329/5/5 326/5/5 325/5/5
f 330/5/5 326/5/5 329/5/5
f 331/5/5 328/5/5 327/5/5
f 332/5/5 328/5/5 331/5/5
f 335/5/5 334/5/5 333/5/5
f 336/5/5 334/5/5 335/5/5
f 341/5/5 338/5/5 337/5/5
f 342/5/5 338/5/5 341/5/5
f 344/5/5 340/5/5 339/5/5
f 345/5/5 340/5/5 344/5/5
f 346/5/5 344/5/5 343/5/5
f 347/5/5 344/5/5 346/5/5
f 349/5/5 348/5/5 347/5/5
f 350/5/5 348/5/5 349/5/5
f 353/5/5 352/5/5 351/5/5
f 354/5/5 352/5/5 353/5/5
f 358/5/5 356/5/5 355/5/5
f 359/5/5 356/5/5 358/5/5
f 361/5/5 358/5/5 357/5/5
f 362/5/5 358/5/5 361/5/5
f 365/5/5 361/5/5 360/5/5
f 366/5/5 361/5/5 365/5/5
f 368/5/5 364/5/5 363/5/5
f 369/5/5 364/5/5 368/5/5
f 370/5/5 367/5/5 366/5/5
f 371/5/5 367/5/5 370/5/5
f 373/5/5 372/5/5 371/5/5
f 374/5/5 372/5/5 373/5/5
f 377/5/5 376/5/5 375/5/5
f 378/5/5 376/5/5 377/5/5
f 381/5/5 380/5/5 379/5/5
f 382/5/5 380/5/5 381/5/5
f 383/5/6 384/5/6 386/5/6
f 384/5/6 385/5/6 386/5/6
f 386/5/6 385/5/6 387/5/6
f 386/5/6 387/5/6 389/5/6
f 387/5/6 388/5/6 389/5/6
f 389/5/6 388/5/6 390/5/6
f 390/5/6 388/5/6 391/5/6
f 389/5/6 390/5/6 392/5/6
f 392/5/6 390/5/6 393/5/6
f 393/5/6 390/5/6 394/5/6
f 395/5/6 396/5/6 397/5/6
f 397/5/6 396/5/6 398/5/6
f 399/5/6 400/5/6 401/5/6
f 401/5/6 400/5/6 402/5/6
f 403/5/6 404/5/6 405/5/6
f 405/5/6 404/5/6 406/5/6
f 407/5/6 408/5/6 409/5/6
f 409/5/6 408/5/6 410/5/6
f 411/4/6 412/4/6 413/4/6
f 413/4/6 412/4/6 414/4/6
f 415/5/6 416/5/6 419/5/6
f 419/5/6 416/5/6 420/5/6
f 417/4/6 418/4/6 421/4/6
f 421/4/6 418/4/6 422/4/6
f 423/5/6 424/5/6 425/5/6
f 425/5/6 424/5/6 426/5/6
f 427/4/6 428/4/6 429/4/6
f 429/4/6 428/4/6 430/4/6
f 431/5/6 432/5/6 433/5/6
f 433/5/6 432/5/6 434/5/6
