# MagicaVoxel @ Ephtracy

# group
o 

# material
mtllib wallBanner.mtl
usemtl palette

# normals
vn -1 0 0
vn 1 0 0
vn 0 0 1
vn 0 0 -1
vn 0 -1 0
vn 0 1 0

# texcoords
vt 0.146484 0.5
vt 0.337891 0.5
vt 0.919922 0.5

# verts
v 0 2 -2.2
v 0 2 -2.3
v 0 2.1 -2.1
v 0 2.1 -2.2
v 0 2.1 -2.3
v 0 2.1 -2.4
v 0 2.2 -2
v 0 2.2 -2.1
v 0 2.2 -2.2
v 0 2.2 -2.3
v 0 2.2 -2.4
v 0 2.2 -2.5
v 0 2.3 -2.1
v 0 2.3 -2.2
v 0 2.3 -2.3
v 0 2.3 -2.4
v 0 2.5 -1.9
v 0 2.5 -2
v 0 2.5 -2.5
v 0 2.5 -2.6
v 0 2.6 -2
v 0 2.6 -2.1
v 0 2.6 -2.4
v 0 2.6 -2.5
v 0 2.8 -0.8
v 0 2.8 -0.9
v 0 2.8 -3.6
v 0 2.8 -3.7
v 0 2.9 -0.2
v 0 2.9 -0.3
v 0 2.9 -0.7
v 0 2.9 -0.8
v 0 2.9 -0.9
v 0 2.9 -1
v 0 2.9 -1.5
v 0 2.9 -1.6
v 0 2.9 -2.9
v 0 2.9 -3
v 0 2.9 -3.5
v 0 2.9 -3.6
v 0 2.9 -3.7
v 0 2.9 -3.8
v 0 2.9 -4.2
v 0 2.9 -4.3
v 0 3 -0.1
v 0 3 -0.2
v 0 3 -0.3
v 0 3 -0.4
v 0 3 -0.7
v 0 3 -0.8
v 0 3 -0.9
v 0 3 -1
v 0 3 -1.4
v 0 3 -1.5
v 0 3 -1.6
v 0 3 -1.7
v 0 3 -2.8
v 0 3 -2.9
v 0 3 -3
v 0 3 -3.1
v 0 3 -3.5
v 0 3 -3.6
v 0 3 -3.7
v 0 3 -3.8
v 0 3 -4.1
v 0 3 -4.2
v 0 3 -4.3
v 0 3 -4.4
v 0 3.1 -0.1
v 0 3.1 -0.2
v 0 3.1 -0.3
v 0 3.1 -0.4
v 0 3.1 -1.4
v 0 3.1 -1.5
v 0 3.1 -1.6
v 0 3.1 -1.7
v 0 3.1 -2.8
v 0 3.1 -2.9
v 0 3.1 -3
v 0 3.1 -3.1
v 0 3.1 -4.1
v 0 3.1 -4.2
v 0 3.1 -4.3
v 0 3.1 -4.4
v 0 3.2 -0.5
v 0 3.2 -0.7
v 0 3.2 -1
v 0 3.2 -1.3
v 0 3.2 -3.2
v 0 3.2 -3.5
v 0 3.2 -3.8
v 0 3.2 -4
v 0 3.3 -0.1
v 0 3.3 -0.4
v 0 3.3 -0.5
v 0 3.3 -1.3
v 0 3.3 -1.4
v 0 3.3 -1.7
v 0 3.3 -2.8
v 0 3.3 -3.1
v 0 3.3 -3.2
v 0 3.3 -4
v 0 3.3 -4.1
v 0 3.3 -4.4
v 0 3.4 0
v 0 3.4 -0.1
v 0 3.4 -0.5
v 0 3.4 -1.3
v 0 3.4 -1.7
v 0 3.4 -1.9
v 0 3.4 -2
v 0 3.4 -2.5
v 0 3.4 -2.6
v 0 3.4 -2.8
v 0 3.4 -3.2
v 0 3.4 -4
v 0 3.4 -4.4
v 0 3.4 -4.5
v 0 3.5 0
v 0 3.5 -0.1
v 0 3.5 -1.7
v 0 3.5 -2.8
v 0 3.5 -4.4
v 0 3.5 -4.5
v 0.1 2 -2.2
v 0.1 2 -2.3
v 0.1 2.1 -2.1
v 0.1 2.1 -2.2
v 0.1 2.1 -2.3
v 0.1 2.1 -2.4
v 0.1 2.2 -2
v 0.1 2.2 -2.1
v 0.1 2.2 -2.2
v 0.1 2.2 -2.3
v 0.1 2.2 -2.4
v 0.1 2.2 -2.5
v 0.1 2.3 -2.1
v 0.1 2.3 -2.2
v 0.1 2.3 -2.3
v 0.1 2.3 -2.4
v 0.1 2.5 -1.9
v 0.1 2.5 -2
v 0.1 2.5 -2.5
v 0.1 2.5 -2.6
v 0.1 2.6 -2
v 0.1 2.6 -2.1
v 0.1 2.6 -2.4
v 0.1 2.6 -2.5
v 0.1 2.8 -0.8
v 0.1 2.8 -0.9
v 0.1 2.8 -3.6
v 0.1 2.8 -3.7
v 0.1 2.9 -0.2
v 0.1 2.9 -0.3
v 0.1 2.9 -0.7
v 0.1 2.9 -0.8
v 0.1 2.9 -0.9
v 0.1 2.9 -1
v 0.1 2.9 -1.5
v 0.1 2.9 -1.6
v 0.1 2.9 -2.9
v 0.1 2.9 -3
v 0.1 2.9 -3.5
v 0.1 2.9 -3.6
v 0.1 2.9 -3.7
v 0.1 2.9 -3.8
v 0.1 2.9 -4.2
v 0.1 2.9 -4.3
v 0.1 3 -0.1
v 0.1 3 -0.2
v 0.1 3 -0.3
v 0.1 3 -0.4
v 0.1 3 -0.7
v 0.1 3 -0.8
v 0.1 3 -0.9
v 0.1 3 -1
v 0.1 3 -1.4
v 0.1 3 -1.5
v 0.1 3 -1.6
v 0.1 3 -1.7
v 0.1 3 -2.8
v 0.1 3 -2.9
v 0.1 3 -3
v 0.1 3 -3.1
v 0.1 3 -3.5
v 0.1 3 -3.6
v 0.1 3 -3.7
v 0.1 3 -3.8
v 0.1 3 -4.1
v 0.1 3 -4.2
v 0.1 3 -4.3
v 0.1 3 -4.4
v 0.1 3.1 -0.1
v 0.1 3.1 -0.2
v 0.1 3.1 -0.3
v 0.1 3.1 -0.4
v 0.1 3.1 -1.4
v 0.1 3.1 -1.5
v 0.1 3.1 -1.6
v 0.1 3.1 -1.7
v 0.1 3.1 -2.8
v 0.1 3.1 -2.9
v 0.1 3.1 -3
v 0.1 3.1 -3.1
v 0.1 3.1 -4.1
v 0.1 3.1 -4.2
v 0.1 3.1 -4.3
v 0.1 3.1 -4.4
v 0.1 3.2 -0.5
v 0.1 3.2 -0.7
v 0.1 3.2 -1
v 0.1 3.2 -1.3
v 0.1 3.2 -3.2
v 0.1 3.2 -3.5
v 0.1 3.2 -3.8
v 0.1 3.2 -4
v 0.1 3.3 -0.1
v 0.1 3.3 -0.4
v 0.1 3.3 -0.5
v 0.1 3.3 -1.3
v 0.1 3.3 -1.4
v 0.1 3.3 -1.7
v 0.1 3.3 -2.8
v 0.1 3.3 -3.1
v 0.1 3.3 -3.2
v 0.1 3.3 -4
v 0.1 3.3 -4.1
v 0.1 3.3 -4.4
v 0.1 3.4 0
v 0.1 3.4 -0.1
v 0.1 3.4 -0.5
v 0.1 3.4 -1.3
v 0.1 3.4 -1.7
v 0.1 3.4 -1.9
v 0.1 3.4 -2
v 0.1 3.4 -2.5
v 0.1 3.4 -2.6
v 0.1 3.4 -2.8
v 0.1 3.4 -3.2
v 0.1 3.4 -4
v 0.1 3.4 -4.4
v 0.1 3.4 -4.5
v 0.1 3.5 0
v 0.1 3.5 -0.1
v 0.1 3.5 -1.7
v 0.1 3.5 -2.8
v 0.1 3.5 -4.4
v 0.1 3.5 -4.5
v 0 3.4 0
v 0 3.5 0
v 0.1 3.4 0
v 0.1 3.5 0
v 0 3 -0.1
v 0 3.1 -0.1
v 0 3.3 -0.1
v 0 3.4 -0.1
v 0.1 3 -0.1
v 0.1 3.1 -0.1
v 0.1 3.3 -0.1
v 0.1 3.4 -0.1
v 0 2.9 -0.2
v 0 3 -0.2
v 0.1 2.9 -0.2
v 0.1 3 -0.2
v 0 3.2 -0.5
v 0 3.3 -0.5
v 0.1 3.2 -0.5
v 0.1 3.3 -0.5
v 0 2.9 -0.7
v 0 3 -0.7
v 0 3.2 -0.7
v 0.1 2.9 -0.7
v 0.1 3 -0.7
v 0.1 3.2 -0.7
v 0 2.8 -0.8
v 0 2.9 -0.8
v 0.1 2.8 -0.8
v 0.1 2.9 -0.8
v 0 3.3 -1.3
v 0 3.4 -1.3
v 0.1 3.3 -1.3
v 0.1 3.4 -1.3
v 0 3 -1.4
v 0 3.1 -1.4
v 0 3.3 -1.4
v 0.1 3 -1.4
v 0.1 3.1 -1.4
v 0.1 3.3 -1.4
v 0 2.9 -1.5
v 0 3 -1.5
v 0.1 2.9 -1.5
v 0.1 3 -1.5
v 0 3.4 -1.7
v 0 3.5 -1.7
v 0.1 3.4 -1.7
v 0.1 3.5 -1.7
v 0 2.5 -1.9
v 0 3.4 -1.9
v 0.1 2.5 -1.9
v 0.1 3.4 -1.9
v 0 2.2 -2
v 0 2.5 -2
v 0.1 2.2 -2
v 0.1 2.5 -2
v 0 2.1 -2.1
v 0 2.2 -2.1
v 0.1 2.1 -2.1
v 0.1 2.2 -2.1
v 0 2 -2.2
v 0 2.1 -2.2
v 0.1 2 -2.2
v 0.1 2.1 -2.2
v 0 3 -2.8
v 0 3.1 -2.8
v 0 3.3 -2.8
v 0 3.4 -2.8
v 0.1 3 -2.8
v 0.1 3.1 -2.8
v 0.1 3.3 -2.8
v 0.1 3.4 -2.8
v 0 2.9 -2.9
v 0 3 -2.9
v 0.1 2.9 -2.9
v 0.1 3 -2.9
v 0 3.2 -3.2
v 0 3.3 -3.2
v 0.1 3.2 -3.2
v 0.1 3.3 -3.2
v 0 2.9 -3.5
v 0 3 -3.5
v 0 3.2 -3.5
v 0.1 2.9 -3.5
v 0.1 3 -3.5
v 0.1 3.2 -3.5
v 0 2.8 -3.6
v 0 2.9 -3.6
v 0.1 2.8 -3.6
v 0.1 2.9 -3.6
v 0 3.3 -4
v 0 3.4 -4
v 0.1 3.3 -4
v 0.1 3.4 -4
v 0 3 -4.1
v 0 3.1 -4.1
v 0 3.3 -4.1
v 0.1 3 -4.1
v 0.1 3.1 -4.1
v 0.1 3.3 -4.1
v 0 2.9 -4.2
v 0 3 -4.2
v 0.1 2.9 -4.2
v 0.1 3 -4.2
v 0 3.4 -4.4
v 0 3.5 -4.4
v 0.1 3.4 -4.4
v 0.1 3.5 -4.4
v 0 3.4 -0.1
v 0 3.5 -0.1
v 0.1 3.4 -0.1
v 0.1 3.5 -0.1
v 0 2.9 -0.3
v 0 3 -0.3
v 0.1 2.9 -0.3
v 0.1 3 -0.3
v 0 3 -0.4
v 0 3.1 -0.4
v 0 3.3 -0.4
v 0.1 3 -0.4
v 0.1 3.1 -0.4
v 0.1 3.3 -0.4
v 0 3.3 -0.5
v 0 3.4 -0.5
v 0.1 3.3 -0.5
v 0.1 3.4 -0.5
v 0 2.8 -0.9
v 0 2.9 -0.9
v 0.1 2.8 -0.9
v 0.1 2.9 -0.9
v 0 2.9 -1
v 0 3 -1
v 0 3.2 -1
v 0.1 2.9 -1
v 0.1 3 -1
v 0.1 3.2 -1
v 0 3.2 -1.3
v 0 3.3 -1.3
v 0.1 3.2 -1.3
v 0.1 3.3 -1.3
v 0 2.9 -1.6
v 0 3 -1.6
v 0.1 2.9 -1.6
v 0.1 3 -1.6
v 0 3 -1.7
v 0 3.1 -1.7
v 0 3.3 -1.7
v 0 3.4 -1.7
v 0.1 3 -1.7
v 0.1 3.1 -1.7
v 0.1 3.3 -1.7
v 0.1 3.4 -1.7
v 0 2 -2.3
v 0 2.1 -2.3
v 0.1 2 -2.3
v 0.1 2.1 -2.3
v 0 2.1 -2.4
v 0 2.2 -2.4
v 0.1 2.1 -2.4
v 0.1 2.2 -2.4
v 0 2.2 -2.5
v 0 2.5 -2.5
v 0.1 2.2 -2.5
v 0.1 2.5 -2.5
v 0 2.5 -2.6
v 0 3.4 -2.6
v 0.1 2.5 -2.6
v 0.1 3.4 -2.6
v 0 3.4 -2.8
v 0 3.5 -2.8
v 0.1 3.4 -2.8
v 0.1 3.5 -2.8
v 0 2.9 -3
v 0 3 -3
v 0.1 2.9 -3
v 0.1 3 -3
v 0 3 -3.1
v 0 3.1 -3.1
v 0 3.3 -3.1
v 0.1 3 -3.1
v 0.1 3.1 -3.1
v 0.1 3.3 -3.1
v 0 3.3 -3.2
v 0 3.4 -3.2
v 0.1 3.3 -3.2
v 0.1 3.4 -3.2
v 0 2.8 -3.7
v 0 2.9 -3.7
v 0.1 2.8 -3.7
v 0.1 2.9 -3.7
v 0 2.9 -3.8
v 0 3 -3.8
v 0 3.2 -3.8
v 0.1 2.9 -3.8
v 0.1 3 -3.8
v 0.1 3.2 -3.8
v 0 3.2 -4
v 0 3.3 -4
v 0.1 3.2 -4
v 0.1 3.3 -4
v 0 2.9 -4.3
v 0 3 -4.3
v 0.1 2.9 -4.3
v 0.1 3 -4.3
v 0 3 -4.4
v 0 3.1 -4.4
v 0 3.3 -4.4
v 0 3.4 -4.4
v 0.1 3 -4.4
v 0.1 3.1 -4.4
v 0.1 3.3 -4.4
v 0.1 3.4 -4.4
v 0 3.4 -4.5
v 0 3.5 -4.5
v 0.1 3.4 -4.5
v 0.1 3.5 -4.5
v 0 2 -2.2
v 0.1 2 -2.2
v 0 2 -2.3
v 0.1 2 -2.3
v 0 2.1 -2.1
v 0.1 2.1 -2.1
v 0 2.1 -2.2
v 0.1 2.1 -2.2
v 0 2.1 -2.3
v 0.1 2.1 -2.3
v 0 2.1 -2.4
v 0.1 2.1 -2.4
v 0 2.2 -2
v 0.1 2.2 -2
v 0 2.2 -2.1
v 0.1 2.2 -2.1
v 0 2.2 -2.4
v 0.1 2.2 -2.4
v 0 2.2 -2.5
v 0.1 2.2 -2.5
v 0 2.5 -1.9
v 0.1 2.5 -1.9
v 0 2.5 -2
v 0.1 2.5 -2
v 0 2.5 -2.5
v 0.1 2.5 -2.5
v 0 2.5 -2.6
v 0.1 2.5 -2.6
v 0 2.8 -0.8
v 0.1 2.8 -0.8
v 0 2.8 -0.9
v 0.1 2.8 -0.9
v 0 2.8 -3.6
v 0.1 2.8 -3.6
v 0 2.8 -3.7
v 0.1 2.8 -3.7
v 0 2.9 -0.2
v 0.1 2.9 -0.2
v 0 2.9 -0.3
v 0.1 2.9 -0.3
v 0 2.9 -0.7
v 0.1 2.9 -0.7
v 0 2.9 -0.8
v 0.1 2.9 -0.8
v 0 2.9 -0.9
v 0.1 2.9 -0.9
v 0 2.9 -1
v 0.1 2.9 -1
v 0 2.9 -1.5
v 0.1 2.9 -1.5
v 0 2.9 -1.6
v 0.1 2.9 -1.6
v 0 2.9 -2.9
v 0.1 2.9 -2.9
v 0 2.9 -3
v 0.1 2.9 -3
v 0 2.9 -3.5
v 0.1 2.9 -3.5
v 0 2.9 -3.6
v 0.1 2.9 -3.6
v 0 2.9 -3.7
v 0.1 2.9 -3.7
v 0 2.9 -3.8
v 0.1 2.9 -3.8
v 0 2.9 -4.2
v 0.1 2.9 -4.2
v 0 2.9 -4.3
v 0.1 2.9 -4.3
v 0 3 -0.1
v 0.1 3 -0.1
v 0 3 -0.2
v 0.1 3 -0.2
v 0 3 -0.3
v 0.1 3 -0.3
v 0 3 -0.4
v 0.1 3 -0.4
v 0 3 -1.4
v 0.1 3 -1.4
v 0 3 -1.5
v 0.1 3 -1.5
v 0 3 -1.6
v 0.1 3 -1.6
v 0 3 -1.7
v 0.1 3 -1.7
v 0 3 -2.8
v 0.1 3 -2.8
v 0 3 -2.9
v 0.1 3 -2.9
v 0 3 -3
v 0.1 3 -3
v 0 3 -3.1
v 0.1 3 -3.1
v 0 3 -4.1
v 0.1 3 -4.1
v 0 3 -4.2
v 0.1 3 -4.2
v 0 3 -4.3
v 0.1 3 -4.3
v 0 3 -4.4
v 0.1 3 -4.4
v 0 3.2 -0.5
v 0.1 3.2 -0.5
v 0 3.2 -0.7
v 0.1 3.2 -0.7
v 0 3.2 -1
v 0.1 3.2 -1
v 0 3.2 -1.3
v 0.1 3.2 -1.3
v 0 3.2 -3.2
v 0.1 3.2 -3.2
v 0 3.2 -3.5
v 0.1 3.2 -3.5
v 0 3.2 -3.8
v 0.1 3.2 -3.8
v 0 3.2 -4
v 0.1 3.2 -4
v 0 3.3 -0.4
v 0.1 3.3 -0.4
v 0 3.3 -0.5
v 0.1 3.3 -0.5
v 0 3.3 -1.3
v 0.1 3.3 -1.3
v 0 3.3 -1.4
v 0.1 3.3 -1.4
v 0 3.3 -3.1
v 0.1 3.3 -3.1
v 0 3.3 -3.2
v 0.1 3.3 -3.2
v 0 3.3 -4
v 0.1 3.3 -4
v 0 3.3 -4.1
v 0.1 3.3 -4.1
v 0 3.4 0
v 0.1 3.4 0
v 0 3.4 -0.1
v 0.1 3.4 -0.1
v 0 3.4 -1.7
v 0.1 3.4 -1.7
v 0 3.4 -1.9
v 0.1 3.4 -1.9
v 0 3.4 -2.6
v 0.1 3.4 -2.6
v 0 3.4 -2.8
v 0.1 3.4 -2.8
v 0 3.4 -4.4
v 0.1 3.4 -4.4
v 0 3.4 -4.5
v 0.1 3.4 -4.5
v 0 3.3 -0.5
v 0.1 3.3 -0.5
v 0 3.3 -1.3
v 0.1 3.3 -1.3
v 0 3.3 -3.2
v 0.1 3.3 -3.2
v 0 3.3 -4
v 0.1 3.3 -4
v 0 3.4 -0.1
v 0.1 3.4 -0.1
v 0 3.4 -0.5
v 0.1 3.4 -0.5
v 0 3.4 -1.3
v 0.1 3.4 -1.3
v 0 3.4 -1.7
v 0.1 3.4 -1.7
v 0 3.4 -2.8
v 0.1 3.4 -2.8
v 0 3.4 -3.2
v 0.1 3.4 -3.2
v 0 3.4 -4
v 0.1 3.4 -4
v 0 3.4 -4.4
v 0.1 3.4 -4.4
v 0 3.5 0
v 0.1 3.5 0
v 0 3.5 -0.1
v 0.1 3.5 -0.1
v 0 3.5 -1.7
v 0.1 3.5 -1.7
v 0 3.5 -2.8
v 0.1 3.5 -2.8
v 0 3.5 -4.4
v 0.1 3.5 -4.4
v 0 3.5 -4.5
v 0.1 3.5 -4.5

# faces
f 4/2/1 2/2/1 1/2/1
f 5/2/1 2/2/1 4/2/1
f 8/2/1 4/2/1 3/2/1
f 8/2/1 6/2/1 5/2/1
f 8/2/1 5/2/1 4/2/1
f 9/2/1 6/2/1 8/2/1
f 10/2/1 6/2/1 9/2/1
f 11/2/1 6/2/1 10/2/1
f 13/2/1 8/2/1 7/2/1
f 13/2/1 9/2/1 8/2/1
f 14/1/1 10/1/1 9/1/1
f 14/2/1 9/2/1 13/2/1
f 15/2/1 12/2/1 11/2/1
f 15/1/1 10/1/1 14/1/1
f 15/2/1 11/2/1 10/2/1
f 16/2/1 12/2/1 15/2/1
f 18/2/1 13/2/1 7/2/1
f 19/2/1 12/2/1 16/2/1
f 21/2/1 18/2/1 17/2/1
f 21/2/1 13/2/1 18/2/1
f 22/1/1 14/1/1 13/1/1
f 22/2/1 13/2/1 21/2/1
f 22/1/1 15/1/1 14/1/1
f 22/1/1 16/1/1 15/1/1
f 23/2/1 20/2/1 19/2/1
f 23/1/1 16/1/1 22/1/1
f 23/2/1 19/2/1 16/2/1
f 24/2/1 20/2/1 23/2/1
f 32/2/1 26/2/1 25/2/1
f 33/2/1 26/2/1 32/2/1
f 40/2/1 28/2/1 27/2/1
f 41/2/1 28/2/1 40/2/1
f 46/2/1 30/2/1 29/2/1
f 47/2/1 30/2/1 46/2/1
f 49/2/1 32/2/1 31/2/1
f 50/1/1 33/1/1 32/1/1
f 50/2/1 32/2/1 49/2/1
f 51/2/1 34/2/1 33/2/1
f 51/1/1 33/1/1 50/1/1
f 52/2/1 34/2/1 51/2/1
f 54/2/1 36/2/1 35/2/1
f 55/2/1 36/2/1 54/2/1
f 58/2/1 38/2/1 37/2/1
f 59/2/1 38/2/1 58/2/1
f 61/2/1 40/2/1 39/2/1
f 62/1/1 41/1/1 40/1/1
f 62/2/1 40/2/1 61/2/1
f 63/2/1 42/2/1 41/2/1
f 63/1/1 41/1/1 62/1/1
f 64/2/1 42/2/1 63/2/1
f 66/2/1 44/2/1 43/2/1
f 67/2/1 44/2/1 66/2/1
f 69/2/1 46/2/1 45/2/1
f 70/1/1 47/1/1 46/1/1
f 70/2/1 46/2/1 69/2/1
f 71/2/1 48/2/1 47/2/1
f 71/1/1 47/1/1 70/1/1
f 72/2/1 48/2/1 71/2/1
f 73/2/1 54/2/1 53/2/1
f 74/1/1 55/1/1 54/1/1
f 74/2/1 54/2/1 73/2/1
f 75/2/1 56/2/1 55/2/1
f 75/1/1 55/1/1 74/1/1
f 76/2/1 56/2/1 75/2/1
f 77/2/1 58/2/1 57/2/1
f 78/1/1 59/1/1 58/1/1
f 78/2/1 58/2/1 77/2/1
f 79/2/1 60/2/1 59/2/1
f 79/1/1 59/1/1 78/1/1
f 80/2/1 60/2/1 79/2/1
f 81/2/1 66/2/1 65/2/1
f 82/1/1 67/1/1 66/1/1
f 82/2/1 66/2/1 81/2/1
f 83/2/1 68/2/1 67/2/1
f 83/1/1 67/1/1 82/1/1
f 84/2/1 68/2/1 83/2/1
f 86/1/1 50/1/1 49/1/1
f 86/1/1 52/1/1 51/1/1
f 86/1/1 51/1/1 50/1/1
f 87/1/1 52/1/1 86/1/1
f 90/1/1 64/1/1 63/1/1
f 90/1/1 62/1/1 61/1/1
f 90/1/1 63/1/1 62/1/1
f 91/1/1 64/1/1 90/1/1
f 93/1/1 70/1/1 69/1/1
f 93/1/1 72/1/1 71/1/1
f 93/1/1 71/1/1 70/1/1
f 94/1/1 72/1/1 93/1/1
f 95/3/1 88/3/1 87/3/1
f 95/3/1 87/3/1 86/3/1
f 95/3/1 86/3/1 85/3/1
f 96/3/1 88/3/1 95/3/1
f 97/1/1 74/1/1 73/1/1
f 97/1/1 76/1/1 75/1/1
f 97/1/1 75/1/1 74/1/1
f 98/1/1 76/1/1 97/1/1
f 99/1/1 78/1/1 77/1/1
f 99/1/1 80/1/1 79/1/1
f 99/1/1 79/1/1 78/1/1
f 100/1/1 80/1/1 99/1/1
f 101/3/1 92/3/1 91/3/1
f 101/3/1 91/3/1 90/3/1
f 101/3/1 90/3/1 89/3/1
f 102/3/1 92/3/1 101/3/1
f 103/1/1 84/1/1 83/1/1
f 103/1/1 82/1/1 81/1/1
f 103/1/1 83/1/1 82/1/1
f 104/1/1 84/1/1 103/1/1
f 106/3/1 94/3/1 93/3/1
f 106/3/1 95/3/1 94/3/1
f 107/3/1 95/3/1 106/3/1
f 108/3/1 98/3/1 97/3/1
f 108/3/1 97/3/1 96/3/1
f 109/3/1 98/3/1 108/3/1
f 110/2/1 21/2/1 17/2/1
f 111/1/1 22/1/1 21/1/1
f 111/1/1 23/1/1 22/1/1
f 111/2/1 21/2/1 110/2/1
f 111/1/1 24/1/1 23/1/1
f 112/2/1 20/2/1 24/2/1
f 112/1/1 24/1/1 111/1/1
f 113/2/1 20/2/1 112/2/1
f 114/3/1 100/3/1 99/3/1
f 114/3/1 101/3/1 100/3/1
f 115/3/1 101/3/1 114/3/1
f 116/3/1 103/3/1 102/3/1
f 116/3/1 104/3/1 103/3/1
f 117/3/1 104/3/1 116/3/1
f 119/3/1 106/3/1 105/3/1
f 120/3/1 106/3/1 119/3/1
f 121/3/1 110/3/1 109/3/1
f 121/3/1 111/3/1 110/3/1
f 121/3/1 113/3/1 112/3/1
f 121/3/1 114/3/1 113/3/1
f 121/3/1 112/3/1 111/3/1
f 122/3/1 114/3/1 121/3/1
f 123/3/1 118/3/1 117/3/1
f 124/3/1 118/3/1 123/3/1
f 125/2/2 126/2/2 128/2/2
f 128/2/2 126/2/2 129/2/2
f 127/2/2 128/2/2 132/2/2
f 129/2/2 130/2/2 132/2/2
f 128/2/2 129/2/2 132/2/2
f 132/2/2 130/2/2 133/2/2
f 133/2/2 130/2/2 134/2/2
f 134/2/2 130/2/2 135/2/2
f 131/2/2 132/2/2 137/2/2
f 132/2/2 133/2/2 137/2/2
f 133/1/2 134/1/2 138/1/2
f 137/2/2 133/2/2 138/2/2
f 135/2/2 136/2/2 139/2/2
f 138/1/2 134/1/2 139/1/2
f 134/2/2 135/2/2 139/2/2
f 139/2/2 136/2/2 140/2/2
f 131/2/2 137/2/2 142/2/2
f 140/2/2 136/2/2 143/2/2
f 141/2/2 142/2/2 145/2/2
f 142/2/2 137/2/2 145/2/2
f 137/1/2 138/1/2 146/1/2
f 145/2/2 137/2/2 146/2/2
f 138/1/2 139/1/2 146/1/2
f 139/1/2 140/1/2 146/1/2
f 143/2/2 144/2/2 147/2/2
f 146/1/2 140/1/2 147/1/2
f 140/2/2 143/2/2 147/2/2
f 147/2/2 144/2/2 148/2/2
f 149/2/2 150/2/2 156/2/2
f 156/2/2 150/2/2 157/2/2
f 151/2/2 152/2/2 164/2/2
f 164/2/2 152/2/2 165/2/2
f 153/2/2 154/2/2 170/2/2
f 170/2/2 154/2/2 171/2/2
f 155/2/2 156/2/2 173/2/2
f 156/1/2 157/1/2 174/1/2
f 173/2/2 156/2/2 174/2/2
f 157/2/2 158/2/2 175/2/2
f 174/1/2 157/1/2 175/1/2
f 175/2/2 158/2/2 176/2/2
f 159/2/2 160/2/2 178/2/2
f 178/2/2 160/2/2 179/2/2
f 161/2/2 162/2/2 182/2/2
f 182/2/2 162/2/2 183/2/2
f 163/2/2 164/2/2 185/2/2
f 164/1/2 165/1/2 186/1/2
f 185/2/2 164/2/2 186/2/2
f 165/2/2 166/2/2 187/2/2
f 186/1/2 165/1/2 187/1/2
f 187/2/2 166/2/2 188/2/2
f 167/2/2 168/2/2 190/2/2
f 190/2/2 168/2/2 191/2/2
f 169/2/2 170/2/2 193/2/2
f 170/1/2 171/1/2 194/1/2
f 193/2/2 170/2/2 194/2/2
f 171/2/2 172/2/2 195/2/2
f 194/1/2 171/1/2 195/1/2
f 195/2/2 172/2/2 196/2/2
f 177/2/2 178/2/2 197/2/2
f 178/1/2 179/1/2 198/1/2
f 197/2/2 178/2/2 198/2/2
f 179/2/2 180/2/2 199/2/2
f 198/1/2 179/1/2 199/1/2
f 199/2/2 180/2/2 200/2/2
f 181/2/2 182/2/2 201/2/2
f 182/1/2 183/1/2 202/1/2
f 201/2/2 182/2/2 202/2/2
f 183/2/2 184/2/2 203/2/2
f 202/1/2 183/1/2 203/1/2
f 203/2/2 184/2/2 204/2/2
f 189/2/2 190/2/2 205/2/2
f 190/1/2 191/1/2 206/1/2
f 205/2/2 190/2/2 206/2/2
f 191/2/2 192/2/2 207/2/2
f 206/1/2 191/1/2 207/1/2
f 207/2/2 192/2/2 208/2/2
f 173/1/2 174/1/2 210/1/2
f 175/1/2 176/1/2 210/1/2
f 174/1/2 175/1/2 210/1/2
f 210/1/2 176/1/2 211/1/2
f 187/1/2 188/1/2 214/1/2
f 185/1/2 186/1/2 214/1/2
f 186/1/2 187/1/2 214/1/2
f 214/1/2 188/1/2 215/1/2
f 193/1/2 194/1/2 217/1/2
f 195/1/2 196/1/2 217/1/2
f 194/1/2 195/1/2 217/1/2
f 217/1/2 196/1/2 218/1/2
f 211/3/2 212/3/2 219/3/2
f 210/3/2 211/3/2 219/3/2
f 209/3/2 210/3/2 219/3/2
f 219/3/2 212/3/2 220/3/2
f 197/1/2 198/1/2 221/1/2
f 199/1/2 200/1/2 221/1/2
f 198/1/2 199/1/2 221/1/2
f 221/1/2 200/1/2 222/1/2
f 201/1/2 202/1/2 223/1/2
f 203/1/2 204/1/2 223/1/2
f 202/1/2 203/1/2 223/1/2
f 223/1/2 204/1/2 224/1/2
f 215/3/2 216/3/2 225/3/2
f 214/3/2 215/3/2 225/3/2
f 213/3/2 214/3/2 225/3/2
f 225/3/2 216/3/2 226/3/2
f 207/1/2 208/1/2 227/1/2
f 205/1/2 206/1/2 227/1/2
f 206/1/2 207/1/2 227/1/2
f 227/1/2 208/1/2 228/1/2
f 217/3/2 218/3/2 230/3/2
f 218/3/2 219/3/2 230/3/2
f 230/3/2 219/3/2 231/3/2
f 221/3/2 222/3/2 232/3/2
f 220/3/2 221/3/2 232/3/2
f 232/3/2 222/3/2 233/3/2
f 141/2/2 145/2/2 234/2/2
f 145/1/2 146/1/2 235/1/2
f 146/1/2 147/1/2 235/1/2
f 234/2/2 145/2/2 235/2/2
f 147/1/2 148/1/2 235/1/2
f 148/2/2 144/2/2 236/2/2
f 235/1/2 148/1/2 236/1/2
f 236/2/2 144/2/2 237/2/2
f 223/3/2 224/3/2 238/3/2
f 224/3/2 225/3/2 238/3/2
f 238/3/2 225/3/2 239/3/2
f 226/3/2 227/3/2 240/3/2
f 227/3/2 228/3/2 240/3/2
f 240/3/2 228/3/2 241/3/2
f 229/3/2 230/3/2 243/3/2
f 243/3/2 230/3/2 244/3/2
f 233/3/2 234/3/2 245/3/2
f 234/3/2 235/3/2 245/3/2
f 236/3/2 237/3/2 245/3/2
f 237/3/2 238/3/2 245/3/2
f 235/3/2 236/3/2 245/3/2
f 245/3/2 238/3/2 246/3/2
f 241/3/2 242/3/2 247/3/2
f 247/3/2 242/3/2 248/3/2
f 251/3/3 250/3/3 249/3/3
f 252/3/3 250/3/3 251/3/3
f 257/2/3 254/2/3 253/2/3
f 258/1/3 255/1/3 254/1/3
f 258/2/3 254/2/3 257/2/3
f 259/3/3 256/3/3 255/3/3
f 259/1/3 255/1/3 258/1/3
f 260/3/3 256/3/3 259/3/3
f 263/2/3 262/2/3 261/2/3
f 264/2/3 262/2/3 263/2/3
f 267/3/3 266/3/3 265/3/3
f 268/3/3 266/3/3 267/3/3
f 272/2/3 270/2/3 269/2/3
f 273/1/3 271/1/3 270/1/3
f 273/2/3 270/2/3 272/2/3
f 274/1/3 271/1/3 273/1/3
f 277/2/3 276/2/3 275/2/3
f 278/2/3 276/2/3 277/2/3
f 281/3/3 280/3/3 279/3/3
f 282/3/3 280/3/3 281/3/3
f 286/2/3 284/2/3 283/2/3
f 287/1/3 285/1/3 284/1/3
f 287/2/3 284/2/3 286/2/3
f 288/1/3 285/1/3 287/1/3
f 291/2/3 290/2/3 289/2/3
f 292/2/3 290/2/3 291/2/3
f 295/3/3 294/3/3 293/3/3
f 296/3/3 294/3/3 295/3/3
f 299/2/3 298/2/3 297/2/3
f 300/2/3 298/2/3 299/2/3
f 303/2/3 302/2/3 301/2/3
f 304/2/3 302/2/3 303/2/3
f 307/2/3 306/2/3 305/2/3
f 308/2/3 306/2/3 307/2/3
f 311/2/3 310/2/3 309/2/3
f 312/2/3 310/2/3 311/2/3
f 317/2/3 314/2/3 313/2/3
f 318/1/3 315/1/3 314/1/3
f 318/2/3 314/2/3 317/2/3
f 319/3/3 316/3/3 315/3/3
f 319/1/3 315/1/3 318/1/3
f 320/3/3 316/3/3 319/3/3
f 323/2/3 322/2/3 321/2/3
f 324/2/3 322/2/3 323/2/3
f 327/3/3 326/3/3 325/3/3
f 328/3/3 326/3/3 327/3/3
f 332/2/3 330/2/3 329/2/3
f 333/1/3 331/1/3 330/1/3
f 333/2/3 330/2/3 332/2/3
f 334/1/3 331/1/3 333/1/3
f 337/2/3 336/2/3 335/2/3
f 338/2/3 336/2/3 337/2/3
f 341/3/3 340/3/3 339/3/3
f 342/3/3 340/3/3 341/3/3
f 346/2/3 344/2/3 343/2/3
f 347/1/3 345/1/3 344/1/3
f 347/2/3 344/2/3 346/2/3
f 348/1/3 345/1/3 347/1/3
f 351/2/3 350/2/3 349/2/3
f 352/2/3 350/2/3 351/2/3
f 355/3/3 354/3/3 353/3/3
f 356/3/3 354/3/3 355/3/3
f 357/3/4 358/3/4 359/3/4
f 359/3/4 358/3/4 360/3/4
f 361/2/4 362/2/4 363/2/4
f 363/2/4 362/2/4 364/2/4
f 365/2/4 366/2/4 368/2/4
f 366/1/4 367/1/4 369/1/4
f 368/2/4 366/2/4 369/2/4
f 369/1/4 367/1/4 370/1/4
f 371/3/4 372/3/4 373/3/4
f 373/3/4 372/3/4 374/3/4
f 375/2/4 376/2/4 377/2/4
f 377/2/4 376/2/4 378/2/4
f 379/2/4 380/2/4 382/2/4
f 380/1/4 381/1/4 383/1/4
f 382/2/4 380/2/4 383/2/4
f 383/1/4 381/1/4 384/1/4
f 385/3/4 386/3/4 387/3/4
f 387/3/4 386/3/4 388/3/4
f 389/2/4 390/2/4 391/2/4
f 391/2/4 390/2/4 392/2/4
f 393/2/4 394/2/4 397/2/4
f 394/1/4 395/1/4 398/1/4
f 397/2/4 394/2/4 398/2/4
f 395/3/4 396/3/4 399/3/4
f 398/1/4 395/1/4 399/1/4
f 399/3/4 396/3/4 400/3/4
f 401/2/4 402/2/4 403/2/4
f 403/2/4 402/2/4 404/2/4
f 405/2/4 406/2/4 407/2/4
f 407/2/4 406/2/4 408/2/4
f 409/2/4 410/2/4 411/2/4
f 411/2/4 410/2/4 412/2/4
f 413/2/4 414/2/4 415/2/4
f 415/2/4 414/2/4 416/2/4
f 417/3/4 418/3/4 419/3/4
f 419/3/4 418/3/4 420/3/4
f 421/2/4 422/2/4 423/2/4
f 423/2/4 422/2/4 424/2/4
f 425/2/4 426/2/4 428/2/4
f 426/1/4 427/1/4 429/1/4
f 428/2/4 426/2/4 429/2/4
f 429/1/4 427/1/4 430/1/4
f 431/3/4 432/3/4 433/3/4
f 433/3/4 432/3/4 434/3/4
f 435/2/4 436/2/4 437/2/4
f 437/2/4 436/2/4 438/2/4
f 439/2/4 440/2/4 442/2/4
f 440/1/4 441/1/4 443/1/4
f 442/2/4 440/2/4 443/2/4
f 443/1/4 441/1/4 444/1/4
f 445/3/4 446/3/4 447/3/4
f 447/3/4 446/3/4 448/3/4
f 449/2/4 450/2/4 451/2/4
f 451/2/4 450/2/4 452/2/4
f 453/2/4 454/2/4 457/2/4
f 454/1/4 455/1/4 458/1/4
f 457/2/4 454/2/4 458/2/4
f 455/3/4 456/3/4 459/3/4
f 458/1/4 455/1/4 459/1/4
f 459/3/4 456/3/4 460/3/4
f 461/3/4 462/3/4 463/3/4
f 463/3/4 462/3/4 464/3/4
f 467/2/5 466/2/5 465/2/5
f 468/2/5 466/2/5 467/2/5
f 471/2/5 470/2/5 469/2/5
f 472/2/5 470/2/5 471/2/5
f 475/2/5 474/2/5 473/2/5
f 476/2/5 474/2/5 475/2/5
f 479/2/5 478/2/5 477/2/5
f 480/2/5 478/2/5 479/2/5
f 483/2/5 482/2/5 481/2/5
f 484/2/5 482/2/5 483/2/5
f 487/2/5 486/2/5 485/2/5
f 488/2/5 486/2/5 487/2/5
f 491/2/5 490/2/5 489/2/5
f 492/2/5 490/2/5 491/2/5
f 495/2/5 494/2/5 493/2/5
f 496/2/5 494/2/5 495/2/5
f 499/2/5 498/2/5 497/2/5
f 500/2/5 498/2/5 499/2/5
f 503/2/5 502/2/5 501/2/5
f 504/2/5 502/2/5 503/2/5
f 507/2/5 506/2/5 505/2/5
f 508/2/5 506/2/5 507/2/5
f 511/2/5 510/2/5 509/2/5
f 512/2/5 510/2/5 511/2/5
f 515/2/5 514/2/5 513/2/5
f 516/2/5 514/2/5 515/2/5
f 519/2/5 518/2/5 517/2/5
f 520/2/5 518/2/5 519/2/5
f 523/2/5 522/2/5 521/2/5
f 524/2/5 522/2/5 523/2/5
f 527/2/5 526/2/5 525/2/5
f 528/2/5 526/2/5 527/2/5
f 531/2/5 530/2/5 529/2/5
f 532/2/5 530/2/5 531/2/5
f 535/2/5 534/2/5 533/2/5
f 536/2/5 534/2/5 535/2/5
f 539/2/5 538/2/5 537/2/5
f 540/2/5 538/2/5 539/2/5
f 543/2/5 542/2/5 541/2/5
f 544/2/5 542/2/5 543/2/5
f 547/2/5 546/2/5 545/2/5
f 548/2/5 546/2/5 547/2/5
f 551/2/5 550/2/5 549/2/5
f 552/2/5 550/2/5 551/2/5
f 555/2/5 554/2/5 553/2/5
f 556/2/5 554/2/5 555/2/5
f 559/2/5 558/2/5 557/2/5
f 560/2/5 558/2/5 559/2/5
f 563/2/5 562/2/5 561/2/5
f 564/2/5 562/2/5 563/2/5
f 567/3/5 566/3/5 565/3/5
f 568/3/5 566/3/5 567/3/5
f 571/3/5 570/3/5 569/3/5
f 572/3/5 570/3/5 571/3/5
f 575/3/5 574/3/5 573/3/5
f 576/3/5 574/3/5 575/3/5
f 579/3/5 578/3/5 577/3/5
f 580/3/5 578/3/5 579/3/5
f 583/3/5 582/3/5 581/3/5
f 584/3/5 582/3/5 583/3/5
f 587/3/5 586/3/5 585/3/5
f 588/3/5 586/3/5 587/3/5
f 591/3/5 590/3/5 589/3/5
f 592/3/5 590/3/5 591/3/5
f 595/3/5 594/3/5 593/3/5
f 596/3/5 594/3/5 595/3/5
f 599/3/5 598/3/5 597/3/5
f 600/3/5 598/3/5 599/3/5
f 603/3/5 602/3/5 601/3/5
f 604/3/5 602/3/5 603/3/5
f 607/3/5 606/3/5 605/3/5
f 608/3/5 606/3/5 607/3/5
f 611/3/5 610/3/5 609/3/5
f 612/3/5 610/3/5 611/3/5
f 613/3/6 614/3/6 615/3/6
f 615/3/6 614/3/6 616/3/6
f 617/3/6 618/3/6 619/3/6
f 619/3/6 618/3/6 620/3/6
f 621/3/6 622/3/6 623/3/6
f 623/3/6 622/3/6 624/3/6
f 625/3/6 626/3/6 627/3/6
f 627/3/6 626/3/6 628/3/6
f 629/3/6 630/3/6 631/3/6
f 631/3/6 630/3/6 632/3/6
f 633/3/6 634/3/6 635/3/6
f 635/3/6 634/3/6 636/3/6
f 637/3/6 638/3/6 639/3/6
f 639/3/6 638/3/6 640/3/6
f 641/3/6 642/3/6 643/3/6
f 643/3/6 642/3/6 644/3/6
f 645/3/6 646/3/6 647/3/6
f 647/3/6 646/3/6 648/3/6
